<?xml version="1.0" encoding="utf-8"?>
<!-- Generator: Adobe Illustrator 26.3.1, SVG Export Plug-In . SVG Version: 6.00 Build 0)  -->
<svg version="1.1" id="Layer_1" xmlns="http://www.w3.org/2000/svg" xmlns:xlink="http://www.w3.org/1999/xlink" x="0px" y="0px"
	 viewBox="0 0 77.66 77.66" style="enable-background:new 0 0 77.66 77.66;" xml:space="preserve">
<style type="text/css">
	.st0{clip-path:url(#SVGID_00000025413526878456852330000007412402154941144960_);}
	.st1{fill:#FFFFFF;}
	.st2{clip-path:url(#SVGID_00000045595689320302247760000008739921227456597946_);}
	.st3{clip-path:url(#SVGID_00000043418884975992407540000002906033047479638668_);}
	.st4{opacity:0.83;fill:url(#SVGID_00000057849842719978422150000007057828405717576595_);}
	.st5{clip-path:url(#SVGID_00000049931599029483878510000016924868492716689300_);}
	.st6{clip-path:url(#SVGID_00000018198625277850928230000018093291033954035343_);}
	.st7{opacity:0.1;}
	.st8{fill:none;}
	.st9{fill:#C1C8E1;}
	.st10{fill:#E3E2E2;}
	.st11{fill:#055D91;}
	.st12{fill:#183A65;}
	.st13{clip-path:url(#SVGID_00000147183007860498922610000011818364615025971864_);}
	.st14{fill-rule:evenodd;clip-rule:evenodd;}
	.st15{fill-rule:evenodd;clip-rule:evenodd;fill:#E93638;}
	.st16{fill:#E93839;}
	.st17{clip-path:url(#SVGID_00000049910164425527657270000012818997023513753490_);}
	.st18{fill-rule:evenodd;clip-rule:evenodd;fill:#E93839;}
	.st19{fill:url(#SVGID_00000025440127568274379440000011806234374955446683_);}
	.st20{fill:url(#SVGID_00000012442423384444986640000001739616033222653104_);}
	.st21{opacity:0.2;clip-path:url(#SVGID_00000070800386290556113440000000167463265505413259_);}
	.st22{fill-rule:evenodd;clip-rule:evenodd;fill:#FFFFFF;}
	.st23{opacity:0.2;clip-path:url(#SVGID_00000163773652641457534270000013518470066675118775_);}
	.st24{clip-path:url(#SVGID_00000170964650901703791560000009179845196048504725_);}
	.st25{fill:url(#SVGID_00000073705115318488716700000006661521227447683725_);}
	.st26{fill:url(#SVGID_00000073708530086345128890000000885641216493784727_);}
	.st27{fill:url(#SVGID_00000024689481953384682450000006680686661961044365_);}
	.st28{fill:url(#SVGID_00000140724942086296730690000017701837570058182580_);}
	.st29{clip-path:url(#SVGID_00000160172022444026250280000007379814201614492312_);}
	.st30{clip-path:url(#SVGID_00000159454134278059996820000001006676095980107666_);}
	.st31{fill-rule:evenodd;clip-rule:evenodd;fill:#E9383A;}
	.st32{fill:#E9383A;}
	.st33{clip-path:url(#SVGID_00000134970640295396565270000007987826846614484652_);}
	.st34{clip-path:url(#SVGID_00000080924279768708659190000007788847523693897353_);}
	.st35{fill:url(#SVGID_00000129202107783847808560000003605444728057370513_);}
	.st36{fill:url(#SVGID_00000156553055447510466590000017759096511115404170_);}
	.st37{fill:url(#SVGID_00000155863062582189506040000008135024801474465174_);}
	.st38{fill:url(#SVGID_00000178924709232103284810000006524047007775258286_);}
	.st39{fill:none;stroke:#D1232D;stroke-width:3;stroke-miterlimit:10;}
	.st40{fill:#AD2E3F;}
	.st41{fill:#D51419;}
</style>
<g id="yOyyaA.tif_00000156547467163947677320000012598307868539499705_">
	<g>
		<g>
			<path class="st32" d="M15.05,44.9c-0.02,1.13-0.01,2.16-0.01,3.18c0,1.03,0,2.06,0,3.09c0,1.05,0,2.1,0,3.15
				c0,1.03,0,2.06,0,3.09c0,1.03,0,2.06,0,3.09c0,1.02-0.01,2.05-0.01,3.1c-0.71,0-1.34,0-2.03,0c-0.01-0.24-0.04-0.47-0.04-0.7
				c0-5.41,0-10.82,0-16.24c0-1.14-0.01-2.28,0.01-3.43c0-0.34-0.08-0.61-0.32-0.86c-0.18-0.19-0.33-0.41-0.48-0.62
				c-0.56-0.79-0.32-1.49,0.59-1.78c0.05-0.02,0.1-0.04,0.21-0.09c0-0.52,0-1.06,0-1.6c0-0.54,0-1.08,0-1.61c0.71,0,1.35,0,2.05,0
				c0.01,0.2,0.03,0.42,0.03,0.64c0,1.35,0.01,2.7-0.01,4.04c-0.01,0.39,0.12,0.66,0.4,0.93c2.67,2.6,5.78,4.5,9.22,5.89
				c2.93,1.18,5.99,1.91,9.13,2.27c2.67,0.31,5.35,0.38,8.03,0.2c5.59-0.39,10.89-1.8,15.71-4.73c1.7-1.03,3.27-2.24,4.71-3.63
				c0.28-0.27,0.39-0.55,0.38-0.93c-0.02-1.37-0.01-2.73-0.01-4.1c0-0.18,0-0.37,0-0.58c0.7,0,1.36,0,2.08,0c0,1.05,0,2.12,0,3.22
				c0.17,0.06,0.29,0.09,0.4,0.14c0.67,0.27,0.9,0.94,0.51,1.56c-0.19,0.3-0.41,0.58-0.64,0.85c-0.18,0.21-0.26,0.43-0.26,0.71
				c0.01,3.63,0.01,7.27,0.01,10.9c0,1.8,0.01,3.6,0.01,5.39c0,0.13-0.03,3.05-0.03,4.15c-0.68,0-1.34,0-2.05,0l-0.03-4.06
				c0-4.83,0-9.67,0-14.6c-0.19,0.12-0.31,0.19-0.42,0.28c-4.2,3.52-9.07,5.63-14.4,6.74c-3.26,0.68-6.56,0.95-9.89,0.88
				c-4.81-0.11-9.5-0.87-14-2.66c-3.03-1.21-5.83-2.81-8.34-4.91C15.41,45.16,15.28,45.07,15.05,44.9z"/>
			<path class="st32" d="M49.77,16.52c-0.22,0.08-0.41,0.15-0.6,0.22c-7.09,2.33-14.19,4.66-21.28,7c-0.45,0.15-0.74,0.09-1.07-0.25
				c-1.62-1.67-3.26-3.31-4.9-4.95c-0.07-0.07-0.14-0.13-0.2-0.2c-0.54-0.63-0.35-1.43,0.42-1.73c0.51-0.2,1.03-0.35,1.54-0.52
				c7.38-2.42,14.76-4.84,22.14-7.26c0.09-0.03,0.18-0.06,0.27-0.09c0.66-0.17,1.15,0.07,1.38,0.72c0.29,0.85,0.56,1.71,0.84,2.56
				c0.43,1.31,0.87,2.63,1.3,3.94C49.66,16.12,49.71,16.3,49.77,16.52z M26.59,19.64c0.13-0.04,0.38-0.1,0.63-0.18
				c5.8-1.9,11.6-3.8,17.39-5.71c0.32-0.11,0.65-0.2,0.95-0.34c0.46-0.22,0.7-0.74,0.59-1.22c-0.1-0.46-0.52-0.84-1-0.85
				c-0.22-0.01-0.44,0.05-0.66,0.12c-6.03,1.97-12.06,3.95-18.08,5.94c-0.19,0.06-0.39,0.13-0.57,0.24
				c-0.42,0.26-0.59,0.77-0.45,1.22C25.56,19.34,25.96,19.64,26.59,19.64z"/>
			<path class="st32" d="M68.97,68.98c-20.11,0-40.16,0-60.28,0c0.04-0.17,0.05-0.31,0.1-0.44c0.68-1.59,1.9-2.51,3.6-2.67
				c1.11-0.11,2.24-0.02,3.36,0.03c0.73,0.03,1.37,0.36,1.95,0.79c0.22,0.16,0.45,0.26,0.73,0.23c0.11-0.01,0.22,0,0.34,0
				c13.38,0,26.76,0,40.14,0.01c0.44,0,0.83-0.06,1.2-0.35c0.56-0.43,1.23-0.69,1.93-0.71c1.21-0.03,2.45-0.09,3.64,0.08
				c1.56,0.23,2.61,1.22,3.21,2.68C68.92,68.73,68.93,68.84,68.97,68.98z"/>
			<path class="st32" d="M42.22,24.72c0.86,2.19,1.7,4.33,2.57,6.56c-0.79-0.04-1.5,0.01-2.18,0.29c-0.67,0.27-1.22,0.71-1.78,1.28
				c-0.9-2.27-1.77-4.49-2.67-6.76c-0.25,0.06-0.48,0.11-0.71,0.18c-3.02,0.99-6.05,1.97-9.06,2.99c-1.18,0.4-1.69,0.02-1.97-1.01
				c-0.26-0.95-0.61-1.88-0.92-2.82c0.06,0,0.11-0.01,0.12,0c0.75,0.73,1.59,0.86,2.58,0.53c7.16-2.37,14.33-4.71,21.49-7.07
				c0.24-0.08,0.49-0.15,0.79-0.24c0.24,0.73,0.49,1.42,0.67,2.12c0.15,0.59-0.17,1.05-0.83,1.27c-1.3,0.43-2.6,0.85-3.89,1.28
				c-1.24,0.41-2.49,0.82-3.73,1.23C42.57,24.58,42.44,24.64,42.22,24.72z"/>
			<path class="st32" d="M48.05,37.68c0.66-1.41,0.67-2.76,0-4.16c0.19-0.02,0.32-0.05,0.46-0.05c1.74,0,3.48-0.01,5.22,0
				c0.85,0,1.25,0.39,1.26,1.22c0.01,0.62-0.01,1.23,0,1.85c0.01,0.59-0.38,1.19-1.19,1.18c-1.78-0.03-3.55-0.01-5.33-0.01
				C48.37,37.71,48.25,37.7,48.05,37.68z"/>
			<path class="st32" d="M42.08,35.62c-0.01-1.19,0.94-2.15,2.12-2.15c1.18,0,2.14,0.95,2.15,2.13c0.01,1.18-0.94,2.14-2.13,2.15
				C43.04,37.76,42.08,36.81,42.08,35.62z"/>
			<path class="st32" d="M16.1,32.39c-0.01,1.19-0.97,2.13-2.16,2.1c-1.17-0.03-2.08-0.96-2.08-2.12c0-1.18,0.97-2.15,2.14-2.14
				C15.17,30.23,16.11,31.2,16.1,32.39z"/>
			<path class="st32" d="M61.54,32.39c-0.01-1.2,0.92-2.16,2.1-2.16c1.16-0.01,2.15,0.98,2.14,2.14c0,1.16-0.93,2.1-2.1,2.12
				C62.5,34.51,61.55,33.59,61.54,32.39z"/>
			<path class="st32" d="M23.8,27.33c-0.4,0.13-0.71,0.27-1.04,0.34c-0.59,0.14-1.05-0.1-1.27-0.65c-0.15-0.36-0.27-0.74-0.37-1.12
				c-0.13-0.51,0.1-0.99,0.57-1.21c0.17-0.08,0.35-0.13,0.53-0.19c0.17-0.06,0.35-0.11,0.58-0.18C23.14,25.33,23.46,26.3,23.8,27.33
				z"/>
		</g>
	</g>
</g>
</svg>
