<?xml version="1.0" encoding="utf-8"?>
<!-- Generator: Adobe Illustrator 26.3.1, SVG Export Plug-In . SVG Version: 6.00 Build 0)  -->
<svg version="1.1" id="Layer_1" xmlns="http://www.w3.org/2000/svg" xmlns:xlink="http://www.w3.org/1999/xlink" x="0px" y="0px"
	 viewBox="0 0 77.66 77.66" style="enable-background:new 0 0 77.66 77.66;" xml:space="preserve">
<style type="text/css">
	.st0{clip-path:url(#SVGID_00000039132994500090481430000014710749822940140984_);}
	.st1{fill:#FFFFFF;}
	.st2{clip-path:url(#SVGID_00000165935324132752475820000009830945339402481059_);}
	.st3{clip-path:url(#SVGID_00000065036058972322763060000012930211565514082999_);}
	.st4{opacity:0.83;fill:url(#SVGID_00000039128368707262701690000009813966101573470615_);}
	.st5{clip-path:url(#SVGID_00000057147407632574961450000015433552176713132931_);}
	.st6{clip-path:url(#SVGID_00000020387482117249697150000007666502601778814855_);}
	.st7{opacity:0.1;}
	.st8{fill:none;}
	.st9{fill:#C1C8E1;}
	.st10{fill:#E3E2E2;}
	.st11{fill:#055D91;}
	.st12{fill:#183A65;}
	.st13{clip-path:url(#SVGID_00000044165641272921413690000017399764686200244388_);}
	.st14{fill-rule:evenodd;clip-rule:evenodd;}
	.st15{fill-rule:evenodd;clip-rule:evenodd;fill:#E93638;}
	.st16{fill:#E93839;}
	.st17{clip-path:url(#SVGID_00000029738788444103861350000014859956931607123382_);}
	.st18{fill-rule:evenodd;clip-rule:evenodd;fill:#E93839;}
	.st19{fill:url(#SVGID_00000137110942939986928060000009366213213801929096_);}
	.st20{fill:url(#SVGID_00000103224231459255705520000008619063439514664380_);}
	.st21{opacity:0.2;clip-path:url(#SVGID_00000158713318315441984810000000394472721852599472_);}
	.st22{fill-rule:evenodd;clip-rule:evenodd;fill:#FFFFFF;}
	.st23{opacity:0.2;clip-path:url(#SVGID_00000111192402510761309700000014763535750141632160_);}
	.st24{clip-path:url(#SVGID_00000054961597304244886040000005111821842924540843_);}
	.st25{fill:url(#SVGID_00000108990577515215718730000000451283580770056855_);}
	.st26{fill:url(#SVGID_00000097474027157167270930000018364100144188658341_);}
	.st27{fill:url(#SVGID_00000181799673478485215780000007245508255362112444_);}
	.st28{fill:url(#SVGID_00000029738437088369859160000001859143449019607699_);}
	.st29{clip-path:url(#SVGID_00000056405496226670701220000000996879088542155439_);}
	.st30{clip-path:url(#SVGID_00000023255541522911277550000017984692279081878687_);}
	.st31{fill-rule:evenodd;clip-rule:evenodd;fill:#E9383A;}
	.st32{fill:#E9383A;}
	.st33{clip-path:url(#SVGID_00000141453372258020838800000007245084736273843841_);}
	.st34{clip-path:url(#SVGID_00000148634777617895731910000017428627228223550625_);}
	.st35{fill:url(#SVGID_00000130606073798615053580000005202996922532174740_);}
	.st36{fill:url(#SVGID_00000147219581834842584690000010938789986743571368_);}
	.st37{fill:url(#SVGID_00000119803946156271808550000008981814829462131387_);}
	.st38{fill:url(#SVGID_00000095304875834239185310000004237289708637121424_);}
	.st39{fill:none;stroke:#D1232D;stroke-width:3;stroke-miterlimit:10;}
	.st40{fill:#AD2E3F;}
	.st41{fill:#D51419;}
</style>
<path class="st32" d="M57.63,62.56l-1.96-0.42c-0.6-0.14-1.24,0.05-1.67,0.49l-0.24,0.24c-1.12-0.69-2.06-1.63-2.75-2.75l0.24-0.24
	c0.44-0.44,0.62-1.07,0.49-1.68l-0.42-1.97c-0.18-0.85-0.93-1.46-1.8-1.46h-2.37c-0.52,0-1.01,0.21-1.36,0.6
	c-0.35,0.38-0.52,0.89-0.48,1.4c0.15,1.69,0.63,3.33,1.41,4.84c-0.45-0.14-0.92,0.11-1.06,0.56c-0.03,0.08-0.04,0.17-0.04,0.25v5.02
	c0,0.47,0.38,0.85,0.85,0.85s0.85-0.38,0.85-0.85v-4.8c2.17,3.37,5.77,5.55,9.77,5.9c0.06,0.01,0.12,0.01,0.18,0.01
	c0.46,0,0.89-0.17,1.23-0.49c0.38-0.35,0.6-0.84,0.6-1.36v-2.36C59.1,63.49,58.49,62.74,57.63,62.56L57.63,62.56z M57.39,66.73
	c0,0.07-0.06,0.14-0.13,0.14c-0.01,0-0.01,0-0.02,0h-0.01c-5.44-0.47-9.76-4.79-10.23-10.23c-0.01-0.04,0-0.08,0.03-0.11
	c0.02-0.03,0.06-0.05,0.1-0.05h2.37c0.07,0,0.13,0.04,0.14,0.11l0.42,1.97c0.01,0.04,0,0.09-0.04,0.12l-0.69,0.7
	c-0.26,0.26-0.32,0.67-0.15,0.99c0.96,1.84,2.46,3.34,4.3,4.3c0.33,0.17,0.73,0.11,0.99-0.15l0.7-0.68
	c0.03-0.04,0.08-0.05,0.13-0.04l1.96,0.42c0.07,0.01,0.11,0.07,0.11,0.14L57.39,66.73L57.39,66.73z M56.46,54.17
	c0-0.23-0.19-0.42-0.43-0.42h0h-1.28c-0.47,0-0.85-0.38-0.85-0.85s0.38-0.85,0.85-0.85h1.28c1.17,0,2.12,0.95,2.13,2.12
	c0,1.26-0.91,2.21-2.13,2.21c-0.24,0-0.43,0.19-0.43,0.43v0.51h1.7c0.47,0,0.85,0.38,0.85,0.85s-0.38,0.85-0.85,0.85h-2.55
	c-0.47,0-0.85-0.38-0.85-0.85v-1.36c0-1.17,0.95-2.13,2.13-2.13C56.42,54.68,56.45,54.29,56.46,54.17L56.46,54.17z M61.29,56.38
	h-1.75c-0.47,0-0.85-0.38-0.85-0.85c0-0.05,0-0.09,0.01-0.13l0.42-2.64c0.08-0.47,0.51-0.78,0.98-0.71
	c0.47,0.08,0.78,0.51,0.71,0.98l-0.26,1.65h0.75V52.9c0-0.47,0.38-0.85,0.85-0.85c0.47,0,0.85,0.38,0.85,0.85v5.27
	c0,0.47-0.38,0.85-0.85,0.85c-0.47,0-0.85-0.38-0.85-0.85V56.38z M32.05,62.43v5.02c0,0.47-0.38,0.85-0.85,0.85
	c-0.47,0-0.85-0.38-0.85-0.85v-5.02c0-0.47,0.38-0.85,0.85-0.85C31.67,61.58,32.05,61.96,32.05,62.43z M39.68,62.43
	c0,0.47-0.38,0.85-0.85,0.85s-0.85-0.38-0.85-0.85s0.38-0.85,0.85-0.85S39.68,61.96,39.68,62.43z M39.68,58.66
	c0,0.47-0.38,0.85-0.85,0.85s-0.85-0.38-0.85-0.85s0.38-0.85,0.85-0.85l0,0C39.3,57.81,39.68,58.19,39.68,58.66z M39.68,66.21
	c0,0.47-0.38,0.85-0.85,0.85s-0.85-0.38-0.85-0.85s0.38-0.85,0.85-0.85l0,0C39.3,65.36,39.68,65.74,39.68,66.21z M68.94,44.12V34.3
	c0-0.4-0.28-0.75-0.67-0.83l-5.64-1.2l-2.06-4.98l3.14-4.84c0.22-0.34,0.17-0.78-0.11-1.06l-6.94-6.95
	c-0.28-0.28-0.73-0.33-1.06-0.11l-4.84,3.14l-4.98-2.06l-1.2-5.64c-0.08-0.39-0.43-0.67-0.83-0.67h-9.82c-0.4,0-0.75,0.28-0.83,0.67
	l-1.2,5.65l-4.98,2.06l-4.84-3.15c-0.34-0.22-0.78-0.17-1.07,0.11l-6.94,6.94c-0.28,0.28-0.33,0.73-0.11,1.06l3.14,4.84l-2.06,4.98
	l-5.65,1.2c-0.39,0.09-0.66,0.43-0.67,0.83v9.82c0,0.4,0.28,0.75,0.67,0.83l5.65,1.2l2.06,4.98l-3.15,4.84
	c-0.22,0.34-0.17,0.78,0.11,1.06L21,63.97c0.16,0.16,0.38,0.25,0.61,0.25c0.16,0,0.32-0.05,0.46-0.14l3.02-1.96v5.33
	c0,0.47,0.38,0.85,0.85,0.85c0.47,0,0.85-0.38,0.85-0.85V56.41c0-2.6,3.03-4.21,6.37-5.01l1.63,5.43c0.08,0.28,0.3,0.49,0.58,0.57
	c0.08,0.02,0.15,0.03,0.23,0.03c0.21,0,0.41-0.08,0.56-0.21l2.86-2.53l2.85,2.53c0.16,0.14,0.36,0.21,0.56,0.21
	c0.38,0,0.71-0.25,0.81-0.61l1.62-5.4c1.08,0.24,2.13,0.6,3.13,1.06c-0.1,0.46,0.2,0.91,0.66,1.01c0.43,0.09,0.85-0.16,0.98-0.57
	c1.49-4.74,6.54-7.38,11.28-5.9c4.74,1.49,7.38,6.54,5.9,11.28c-0.88,2.81-3.08,5.02-5.9,5.9c-0.45,0.14-0.7,0.62-0.56,1.07
	c0.11,0.35,0.44,0.6,0.81,0.6c0.09,0,0.17-0.01,0.25-0.04c5.64-1.77,8.78-7.77,7.01-13.41c-0.87-2.77-2.82-5.07-5.42-6.37l5.23-1.11
	C68.66,44.86,68.94,44.51,68.94,44.12L68.94,44.12z M36.03,55.07l-1.2-4c0.2-0.03,0.41-0.06,0.61-0.09l2.36,2.52L36.03,55.07z
	 M31.66,43.88h-0.7c-1.02-0.01-1.84-0.85-1.83-1.87c0.01-0.98,0.78-1.78,1.75-1.83l0,0c0.09,1.23,0.34,2.44,0.75,3.6
	C31.64,43.82,31.65,43.85,31.66,43.88L31.66,43.88z M40.48,47.79c-0.26,0-0.47-0.21-0.47-0.48c0.01-0.26,0.22-0.47,0.47-0.47h1.46
	c0.26,0.01,0.46,0.24,0.45,0.5c-0.01,0.24-0.21,0.44-0.45,0.45L40.48,47.79z M45.12,38.49H44.7c-2.78,0-4.83-0.9-7.06-2.25
	c-0.24-0.15-0.54-0.16-0.8-0.04l-4.3,2.01v-0.81c0-3.47,2.82-6.28,6.29-6.28c3.47,0,6.28,2.81,6.28,6.28L45.12,38.49z M45.26,45.58
	h0.77v0.08c0,0.44-0.36,0.81-0.81,0.81l0,0H44.7C44.9,46.18,45.08,45.89,45.26,45.58L45.26,45.58z M46.7,43.88h-0.68
	c0-0.01,0.01-0.03,0.01-0.04c0.41-1.18,0.67-2.4,0.75-3.64l0,0c1.02,0.05,1.8,0.92,1.75,1.94C48.49,43.11,47.68,43.88,46.7,43.88
	L46.7,43.88z M47.49,38.58c-0.22-0.05-0.44-0.08-0.66-0.09V37.4c0-4.41-3.57-7.98-7.98-7.98s-7.98,3.57-7.98,7.98v1.09
	c-0.22,0.01-0.45,0.03-0.66,0.08v-1.18c0-4.78,3.87-8.65,8.65-8.65c4.78,0,8.65,3.87,8.65,8.65V38.58z M37.16,37.93
	c2.74,1.6,4.95,2.26,7.55,2.26h0.38c-0.15,2.01-0.83,3.98-1.85,5.39c-0.38-0.29-0.84-0.44-1.32-0.44h-1.46
	c-1.2,0-2.18,0.98-2.17,2.18c0,0.21,0.03,0.43,0.09,0.63c-3.94-0.3-5.6-4.67-5.82-7.88L37.16,37.93z M38.84,49.67
	c0.53,0,1.06-0.06,1.58-0.18c0.02,0,0.04,0,0.06,0h0.91v0.31l-2.37,2.52l-2.37-2.52v-0.47C37.36,49.55,38.09,49.67,38.84,49.67
	L38.84,49.67z M42.02,55.07l-1.77-1.57l2.32-2.47c0.21,0.03,0.43,0.06,0.64,0.09L42.02,55.07z M48.64,50.92
	c-1.53-0.72-3.42-1.24-5.55-1.53v-0.24c0.37-0.24,0.67-0.58,0.84-0.99h1.29c1.38,0,2.5-1.12,2.51-2.51v-0.23
	c1.87-0.57,2.94-2.55,2.37-4.42c-0.17-0.57-0.49-1.09-0.91-1.51v-2.11c0-5.72-4.63-10.35-10.35-10.35
	c-5.71,0-10.35,4.63-10.35,10.35v2.1c-1.41,1.36-1.44,3.61-0.08,5.01c0.67,0.69,1.59,1.08,2.55,1.08h1.46v-0.02
	c0.08,0.15,0.17,0.3,0.25,0.44c0.58,0.98,1.36,1.82,2.29,2.48v0.86c-2.59,0.35-4.82,1.05-6.5,2.03c-0.25,0.15-0.49,0.3-0.72,0.46
	c-3.64-3.19-5.73-7.79-5.72-12.63c0-9.27,7.54-16.81,16.81-16.81s16.8,7.54,16.8,16.81c0,2.21-0.43,4.4-1.28,6.44
	C51.86,46.63,49.82,48.51,48.64,50.92L48.64,50.92z M67.24,43.43l-5.41,1.15c-0.27,0.06-0.5,0.25-0.61,0.51l-0.1,0.24
	c-0.94-0.26-1.91-0.4-2.89-0.4c-0.62,0-1.24,0.05-1.86,0.16c0.64-1.89,0.96-3.88,0.95-5.88c0-10.2-8.3-18.51-18.51-18.51
	S20.32,29,20.32,39.21c-0.01,5.25,2.22,10.26,6.13,13.76c-0.9,1.01-1.36,2.17-1.36,3.45v3.69l-3.37,2.19l-5.97-5.97l3.01-4.64
	c0.15-0.23,0.18-0.53,0.07-0.79l-2.41-5.8c-0.11-0.26-0.33-0.45-0.61-0.51l-5.41-1.15v-8.44l5.41-1.15c0.27-0.06,0.5-0.25,0.61-0.51
	l2.4-5.8c0.11-0.26,0.08-0.55-0.07-0.79l-3.01-4.64l5.97-5.97l4.63,3.01c0.23,0.15,0.53,0.18,0.79,0.07l5.8-2.41
	c0.26-0.11,0.45-0.33,0.51-0.61l1.15-5.41h8.44l1.15,5.41c0.06,0.27,0.25,0.5,0.51,0.61l5.8,2.41c0.26,0.11,0.55,0.08,0.79-0.07
	l4.64-3.01l5.97,5.97l-3.01,4.64c-0.15,0.23-0.18,0.53-0.07,0.79l2.4,5.8c0.11,0.26,0.33,0.45,0.61,0.51l5.41,1.15V43.43z"/>
</svg>
