<?xml version="1.0" encoding="utf-8"?>
<!-- Generator: Adobe Illustrator 26.3.1, SVG Export Plug-In . SVG Version: 6.00 Build 0)  -->
<svg version="1.1" id="Layer_1" xmlns="http://www.w3.org/2000/svg" xmlns:xlink="http://www.w3.org/1999/xlink" x="0px" y="0px"
	 viewBox="0 0 77.66 77.66" style="enable-background:new 0 0 77.66 77.66;" xml:space="preserve">
<style type="text/css">
	.st0{clip-path:url(#SVGID_00000060008406138736214380000016582886180375686547_);}
	.st1{fill:#FFFFFF;}
	.st2{clip-path:url(#SVGID_00000067199899462335485190000015135382714042340998_);}
	.st3{clip-path:url(#SVGID_00000126302756955046038020000011730776165384450962_);}
	.st4{opacity:0.83;fill:url(#SVGID_00000008870438854175833430000001266947604550374792_);}
	.st5{clip-path:url(#SVGID_00000154415492377621223290000007143176355992607621_);}
	.st6{clip-path:url(#SVGID_00000086689583558568635810000013821511820284513725_);}
	.st7{opacity:0.1;}
	.st8{fill:none;}
	.st9{fill:#C1C8E1;}
	.st10{fill:#E3E2E2;}
	.st11{fill:#055D91;}
	.st12{fill:#183A65;}
	.st13{clip-path:url(#SVGID_00000134213673849938702890000014143202785871064503_);}
	.st14{fill-rule:evenodd;clip-rule:evenodd;}
	.st15{fill-rule:evenodd;clip-rule:evenodd;fill:#E93638;}
	.st16{fill:#E93839;}
	.st17{clip-path:url(#SVGID_00000145039588686837031310000005738493910050508733_);}
	.st18{fill-rule:evenodd;clip-rule:evenodd;fill:#E93839;}
	.st19{fill:url(#SVGID_00000012465997349916742600000016736383266933203083_);}
	.st20{fill:url(#SVGID_00000060023327728436679330000008986253933356774282_);}
	.st21{opacity:0.2;clip-path:url(#SVGID_00000023963270253195005160000016721072471405917102_);}
	.st22{fill-rule:evenodd;clip-rule:evenodd;fill:#FFFFFF;}
	.st23{opacity:0.2;clip-path:url(#SVGID_00000086672405645473350010000007250572776026974910_);}
	.st24{clip-path:url(#SVGID_00000147190504930571927670000015655166734022068355_);}
	.st25{fill:url(#SVGID_00000170968537863236538200000008953138106247417740_);}
	.st26{fill:url(#SVGID_00000142146375793405256300000006867475794921725061_);}
	.st27{fill:url(#SVGID_00000013178303242047378670000008008276391651195292_);}
	.st28{fill:url(#SVGID_00000055701130155738483380000013461182681502588590_);}
	.st29{clip-path:url(#SVGID_00000111172877012356680790000009244840460439663017_);}
	.st30{clip-path:url(#SVGID_00000150076443826543312730000006860040303075519368_);}
	.st31{fill-rule:evenodd;clip-rule:evenodd;fill:#E9383A;}
	.st32{fill:#E9383A;}
	.st33{clip-path:url(#SVGID_00000109739863042920782380000010729647206460571531_);}
	.st34{clip-path:url(#SVGID_00000008137262900573246920000013046845686474381722_);}
	.st35{fill:url(#SVGID_00000085939867041520085870000015459083963832620977_);}
	.st36{fill:url(#SVGID_00000021099146507304550970000005093805134437690012_);}
	.st37{fill:url(#SVGID_00000078747912608366932230000017609266823795407235_);}
	.st38{fill:url(#SVGID_00000016068782946041268650000001549339176576235914_);}
	.st39{fill:none;stroke:#D1232D;stroke-width:3;stroke-miterlimit:10;}
	.st40{fill:#AD2E3F;}
	.st41{fill:#D51419;}
</style>
<g>
	<g>
		<path class="st31" d="M56.29,47.45c2.77,1.75,5.27,2.58,7.42,2.39c0.38,7.59-2.43,12.07-7.39,13.93
			c-4.79-1.75-7.63-6.04-7.42-14.05C51.43,49.86,53.9,49.32,56.29,47.45L56.29,47.45z M50.56,19.24l-0.02,0.05
			c-3.32-0.62-8.11-0.94-13.17-0.88c-5.11,0.06-10.52,0.5-14.97,1.42l-0.01-0.02C18.51,1.52,55.69,4.14,50.56,19.24L50.56,19.24z
			 M56.32,40.57c4.16,0,7.92,1.68,10.64,4.41c2.72,2.72,4.41,6.49,4.41,10.64c0,4.16-1.68,7.92-4.41,10.64
			c-2.72,2.72-6.49,4.41-10.64,4.41c-4.16,0-7.92-1.68-10.64-4.41c-1.3-1.3-2.36-2.83-3.11-4.53H6.29l1.86-7.12
			c3.79-16.66,12.91-10.04,20.81-15.58c0.12-0.11,0.24-0.21,0.35-0.32l0.1-1.73c-0.4-0.34-0.78-0.72-1.12-1.14
			c-1.2-1.41-1.69-2.89-2.36-4.85c-0.07-0.25-0.17-0.49-0.25-0.72c-0.82,0-1.52-0.68-2.02-1.65c-0.38-0.76-0.65-1.67-0.74-2.55
			c-0.1-0.9-0.02-1.73,0.3-2.26l-0.42-2.02c4.32-0.89,9.59-1.32,14.58-1.38c4.86-0.06,9.43,0.24,12.57,0.81
			c-0.23,0.86-0.4,1.66-0.37,2.04c0.44,0.04,0.76,0.29,0.97,0.67c0.26,0.48,0.34,1.18,0.26,1.94c-0.06,0.72-0.26,1.54-0.53,2.26
			c-0.49,1.29-1.31,2.34-2.25,2.44c-0.12,0.34-0.21,0.68-0.3,1.03c-0.48,1.62-0.86,2.89-1.84,4.13c-0.44,0.57-0.95,1.09-1.48,1.52
			l0.1,1.54c0.55,0.75,1.14,1.33,1.82,1.76c1.27,0.67,2.84,0.89,4.53,1.06C52.56,40.93,54.4,40.57,56.32,40.57L56.32,40.57z
			 M65.26,46.68c-2.29-2.29-5.45-3.7-8.94-3.7c-3.49,0-6.65,1.41-8.94,3.7c-2.29,2.29-3.7,5.45-3.7,8.94s1.41,6.65,3.7,8.94
			s5.45,3.7,8.94,3.7c3.49,0,6.65-1.41,8.94-3.7c2.29-2.29,3.7-5.45,3.7-8.94C68.97,52.13,67.55,48.97,65.26,46.68L65.26,46.68z
			 M32.7,13.6h8.03c0.19,0,0.34,0.15,0.34,0.34v1.85c0,0.19-0.15,0.34-0.34,0.34H32.7c-0.19,0-0.34-0.15-0.34-0.34v-1.85
			C32.35,13.75,32.51,13.6,32.7,13.6L32.7,13.6z M43.22,37.83c-2.15,1.43-3.46,2.22-6.23,2.15c-2.7-0.04-4.12-0.95-6.27-2.32
			C30.55,46.68,43.44,47.22,43.22,37.83L43.22,37.83z M46.44,31.29c0.12-0.4,0.25-0.82,0.4-1.31c0.06-0.21,0.26-0.36,0.48-0.32
			c0.62,0.12,1.26-0.8,1.69-1.9c0.25-0.67,0.44-1.39,0.49-2.03c0.06-0.61,0-1.14-0.17-1.47c-0.17-0.31-0.64-0.13-0.99-0.44
			c-1.8,4.78-17.51,6.94-23.94,0.36c-0.23,0.36-0.26,1.01-0.19,1.73c0.1,0.76,0.32,1.6,0.67,2.26c0.4,0.78,0.91,1.31,1.42,1.18
			c0.21-0.06,0.44,0.06,0.51,0.26c0.15,0.42,0.25,0.74,0.36,1.06C30.51,40.46,43.17,41.23,46.44,31.29L46.44,31.29z M17.84,50.99
			h8.03c0.19,0,0.34,0.15,0.34,0.34v1.85c0,0.19-0.15,0.34-0.34,0.34h-8.03c-0.19,0-0.34-0.15-0.34-0.34v-1.85
			C17.49,51.15,17.65,50.99,17.84,50.99L17.84,50.99z M56.31,51.11c1.53,0.97,2.91,1.43,4.1,1.32c0.21,4.19-1.34,6.66-4.08,7.7
			c-2.65-0.96-4.22-3.34-4.1-7.76C53.62,52.44,54.98,52.14,56.31,51.11L56.31,51.11z"/>
	</g>
</g>
</svg>
