<?xml version="1.0" encoding="utf-8"?>
<!-- Generator: Adobe Illustrator 26.3.1, SVG Export Plug-In . SVG Version: 6.00 Build 0)  -->
<svg version="1.1" id="Layer_1" xmlns="http://www.w3.org/2000/svg" xmlns:xlink="http://www.w3.org/1999/xlink" x="0px" y="0px"
	 viewBox="0 0 77.66 77.66" style="enable-background:new 0 0 77.66 77.66;" xml:space="preserve">
<style type="text/css">
	.st0{clip-path:url(#SVGID_00000092416802426272529670000007230249768218630583_);}
	.st1{fill:#FFFFFF;}
	.st2{clip-path:url(#SVGID_00000004505242100153777770000016184523960083934608_);}
	.st3{clip-path:url(#SVGID_00000114052141609635333220000004640949795258115233_);}
	.st4{opacity:0.83;fill:url(#SVGID_00000116943182402438922960000011470535895413489313_);}
	.st5{clip-path:url(#SVGID_00000049189750647074628130000016549916043427730820_);}
	.st6{clip-path:url(#SVGID_00000157993035917327531330000010363910376222831255_);}
	.st7{opacity:0.1;}
	.st8{fill:none;}
	.st9{fill:#C1C8E1;}
	.st10{fill:#E3E2E2;}
	.st11{fill:#055D91;}
	.st12{fill:#183A65;}
	.st13{clip-path:url(#SVGID_00000031929645588435347560000014364842152999093386_);}
	.st14{fill-rule:evenodd;clip-rule:evenodd;}
	.st15{fill-rule:evenodd;clip-rule:evenodd;fill:#E93638;}
	.st16{fill:#E93839;}
	.st17{clip-path:url(#SVGID_00000058565750558894479260000003446043929018090414_);}
	.st18{fill-rule:evenodd;clip-rule:evenodd;fill:#E93839;}
	.st19{fill:url(#SVGID_00000065042190173270122260000009585638362042717596_);}
	.st20{fill:url(#SVGID_00000095303041259299732840000001800451358332094375_);}
	.st21{opacity:0.2;clip-path:url(#SVGID_00000121244430161323071320000015503193548906518193_);}
	.st22{fill-rule:evenodd;clip-rule:evenodd;fill:#FFFFFF;}
	.st23{opacity:0.2;clip-path:url(#SVGID_00000077303067558967322690000014250660500118945160_);}
	.st24{clip-path:url(#SVGID_00000077326416265541108610000018286385115520248227_);}
	.st25{fill:url(#SVGID_00000127726312124703413530000011856208097255848111_);}
	.st26{fill:url(#SVGID_00000052809743420087795090000012084960565118530481_);}
	.st27{fill:url(#SVGID_00000151532418366399947600000001411382619769425063_);}
	.st28{fill:url(#SVGID_00000134214710804681810360000011560401071466832288_);}
	.st29{clip-path:url(#SVGID_00000085216136410614242880000013274652141701623979_);}
	.st30{clip-path:url(#SVGID_00000068655445762349907170000014417830301954952369_);}
	.st31{fill-rule:evenodd;clip-rule:evenodd;fill:#E9383A;}
	.st32{fill:#E9383A;}
	.st33{clip-path:url(#SVGID_00000031195453206439091490000012795560518320050562_);}
	.st34{clip-path:url(#SVGID_00000123411231975460760050000014677159989329126290_);}
	.st35{fill:url(#SVGID_00000020388084363685587450000012090131157400813230_);}
	.st36{fill:url(#SVGID_00000042734889568558424630000009136346419165614994_);}
	.st37{fill:url(#SVGID_00000111185163208555998610000005831581630181641867_);}
	.st38{fill:url(#SVGID_00000074415776597669971610000009645290449283527841_);}
	.st39{fill:none;stroke:#D1232D;stroke-width:3;stroke-miterlimit:10;}
	.st40{fill:#AD2E3F;}
	.st41{fill:#D51419;}
</style>
<g id="JU74CO.tif_00000181802127353187473580000009547077550691805840_">
	<g>
		<path class="st32" d="M65.76,38.03c0,5.17,0,10.34,0,15.51c0,2.64,0,5.27,0,7.91c0,0.22-0.04,0.35-0.29,0.42
			c-0.96,0.27-1.91,0.56-2.86,0.85c-0.78,0.24-1.57,0.48-2.35,0.71c-0.75,0.22-1.51,0.43-2.26,0.65c-0.97,0.29-1.94,0.58-2.91,0.87
			c-0.94,0.28-1.89,0.54-2.84,0.82c-0.91,0.27-1.82,0.56-2.73,0.83c-0.74,0.22-1.49,0.43-2.23,0.64c-1.28,0.38-2.56,0.76-3.85,1.14
			c-1.3,0.38-2.6,0.76-3.9,1.14c-0.03,0.01-0.07,0.01-0.1,0.03c-0.43,0.21-0.85,0.15-1.3,0.01c-1.17-0.38-2.36-0.72-3.54-1.07
			c-1.53-0.46-3.07-0.91-4.61-1.36c-1.44-0.42-2.89-0.83-4.33-1.26c-1.1-0.33-2.2-0.67-3.31-1c-0.94-0.28-1.9-0.54-2.84-0.82
			c-1.1-0.33-2.2-0.67-3.31-1c-1.26-0.37-2.52-0.73-3.78-1.09c-0.01,0-0.02,0-0.03-0.01c-0.52-0.15-0.51-0.15-0.51-0.68
			c0-4.89,0-9.77,0-14.66c0-7.16,0-14.32,0-21.49c0-3.49,0-6.99,0-10.48c0-0.39,0.01-0.38,0.37-0.46c0.75-0.17,1.49-0.36,2.23-0.53
			c0.73-0.17,1.46-0.33,2.19-0.51c0.96-0.23,1.92-0.47,2.88-0.69c0.76-0.18,1.53-0.34,2.29-0.52c0.52-0.12,1.04-0.26,1.56-0.38
			c0.81-0.19,1.61-0.36,2.42-0.55c0.49-0.11,0.97-0.24,1.46-0.36c0.94-0.22,1.89-0.44,2.83-0.66c0.78-0.18,1.56-0.38,2.34-0.56
			c0.74-0.17,1.48-0.33,2.21-0.51c0.71-0.17,1.42-0.34,2.13-0.51c0.62-0.15,1.23-0.29,1.85-0.43C38.77,7.96,38.9,7.98,39,8
			c0.81,0.18,1.61,0.38,2.42,0.56c0.99,0.23,1.99,0.45,2.98,0.69c0.93,0.22,1.86,0.45,2.8,0.67c0.98,0.23,1.96,0.45,2.93,0.68
			c0.96,0.23,1.92,0.46,2.88,0.69c0.73,0.17,1.46,0.34,2.19,0.51c0.74,0.17,1.47,0.35,2.21,0.52c0.8,0.18,1.6,0.36,2.39,0.54
			c0.48,0.11,0.96,0.25,1.44,0.36c0.81,0.19,1.61,0.36,2.42,0.55c0.64,0.15,1.29,0.3,1.93,0.46c0.07,0.02,0.13,0.11,0.16,0.18
			c0.03,0.07,0.01,0.16,0.01,0.24c0,5.74,0,11.49,0,17.23C65.76,33.92,65.76,35.98,65.76,38.03C65.76,38.03,65.76,38.03,65.76,38.03
			z M14.25,49.44c0.02,0.01,0.05,0.02,0.07,0.02c0.06-0.09,0.13-0.18,0.19-0.27c0.17-0.25,0.31-0.54,0.53-0.76
			c0.27-0.28,0.28-0.56,0.18-0.89c-0.32-1-0.48-2.04-0.56-3.09c-0.08-1.21-0.02-2.41,0.28-3.6c0.12-0.46,0.23-0.92,0.37-1.38
			c0.07-0.23,0.17-0.46,0.28-0.68c0.16-0.31,0.42-0.36,0.67-0.16c0.06,0.04,0.13,0.07,0.19,0.11c0.03-0.08,0.07-0.16,0.07-0.24
			c0.05-0.46,0.03-0.95,0.17-1.39c0.24-0.72,0.54-1.44,0.91-2.1c0.88-1.59,1.98-3.04,3.16-4.42c1.37-1.61,2.83-3.12,4.5-4.43
			c0.71-0.56,1.45-1.09,2.29-1.46c0.53-0.23,1.07-0.46,1.61-0.67c0.98-0.38,1.95-0.75,2.93-1.12c0.5-0.19,1.01-0.37,1.51-0.55
			c0.21-0.08,0.22-0.18,0.13-0.38c-0.25-0.54-0.42-1.1-0.45-1.7c-0.02-0.32,0.06-0.64,0.38-0.82c0.15-0.08,0.14-0.19,0.09-0.34
			c-0.1-0.27-0.19-0.55-0.26-0.83c-0.06-0.22-0.16-0.39-0.36-0.52c-0.58-0.4-0.94-0.95-0.99-1.66c-0.1-1.21,0.46-2.12,1.33-2.88
			c0.94-0.81,2.07-1.22,3.28-1.43c1.64-0.29,3.25-0.22,4.81,0.42c1.43,0.59,2.64,1.44,3.34,2.88c0.26,0.52,0.33,1.07,0.08,1.63
			c-0.21,0.46-0.61,0.68-1.03,0.9c-0.09,0.05-0.18,0.17-0.19,0.26c-0.05,0.3-0.06,0.61-0.09,0.92c-0.01,0.15,0.01,0.26,0.17,0.34
			c0.11,0.06,0.22,0.22,0.24,0.35c0.13,0.84-0.05,1.61-0.57,2.29c-0.14,0.18-0.1,0.26,0.1,0.31c0.32,0.08,0.63,0.15,0.94,0.25
			c1.38,0.44,2.73,0.94,4,1.64c0.68,0.37,1.36,0.76,1.88,1.35c1.42,1.58,2.71,3.27,3.81,5.09c0.83,1.38,1.63,2.78,2.36,4.21
			c0.56,1.1,1,2.27,1.46,3.42c0.22,0.56,0.44,1.15,0.49,1.75c0.14,1.51,0.24,3.02,0.28,4.54c0.05,2.02-0.09,4.04-0.4,6.04
			c-0.06,0.37-0.12,0.73-0.18,1.1c-0.03,0.18,0,0.31,0.22,0.38c0.91,0.28,1.7,0.76,2.4,1.4c1.02,0.93,1.77,2.05,2.33,3.3
			c0.03,0.06,0.07,0.11,0.1,0.16c0.07-0.1,0.09-0.18,0.09-0.26c0-1.8,0-3.6,0-5.4c0-4.42,0-8.84,0-13.26c0-2.74,0-5.49,0-8.23
			c0-4.36-0.01-8.72,0-13.07c0-0.37-0.14-0.42-0.43-0.49c-0.57-0.12-1.13-0.26-1.7-0.39c-0.74-0.17-1.47-0.35-2.21-0.52
			c-0.99-0.23-1.99-0.46-2.98-0.69c-0.93-0.22-1.87-0.44-2.8-0.66c-0.99-0.23-1.97-0.46-2.96-0.69c-0.93-0.22-1.85-0.45-2.78-0.66
			c-0.75-0.17-1.51-0.32-2.27-0.5c-0.94-0.22-1.88-0.47-2.82-0.7c-1.06-0.25-2.13-0.5-3.19-0.73c-0.24-0.05-0.49-0.06-0.73-0.03
			c-0.3,0.03-0.6,0.12-0.9,0.19c-1,0.24-2,0.49-3.01,0.72c-0.91,0.21-1.82,0.41-2.73,0.63c-1,0.24-2,0.48-3.01,0.72
			c-0.91,0.21-1.82,0.41-2.73,0.62c-0.98,0.23-1.95,0.48-2.93,0.71c-1.59,0.37-3.19,0.73-4.79,1.1c-1.27,0.29-2.54,0.6-3.8,0.9
			c-0.35,0.08-0.39,0.13-0.39,0.48c0,2.88,0,5.77,0,8.65c0,8.03-0.01,16.05-0.01,24.08C14.23,49.31,14.25,49.38,14.25,49.44z
			 M38.14,64.71c0.21-0.02,0.36-0.02,0.51-0.05c1.03-0.18,2.07-0.34,3.1-0.55c1.02-0.2,2.04-0.39,3.04-0.68
			c1.14-0.34,2.26-0.74,3.35-1.19c1.12-0.45,2.14-1.07,3-1.93c0.63-0.64,1.09-1.37,1.25-2.27c0.16-0.91,0.03-1.77-0.31-2.61
			c-0.07-0.17-0.05-0.29,0.12-0.4c0.34-0.23,0.67-0.49,1-0.73c0.16-0.12,0.23-0.23,0.09-0.43c-0.41-0.61-0.79-1.23-1.17-1.86
			c-0.13-0.22-0.29-0.29-0.55-0.25c-0.79,0.13-1.57,0.21-2.3-0.26c-0.06-0.04-0.18-0.04-0.25-0.01c-0.92,0.3-1.84,0.61-2.76,0.9
			c-1.17,0.36-2.34,0.71-3.52,1.03c-0.89,0.24-1.79,0.46-2.7,0.64c-1.31,0.26-2.63,0.5-3.95,0.71c-0.78,0.12-1.58,0.14-2.37,0.21
			c-0.07,0.01-0.18,0.03-0.2,0.08c-0.02,0.05,0.03,0.15,0.07,0.2c0.11,0.16,0.26,0.29,0.36,0.46c0.3,0.53,0.7,0.7,1.33,0.59
			c1.2-0.22,2.43-0.34,3.63-0.54c0.89-0.15,1.78-0.37,2.66-0.57c0.68-0.16,1.36-0.35,2.04-0.53c0.44-0.12,0.89-0.23,1.33-0.35
			c0.19-0.05,0.32-0.03,0.38,0.19c0.05,0.18,0.14,0.34,0.18,0.52c0.23,0.91,0.23,1.8-0.27,2.63c-0.39,0.65-0.93,1.13-1.58,1.48
			c-0.65,0.34-1.33,0.65-2.01,0.91c-0.71,0.28-1.45,0.49-2.17,0.72c-0.59,0.19-1.19,0.36-1.79,0.53c-0.16,0.05-0.23,0.13-0.21,0.31
			c0.12,0.94,0.25,1.87,0.35,2.81C37.84,64.66,37.94,64.77,38.14,64.71z M50.14,38.3c-0.05,0.25-0.08,0.44-0.12,0.63
			c-0.13,0.65-0.25,1.3-0.38,1.94c-0.17,0.86-0.34,1.73-0.52,2.59c-0.16,0.74-0.34,1.47-0.51,2.21c-0.03,0.12-0.03,0.25,0.01,0.36
			c0.19,0.5,0.4,0.99,0.61,1.49c0.43,1,0.87,2,1.29,3.01c0.08,0.19,0.2,0.25,0.38,0.24c0.27-0.01,0.55-0.03,0.82-0.04
			c0.2-0.01,0.28-0.11,0.28-0.3c0.01-0.47,0.03-0.93,0.04-1.4c0.06-2.11,0.1-4.21,0.21-6.32c0.04-0.75-0.09-1.43-0.46-2.05
			c-0.44-0.75-0.95-1.46-1.44-2.18C50.31,38.42,50.24,38.38,50.14,38.3z M25.06,57.69c0.02,0.01,0.04,0.02,0.06,0.03
			c0.03-0.03,0.07-0.05,0.09-0.08c0.33-0.39,0.5-0.86,0.62-1.35c0.22-0.89,0.25-1.8,0.18-2.71c-0.02-0.25,0.08-0.39,0.28-0.5
			c0.46-0.27,0.81-0.65,1.04-1.13c0.41-0.88,0.34-1.81,0.08-2.69c-0.25-0.85-0.64-1.65-0.98-2.47c-0.03-0.07-0.11-0.12-0.21-0.21
			c-0.04,0.32-0.06,0.56-0.11,0.8c-0.07,0.32-0.28,0.61-0.68,0.44c-0.12-0.05-0.24-0.07-0.36-0.11c0.02,0.13,0.08,0.21,0.13,0.29
			c0.14,0.21,0.27,0.43,0.4,0.65c0.03,0.05,0.02,0.13,0.03,0.2c-0.07,0-0.16,0.03-0.22,0.01c-0.41-0.2-0.82-0.18-1.22,0.01
			c-0.21,0.1-0.32,0.05-0.34-0.21c-0.01-0.18-0.09-0.36-0.16-0.61c-0.09,0.12-0.13,0.16-0.16,0.22c-0.36,0.71-0.57,1.46-0.35,2.25
			c0.21,0.78,0.46,1.55,0.76,2.3c0.37,0.92,0.82,1.81,1.23,2.71c0.25,0.57,0.33,1.14,0.07,1.74C25.16,57.39,25.12,57.54,25.06,57.69
			z M26.82,36.24c-0.11,0.06-0.19,0.08-0.25,0.13c-1.25,0.93-2.5,1.87-3.74,2.81c-0.09,0.07-0.18,0.21-0.18,0.32
			c0,1.44,0.01,2.88,0.01,4.31c0,0.17,0.07,0.25,0.24,0.28c0.36,0.07,0.72,0.15,1.08,0.22c0.15,0.03,0.26,0.01,0.3-0.16
			c0.11-0.47,0.2-0.95,0.33-1.41c0.21-0.8,0.47-1.57,0.92-2.27c0.27-0.41,0.57-0.81,0.83-1.22c0.2-0.33,0.34-0.69,0.71-0.9
			c0.05-0.03,0.07-0.17,0.06-0.26c-0.04-0.31-0.09-0.63-0.14-0.94C26.95,36.87,26.89,36.58,26.82,36.24z M31.38,55.82
			c-0.09,0.06-0.13,0.07-0.15,0.09c-0.39,0.46-0.78,0.91-1.15,1.38c-0.07,0.1-0.1,0.27-0.08,0.39c0.09,0.58,0.26,1.13,0.55,1.64
			c0.1,0.18,0.07,0.29-0.07,0.41c-0.18,0.15-0.36,0.31-0.55,0.46c-1.19,0.93-2.52,1.56-3.97,1.96c-0.17,0.05-0.33,0.11-0.55,0.18
			c0.09,0.05,0.11,0.07,0.13,0.07c0.05,0.01,0.11,0.02,0.16,0.01c0.79-0.13,1.59-0.2,2.36-0.4c1.07-0.27,2.02-0.81,2.9-1.47
			c0.13-0.1,0.21-0.08,0.3,0.06c0.12,0.19,0.25,0.39,0.39,0.56c0.58,0.71,1.15,1.42,1.74,2.12c0.19,0.23,0.43,0.42,0.65,0.62
			C33.05,61.28,31.94,58.67,31.38,55.82z M26.88,44.77c0.03,0,0.06,0,0.09,0c0.04-0.07,0.06-0.15,0.12-0.2
			c0.1-0.1,0.21-0.19,0.32-0.28c0.06,0.13,0.16,0.25,0.18,0.39c0.11,0.61,0.02,1.21-0.19,1.79c-0.03,0.08-0.05,0.18-0.02,0.25
			c0.09,0.28,0.2,0.56,0.31,0.84c0.02,0.05,0.08,0.11,0.12,0.12c0.04,0,0.11-0.05,0.13-0.1c0.1-0.24,0.22-0.48,0.29-0.74
			c0.22-0.88,0.19-1.77,0.09-2.65c-0.16-1.41-0.51-2.78-0.97-4.13c-0.03-0.1-0.12-0.18-0.19-0.27c-0.09,0.07-0.23,0.12-0.27,0.21
			c-0.26,0.63-0.55,1.26-0.74,1.91c-0.23,0.8-0.34,1.64-0.54,2.45c-0.07,0.28,0,0.42,0.25,0.55c0.34,0.17,0.35,0.16,0.42-0.21
			c0.14-0.74,0.29-1.48,0.48-2.21c0.06-0.24,0.26-0.45,0.42-0.66c0.04-0.05,0.19,0,0.28,0c-0.01,0.21,0.05,0.48-0.06,0.6
			c-0.25,0.3-0.39,0.62-0.46,0.99C26.85,43.89,26.86,44.33,26.88,44.77z M29.21,52.93c-0.03,0.01-0.06,0.01-0.09,0.02
			c-0.01,0.09-0.03,0.18-0.04,0.27c-0.1,1.01-0.35,1.99-0.8,2.91c-0.45,0.93-1.03,1.78-1.77,2.51c-0.08,0.08-0.13,0.21-0.13,0.32
			c-0.01,0.24,0.03,0.47,0.03,0.71c0,0.21,0.1,0.25,0.27,0.16c0.76-0.4,1.45-0.89,2.01-1.56c0.61-0.73,0.96-1.59,1.16-2.51
			c0.29-1.28,0.28-1.28-0.39-2.39C29.38,53.23,29.3,53.08,29.21,52.93z M42.28,26.28c-0.03-0.01-0.06-0.03-0.09-0.04
			c-0.05,0.04-0.11,0.07-0.15,0.12c-0.53,0.51-1.06,1.04-1.6,1.53c-0.26,0.24-0.4,0.46-0.17,0.79c0.05,0.08,0.07,0.18,0.11,0.27
			c0.1,0.2,0.1,0.38-0.07,0.55c-0.32,0.33-0.39,0.72-0.3,1.17c0.13,0.69,0.2,1.39,0.31,2.09c0.04,0.24,0.09,0.47,0.14,0.71
			c0.03,0,0.05,0,0.08,0C41.67,31.21,41.89,28.73,42.28,26.28z M20.88,58.88c-0.19-0.09-0.29-0.15-0.4-0.19
			c-1.23-0.41-2.35-1.05-3.34-1.88c-0.59-0.5-1.13-1.06-1.69-1.59c-0.05-0.05-0.13-0.07-0.19-0.11c-0.03,0.07-0.09,0.13-0.1,0.2
			c-0.02,0.18-0.01,0.37-0.05,0.55c-0.07,0.36,0.07,0.63,0.3,0.88c0.04,0.05,0.08,0.09,0.12,0.14c1.02,1.35,2.35,2.29,3.91,2.91
			c0.21,0.08,0.44,0.13,0.69,0.21C20.05,59.4,20.33,59.09,20.88,58.88z M47.87,24.68c0.02-0.01,0.04-0.03,0.06-0.04
			c-0.08-0.1-0.15-0.22-0.24-0.3c-0.08-0.07-0.19-0.12-0.3-0.16c-1.23-0.42-2.46-0.84-3.69-1.27c-0.2-0.07-0.29,0.02-0.31,0.19
			c-0.05,0.31-0.08,0.63-0.14,0.94c-0.03,0.19,0.04,0.25,0.21,0.29c0.4,0.09,0.82,0.16,1.2,0.3c0.97,0.35,1.94,0.74,2.9,1.12
			c0.18,0.07,0.27,0.06,0.28-0.15C47.84,25.29,47.86,24.99,47.87,24.68z M37.09,19.48c0.01,0.02,0.02,0.05,0.02,0.07
			c0.06,0.02,0.11,0.04,0.17,0.05c0.99,0.04,1.98,0.12,2.95-0.13c0.74-0.19,1.46-0.43,1.91-1.12c0.06-0.09,0.13-0.23,0.1-0.3
			c-0.03-0.07-0.19-0.11-0.29-0.11c-0.52,0-1.04,0.05-1.56,0.03c-0.5-0.02-0.9,0.17-1.26,0.49c-0.51,0.44-1.11,0.74-1.77,0.89
			C37.26,19.37,37.17,19.44,37.09,19.48z M17.43,45.64c0.03,0.01,0.06,0.01,0.09,0.02c0.06-0.07,0.12-0.14,0.18-0.21
			c0.26-0.29,0.51-0.6,0.95-0.58c0.28,0.01,0.33-0.03,0.22-0.3c-0.15-0.38-0.31-0.77-0.51-1.13c-0.6-1.03-1.22-2.04-1.83-3.06
			c-0.05-0.07-0.12-0.13-0.18-0.2c-0.03,0.01-0.05,0.03-0.08,0.04C16.88,41.99,17.38,43.77,17.43,45.64z M38.97,17.03
			c0.04,0.03,0.05,0.05,0.07,0.05c0.03,0,0.08,0.01,0.1-0.01c0.33-0.24,0.68-0.46,0.99-0.73c0.27-0.24,0.35-0.56,0.33-0.93
			c-0.03-0.5-0.01-1-0.01-1.51c0-0.5,0-0.5-0.47-0.67c-0.34-0.12-0.68-0.25-1.03-0.34c-0.09-0.02-0.27,0.03-0.3,0.09
			c-0.1,0.24,0.18,1.05,0.41,1.17c0.27,0.15,0.4,0.38,0.51,0.64c0.11,0.27,0.25,0.52,0.35,0.79c0.03,0.07,0.02,0.2-0.03,0.26
			c-0.17,0.23-0.36,0.45-0.54,0.68C39.23,16.68,39.11,16.86,38.97,17.03z M23.87,60.46c0,0.01,0,0.02,0,0.03
			c0.52-0.05,1.03-0.11,1.55-0.15c0.19-0.02,0.26-0.11,0.26-0.29c-0.01-0.23,0-0.46,0.02-0.69c0.01-0.21-0.07-0.28-0.28-0.26
			c-0.71,0.05-1.42,0.09-2.13,0.13c-0.2,0.01-0.29,0.09-0.3,0.28c-0.01,0.23-0.03,0.46-0.05,0.69c-0.02,0.2,0.06,0.27,0.26,0.27
			C23.41,60.46,23.64,60.46,23.87,60.46z M21.34,56.09c0.19-0.2,0.31-0.35,0.46-0.48c0.23-0.21,0.42-0.18,0.57,0.1
			c0.06,0.11,0.09,0.23,0.13,0.34c0.05,0.14,0.09,0.29,0.16,0.42c0.13,0.25,0.34,0.28,0.48,0.04c0.12-0.21,0.18-0.45,0.25-0.68
			c0.1-0.29,0.26-0.32,0.48-0.11c0.06,0.06,0.13,0.11,0.19,0.17c0.03-0.01,0.06-0.02,0.09-0.03c-0.03-0.15-0.03-0.31-0.09-0.45
			c-0.15-0.35-0.47-0.49-0.82-0.56c-0.61-0.11-1.2-0.11-1.67,0.38C21.37,55.44,21.29,55.71,21.34,56.09z M42.51,22.21
			c-0.03-0.02-0.05-0.03-0.08-0.05c-0.07,0.07-0.17,0.13-0.21,0.22c-0.25,0.53-0.49,1.06-0.74,1.6c-0.35,0.74-0.7,1.48-1.33,2.04
			c-0.08,0.07-0.16,0.14-0.24,0.2c-0.08,0.07-0.16,0.14-0.29,0.25c0.6-0.06,1.04-0.3,1.42-0.64c0.87-0.78,1.13-1.85,1.35-2.93
			C42.45,22.67,42.48,22.44,42.51,22.21z M43.75,16.89c0.03,0.01,0.05,0.03,0.08,0.04c0.07-0.07,0.15-0.13,0.21-0.21
			c0.35-0.51,0.33-1.04,0.09-1.58c-0.33-0.74-0.92-1.25-1.59-1.68c-0.78-0.5-1.65-0.77-2.53-1.03c-0.11-0.03-0.23-0.02-0.34-0.03
			c0,0.03-0.01,0.05-0.01,0.08c0.16,0.07,0.32,0.15,0.49,0.22c0.92,0.36,1.83,0.75,2.61,1.36c0.85,0.67,1.3,1.49,1.01,2.6
			C43.75,16.74,43.76,16.81,43.75,16.89z M21.88,48.52c0.29-0.42,0.51-0.73,0.71-1.06c0.04-0.07,0.04-0.22,0-0.29
			c-0.21-0.34-0.44-0.67-0.66-1.01c-0.12-0.18-0.21-0.18-0.31,0.01c-0.18,0.32-0.34,0.65-0.53,0.96c-0.1,0.16-0.08,0.25,0.05,0.38
			c0.24,0.26,0.46,0.55,0.68,0.83C21.85,48.4,21.86,48.48,21.88,48.52z M21.79,58.39c0.14-0.05,0.23-0.07,0.3-0.11
			c0.13-0.08,0.25-0.17,0.35-0.27c0.16-0.16,0.27-0.14,0.39,0.05c0.37,0.59,1.47,0.49,1.82,0.06c-0.01-0.01-0.02-0.03-0.03-0.04
			c-0.02-0.01-0.05-0.03-0.07-0.03c-0.66,0.07-1.2-0.17-1.67-0.63c-0.04-0.04-0.2-0.04-0.24,0c-0.26,0.23-0.51,0.48-0.76,0.73
			C21.84,58.2,21.84,58.27,21.79,58.39z M22.54,59.33c-0.02-0.02-0.04-0.13-0.11-0.17c-0.4-0.22-0.88-0.07-1.1,0.32
			c-0.2,0.35-0.07,0.77,0.26,0.85c0.18,0.04,0.36,0.07,0.54,0.09c0.2,0.03,0.32-0.05,0.34-0.26C22.49,59.9,22.52,59.65,22.54,59.33z
			"/>
		<path class="st32" d="M50.92,56.27c-0.01,1.13-0.41,2.04-1.06,2.86c-0.73,0.91-1.65,1.62-2.66,2.18c-0.9,0.5-1.84,0.92-2.76,1.38
			c-0.17,0.08-0.32,0.08-0.34-0.16c-0.06-0.53-0.11-1.07-0.19-1.6c-0.04-0.26,0.08-0.35,0.29-0.45c0.65-0.29,1.31-0.56,1.92-0.92
			c1.49-0.87,2.18-2.53,1.77-4.19c-0.12-0.48-0.3-0.95-0.46-1.43c-0.11-0.31-0.09-0.34,0.22-0.43c0.41-0.11,0.81-0.23,1.21-0.37
			c0.5-0.16,0.54-0.14,0.8,0.3c0.29,0.5,0.59,1,0.92,1.48C50.87,55.36,50.87,55.86,50.92,56.27z"/>
		<path class="st32" d="M42.4,62.7c0,0.08,0.01,0.16,0.01,0.24c0.04,0.51,0.04,0.51-0.46,0.68c-0.29,0.1-0.59,0.19-0.88,0.29
			c-0.3,0.1-0.38,0.05-0.51-0.24c-0.28-0.63-0.56-1.25-0.85-1.87c-0.1-0.22-0.05-0.34,0.18-0.38c0.71-0.11,1.43-0.22,2.14-0.33
			c0.14-0.02,0.22,0.02,0.23,0.17c0.04,0.48,0.09,0.96,0.14,1.45C42.41,62.7,42.41,62.7,42.4,62.7z"/>
		<path class="st32" d="M25.57,49.92c-0.1-0.02-0.19-0.04-0.33-0.08c0.04,0.42-0.25,0.6-0.57,0.75c-0.2,0.09-0.81-0.03-0.85-0.22
			c-0.04-0.2,0.01-0.45,0.09-0.65c0.13-0.32,0.51-0.54,0.8-0.5C25.11,49.28,25.43,49.47,25.57,49.92z M24.91,49.92
			c-0.14-0.08-0.22-0.16-0.29-0.15c-0.06,0.01-0.14,0.11-0.16,0.19c-0.01,0.04,0.11,0.14,0.17,0.14
			C24.71,50.09,24.78,50.01,24.91,49.92z"/>
		<path class="st32" d="M28.02,58.28c-0.17,0.12-0.26,0.23-0.35,0.23c-0.08,0-0.23-0.13-0.23-0.2c0-0.08,0.12-0.23,0.2-0.24
			C27.73,58.06,27.84,58.17,28.02,58.28z"/>
		<path class="st32" d="M29.38,54.5c0.11,0.15,0.22,0.24,0.22,0.33c0,0.08-0.13,0.16-0.21,0.24c-0.08-0.08-0.22-0.15-0.24-0.24
			C29.14,54.75,29.27,54.65,29.38,54.5z"/>
		<path class="st32" d="M29.26,56.38c-0.15,0.11-0.25,0.24-0.32,0.22c-0.1-0.02-0.17-0.15-0.25-0.24c0.08-0.07,0.16-0.2,0.25-0.21
			C29.02,56.16,29.11,56.28,29.26,56.38z"/>
		<path class="st32" d="M17.85,57.93c0.12,0.15,0.26,0.25,0.25,0.33c-0.01,0.09-0.15,0.21-0.25,0.23c-0.06,0.01-0.2-0.13-0.21-0.22
			C17.63,58.19,17.74,58.09,17.85,57.93z"/>
		<path class="st32" d="M19.8,59.01c-0.16,0.12-0.26,0.25-0.33,0.24c-0.1-0.02-0.17-0.15-0.26-0.23c0.08-0.07,0.16-0.19,0.25-0.21
			C19.54,58.79,19.63,58.9,19.8,59.01z"/>
		<path class="st32" d="M24.45,60.23c-0.11-0.17-0.23-0.27-0.23-0.37c0-0.08,0.15-0.15,0.23-0.23c0.07,0.08,0.2,0.16,0.21,0.25
			C24.67,59.96,24.56,60.06,24.45,60.23z"/>
		<path class="st32" d="M22.37,59.76c-0.15,0.11-0.26,0.23-0.33,0.22c-0.1-0.02-0.17-0.16-0.25-0.25c0.09-0.07,0.17-0.2,0.27-0.2
			C22.13,59.53,22.23,59.65,22.37,59.76z"/>
	</g>
</g>
</svg>
