<?xml version="1.0" encoding="utf-8"?>
<!-- Generator: Adobe Illustrator 26.3.1, SVG Export Plug-In . SVG Version: 6.00 Build 0)  -->
<svg version="1.1" id="Layer_1" xmlns="http://www.w3.org/2000/svg" xmlns:xlink="http://www.w3.org/1999/xlink" x="0px" y="0px"
	 viewBox="0 0 77.66 77.66" style="enable-background:new 0 0 77.66 77.66;" xml:space="preserve">
<style type="text/css">
	.st0{clip-path:url(#SVGID_00000119825036004513801800000015058009717917413036_);}
	.st1{fill:#FFFFFF;}
	.st2{clip-path:url(#SVGID_00000174592664265439129390000010033924604646805677_);}
	.st3{clip-path:url(#SVGID_00000076573345749467628770000005490086265960372670_);}
	.st4{opacity:0.83;fill:url(#SVGID_00000070822124001437179900000015887989617486930081_);}
	.st5{clip-path:url(#SVGID_00000125575784558503021820000003892117820544177331_);}
	.st6{clip-path:url(#SVGID_00000181803861646112610270000001234777379772628865_);}
	.st7{opacity:0.1;}
	.st8{fill:none;}
	.st9{fill:#C1C8E1;}
	.st10{fill:#E3E2E2;}
	.st11{fill:#055D91;}
	.st12{fill:#183A65;}
	.st13{clip-path:url(#SVGID_00000160873520155648463610000003925979147104686253_);}
	.st14{fill-rule:evenodd;clip-rule:evenodd;}
	.st15{fill-rule:evenodd;clip-rule:evenodd;fill:#E93638;}
	.st16{fill:#E93839;}
	.st17{clip-path:url(#SVGID_00000093144978761695947770000008675555927750897818_);}
	.st18{fill-rule:evenodd;clip-rule:evenodd;fill:#E93839;}
	.st19{fill:url(#SVGID_00000065768076579058007600000010908802075447914396_);}
	.st20{fill:url(#SVGID_00000110450051690229300500000000147515933208055478_);}
	.st21{opacity:0.2;clip-path:url(#SVGID_00000024697262162994796620000014184594974183897521_);}
	.st22{fill-rule:evenodd;clip-rule:evenodd;fill:#FFFFFF;}
	.st23{opacity:0.2;clip-path:url(#SVGID_00000011004574274377057480000002858497207234014092_);}
	.st24{clip-path:url(#SVGID_00000113327762193791820940000002828251337018281902_);}
	.st25{fill:url(#SVGID_00000070813607558632979750000007143318815836797338_);}
	.st26{fill:url(#SVGID_00000176033428991514126380000016787702658106134175_);}
	.st27{fill:url(#SVGID_00000062880456977034122160000014521892015547847358_);}
	.st28{fill:url(#SVGID_00000104685152297417905720000008803121377531646396_);}
	.st29{clip-path:url(#SVGID_00000132061833521947986150000006336444146605962381_);}
	.st30{clip-path:url(#SVGID_00000137125276125096577500000018185984170479535244_);}
	.st31{fill-rule:evenodd;clip-rule:evenodd;fill:#E9383A;}
	.st32{fill:#E9383A;}
	.st33{clip-path:url(#SVGID_00000024680997295746521480000006637174365925984158_);}
	.st34{clip-path:url(#SVGID_00000091703822354899170100000005866315341643435688_);}
	.st35{fill:url(#SVGID_00000170273307623373659520000000098927126964873883_);}
	.st36{fill:url(#SVGID_00000070099276840157341260000016892833678264277427_);}
	.st37{fill:url(#SVGID_00000042017288641552270940000001846672593877717174_);}
	.st38{fill:url(#SVGID_00000078004950530936557870000008099579704646510001_);}
	.st39{fill:none;stroke:#D1232D;stroke-width:3;stroke-miterlimit:10;}
	.st40{fill:#AD2E3F;}
	.st41{fill:#D51419;}
</style>
<g>
	<g>
		<path class="st32" d="M25.79,38.47c1.81,0.16,3.61,0.25,5.39,0.49c2.26,0.3,3.74,1.73,4.79,3.66c1.38,2.54,2.09,5.3,2.52,8.12
			c0.53,3.54,0.86,7.11,1.28,10.66c0.02,0.17,0,0.35,0,0.66c-11.7-0.14-23.38-0.29-35.14-0.43c0.1-1.18,0.18-2.26,0.28-3.34
			c0.36-3.9,0.85-7.78,1.89-11.57c0.48-1.74,1.11-3.43,2.1-4.95c1.2-1.85,2.9-2.84,5.09-2.98c1.61-0.1,3.23-0.18,4.87-0.28
			c0,1.88,0,3.82,0,5.76c0.04,0.02,0.08,0.03,0.12,0.05c0.98-1.77,1.96-3.54,2.97-5.35c-3.85-0.6-5.94-3.18-7.57-6.31
			c-0.1-0.18-0.31-0.4-0.49-0.42c-0.5-0.05-0.77-0.29-0.89-0.75c-0.21-0.84-0.48-1.67-0.61-2.52c-0.11-0.67,0.05-0.77,0.72-0.89
			c0.24-0.89,0.48-1.78,0.71-2.66c1.34,2.27,3.53,2.75,5.74,3.09c2.49,0.38,4.97,0.29,7.41-0.4c1.9-0.54,2.62-1.1,3.69-2.77
			c0.19,0.47,0.39,0.87,0.5,1.29c0.12,0.45,0.16,0.91,0.25,1.42c0.83-0.04,0.89,0.55,0.79,1.12c-0.14,0.85-0.35,1.7-0.61,2.52
			c-0.07,0.22-0.43,0.48-0.67,0.49c-0.44,0.03-0.6,0.24-0.77,0.58c-0.76,1.58-1.76,2.99-3.07,4.16c-1.24,1.11-2.66,1.85-4.45,2.01
			c1.05,1.86,2.05,3.63,3.06,5.41c0.04-0.02,0.08-0.03,0.12-0.05C25.79,42.34,25.79,40.41,25.79,38.47z M27.6,45.88
			c-0.54,0.42-1.41,0.5-2.31,0.56c-0.79,0.05-1.25,0.86-0.78,1.39c0.63,0.7,0.73,1.45,0.61,2.34c-0.18,1.31,1.51,2.92,2.83,2.78
			c1.6-0.18,2.73-1.58,2.55-3.15c-0.07-0.65,0.06-1.21,0.46-1.75c0.19-0.26,0.31-0.67,0.26-0.99c-0.07-0.47-0.49-0.58-0.96-0.65
			C29.45,46.3,28.65,46.1,27.6,45.88z M19.41,49.78c0-0.47,0-0.89,0-1.32c-2.21,0-4.37,0-6.55,0c0,0.45,0,0.86,0,1.29
			c0.23,0.01,0.4,0.04,0.58,0.04C15.41,49.78,17.38,49.78,19.41,49.78z"/>
		<path class="st32" d="M60.78,64.03c-4.91,0-4.19-3.13-4.19-6.5c-0.04-0.93-0.01-1.86-0.01-2.87c-0.32,0-0.58,0-0.84,0
			c-4.72,0-9.44-0.01-14.15,0.01c-0.51,0-0.72-0.1-0.8-0.66c-0.45-3.33-1.01-6.65-2.21-9.81c-0.38-0.99-0.85-1.94-1.32-3
			c6.96,0,13.88,0,20.9,0c-0.23-1.3-0.44-2.5-0.65-3.7c-0.35-1.99-0.7-3.99-1.05-5.98c-0.19-1.09-1.22-1.98-2.46-2.1
			c-0.29-0.03-0.58-0.02-0.87-0.02c-6.12,0-12.24,0-18.36,0c-0.26,0-0.52,0-0.72,0c-0.12-0.75-0.23-1.4-0.34-2.1
			c0.23,0,0.47,0,0.71,0c7.21,0,14.42,0,21.63,0c1.73,0,2.64,0.73,3.11,2.41c1.01,3.66,2.05,7.32,3.08,10.98
			c0.03,0.11,0.08,0.2,0.14,0.34c0.51-0.19,0.8-0.45,1-1.02c0.18-0.51,0.66-1.04,1.15-1.29c2.05-1.01,4.24-1.29,6.49-0.91
			c0.96,0.16,1.73,0.65,1.95,1.68c0.22,1.05-0.13,2.01-1.01,2.58c-0.71,0.45-1.56,0.83-2.38,0.93c-1.88,0.23-3.74,0.09-5.38-1.04
			c-0.25-0.17-1.37,0.33-1.36,0.62c0,0.14,0.23,0.36,0.4,0.39c1.38,0.31,2.2,1.25,2.63,2.5c0.19,0.53,0.23,1.21,0.07,1.74
			c-0.52,1.75-0.73,3.51-0.67,5.33c0.06,2.02,0.01,4.05,0.04,6.07C65.31,62.24,64.51,64.03,60.78,64.03z M57.59,53.2
			c2.88,0,5.99-2.23,6.77-4.87c0.66-2.21-0.51-3.98-2.81-4.24c-2.81-0.32-6.16,1.71-7.23,4.39C53.29,51.07,54.76,53.21,57.59,53.2z"
			/>
		<path class="st32" d="M22.32,13.62c0.64,0.27,1.2,0.51,1.76,0.74c0.92,0.37,1.82,0.83,2.77,1.07c0.98,0.25,1.75,0.68,2.31,1.54
			c0.63,0.97,1.33,1.88,2.38,2.47c0.47,0.26,0.51,0.77,0.14,1.2c-0.5,0.57-1.01,1.12-1.56,1.64c-0.14,0.13-0.45,0.19-0.63,0.13
			c-4.8-1.5-9.58-1.5-14.38-0.01c-0.21,0.06-0.56-0.04-0.73-0.2c-0.51-0.46-0.97-0.97-1.44-1.49c-0.43-0.48-0.4-1.01,0.11-1.3
			c1.04-0.57,1.72-1.47,2.34-2.42c0.57-0.88,1.36-1.32,2.36-1.57c0.95-0.24,1.85-0.71,2.77-1.08C21.12,14.11,21.7,13.88,22.32,13.62
			z"/>
		<path class="st32" d="M31.66,26.5c0-0.45,0-0.8,0-1.23c2.51,0,5,0,7.53,0c0-1.15,0-2.23,0-3.4c-2,0-4.01,0-6.01,0
			c-0.01-0.13-0.02-0.18-0.01-0.22c0.24-0.9,0.82-1.07,1.72-1.07c5.98,0.05,11.97,0.02,17.95,0.03c1.56,0,2.7,0.82,3.06,2.18
			c0.5,1.88-0.88,3.68-2.86,3.69c-2.83,0.02-5.65,0.01-8.48,0.01c-4.05,0-8.1,0-12.15,0C32.19,26.5,31.95,26.5,31.66,26.5z
			 M43.9,25.16c0.09,0.04,0.13,0.08,0.16,0.08c2.62,0.01,5.24,0.04,7.86,0c0.97-0.01,1.62-0.78,1.61-1.69
			c-0.01-0.91-0.67-1.65-1.65-1.67c-2.62-0.03-5.24-0.01-7.86,0c-0.04,0-0.07,0.04-0.13,0.08C43.9,23.03,43.9,24.1,43.9,25.16z"/>
		<path class="st32" d="M29.87,24.72c-0.03,0.79-0.47,1.33-1.1,1.76c-1.09,0.74-2.34,1.08-3.62,1.26c-2.9,0.4-5.77,0.36-8.52-0.8
			c-0.81-0.35-1.52-0.84-1.84-1.73c-0.13-0.35-0.07-0.58,0.34-0.69c4.88-1.37,9.74-1.38,14.6,0.1
			C29.77,24.63,29.8,24.66,29.87,24.72z"/>
		<path class="st32" d="M14.81,24.09c-0.23-0.98-0.2-1.03,0.64-1.28c4.53-1.32,9.07-1.33,13.61-0.02c0.9,0.26,0.9,0.26,0.76,1.31
			C24.82,22.61,19.81,22.62,14.81,24.09z"/>
	</g>
</g>
</svg>
