<?xml version="1.0" encoding="utf-8"?>
<!-- Generator: Adobe Illustrator 26.3.1, SVG Export Plug-In . SVG Version: 6.00 Build 0)  -->
<svg version="1.1" id="Layer_1" xmlns="http://www.w3.org/2000/svg" xmlns:xlink="http://www.w3.org/1999/xlink" x="0px" y="0px"
	 viewBox="0 0 77.66 77.66" style="enable-background:new 0 0 77.66 77.66;" xml:space="preserve">
<style type="text/css">
	.st0{clip-path:url(#SVGID_00000108289989396229417370000013247696679689661594_);}
	.st1{fill:#FFFFFF;}
	.st2{clip-path:url(#SVGID_00000142855153658220504120000002813890902739699348_);}
	.st3{clip-path:url(#SVGID_00000075162799670028506430000014854307413750475696_);}
	.st4{opacity:0.83;fill:url(#SVGID_00000089538660754603695240000001207347690066323109_);}
	.st5{clip-path:url(#SVGID_00000075145039594313975240000000223265548998756233_);}
	.st6{clip-path:url(#SVGID_00000033337842149721684780000004059593758192233625_);}
	.st7{opacity:0.1;}
	.st8{fill:none;}
	.st9{fill:#C1C8E1;}
	.st10{fill:#E3E2E2;}
	.st11{fill:#055D91;}
	.st12{fill:#183A65;}
	.st13{clip-path:url(#SVGID_00000050664160410359340350000017126094664102248610_);}
	.st14{fill-rule:evenodd;clip-rule:evenodd;}
	.st15{fill-rule:evenodd;clip-rule:evenodd;fill:#E93638;}
	.st16{fill:#E93839;}
	.st17{clip-path:url(#SVGID_00000168829771995420404050000014095769369025205641_);}
	.st18{fill-rule:evenodd;clip-rule:evenodd;fill:#E93839;}
	.st19{fill:url(#SVGID_00000174584264406874187320000001753028234341948351_);}
	.st20{fill:url(#SVGID_00000026850769708704471380000015889700549723000215_);}
	.st21{opacity:0.2;clip-path:url(#SVGID_00000139267007991030003730000015075696558935223451_);}
	.st22{fill-rule:evenodd;clip-rule:evenodd;fill:#FFFFFF;}
	.st23{opacity:0.2;clip-path:url(#SVGID_00000143596511199618277260000007466818156976289466_);}
	.st24{clip-path:url(#SVGID_00000153692636058509789710000002476687514492780437_);}
	.st25{fill:url(#SVGID_00000134948550675610590680000012254719421624853694_);}
	.st26{fill:url(#SVGID_00000072964164541184098600000014587890863440472251_);}
	.st27{fill:url(#SVGID_00000132064420076060896970000012055488239387698094_);}
	.st28{fill:url(#SVGID_00000156586779049086027670000008394517247797994637_);}
	.st29{clip-path:url(#SVGID_00000094587835723880665470000004349167067871245468_);}
	.st30{clip-path:url(#SVGID_00000022544333667175607100000006133080596555052432_);}
	.st31{fill-rule:evenodd;clip-rule:evenodd;fill:#E9383A;}
	.st32{fill:#E9383A;}
	.st33{clip-path:url(#SVGID_00000097478368443007496050000011081532142731130550_);}
	.st34{clip-path:url(#SVGID_00000054968614228728825300000006959839577039918214_);}
	.st35{fill:url(#SVGID_00000079466965070006219500000013598988195160441244_);}
	.st36{fill:url(#SVGID_00000040558082692636233200000016493940641403711154_);}
	.st37{fill:url(#SVGID_00000168114518962000277180000004277113909188161153_);}
	.st38{fill:url(#SVGID_00000165936268791348139050000014822011338827159188_);}
	.st39{fill:none;stroke:#D1232D;stroke-width:3;stroke-miterlimit:10;}
	.st40{fill:#AD2E3F;}
	.st41{fill:#D51419;}
</style>
<g id="m9tUaQ.tif_00000104665467801847415710000013934084373128093339_">
	<g>
		<g>
			<path class="st32" d="M51.71,29.22c0.54,0.15,1.07,0.23,1.55,0.44c0.91,0.41,1.82,0.83,2.66,1.35c2.24,1.39,4.56,2.57,7.17,3.09
				c1.46,0.29,2.92,0.22,4.39,0.14c0.49-0.03,0.98-0.04,1.5-0.07c0,0.13,0,0.22,0,0.31c0,3.75,0.03,7.5-0.01,11.25
				c-0.06,4.65-0.96,9.11-3.17,13.24c-2.38,4.46-5.74,8.03-10.12,10.6c-1.53,0.9-3.19,1.48-4.97,1.67
				c-1.89,0.21-3.67-0.22-5.39-0.96c-0.68-0.29-1.31-0.68-1.98-1.01c-0.16-0.08-0.35-0.14-0.53-0.14c-2.41-0.01-4.82-0.01-7.23-0.01
				c-0.13,0-0.25,0-0.41,0c0-0.16,0-0.29,0-0.41c0-2.28,0-4.56-0.01-6.84c0-0.2-0.07-0.42-0.18-0.58c-0.93-1.42-1.72-2.91-2.36-4.48
				c-0.1-0.25-0.22-0.34-0.49-0.32c-0.4,0.03-0.8,0.01-1.24,0.01c0,4.22,0,8.41,0,12.62c-0.28,0-0.52,0-0.79,0c0-4.2,0-8.38,0-12.59
				c-1.43,0-2.83,0-4.26,0c0,4.19,0,8.37,0,12.59c-0.15,0.01-0.28,0.02-0.4,0.02c-4.86,0-9.71,0-14.57,0
				c-1.37,0-2.24-0.87-2.24-2.25c0-17.76,0-35.51,0-53.27c0-1.42,0.86-2.27,2.29-2.27c3.08,0,6.16,0,9.24,0c0.14,0,0.28,0,0.46,0
				c0-0.15,0-0.28,0-0.4c0-1.05,0-2.09,0-3.14c0-0.86,0.57-1.45,1.43-1.45c5.4-0.01,10.79-0.01,16.19,0c0.87,0,1.43,0.57,1.44,1.44
				c0.01,1.05,0,2.09,0,3.14c0,0.13,0,0.25,0,0.41c0.18,0,0.32,0,0.46,0c3.08,0,6.16,0,9.24,0c1.46,0,2.29,0.84,2.3,2.3
				c0,5.03,0,10.07,0,15.1C51.71,28.91,51.71,29.07,51.71,29.22z M33.15,37.12c0,0.08,0,0.17,0,0.26c0,2.62-0.01,5.24,0,7.87
				c0.01,2.44,0.28,4.85,0.87,7.23c1.11,4.45,3.42,8.18,6.69,11.36c1.67,1.62,3.47,3.07,5.64,3.98c1.34,0.56,2.72,0.89,4.19,0.69
				c1.3-0.17,2.52-0.59,3.65-1.24c3.78-2.18,6.67-5.26,8.87-8.98c2.21-3.76,3.07-7.9,3.17-12.22c0.06-2.88,0.02-5.76,0.02-8.64
				c0-0.1-0.01-0.2-0.02-0.32c-0.08,0-0.14,0-0.19,0c-1.66,0.12-3.28-0.12-4.88-0.57c-2.49-0.71-4.74-1.91-6.9-3.31
				c-3.03-1.97-6.08-1.9-9.14,0c-1.27,0.79-2.58,1.55-3.93,2.2c-2.08,1.01-4.28,1.63-6.6,1.7C34.11,37.14,33.65,37.12,33.15,37.12z
				 M13.74,20.25c0,2.36,0,4.7,0,7.04c1.03,0,2.04,0,3.06,0c0-2.35,0-4.68,0-7.04C15.78,20.25,14.78,20.25,13.74,20.25z
				 M17.71,20.25c0,2.37,0,4.7,0,7.03c1.04,0,2.05,0,3.06,0c0-2.36,0-4.69,0-7.03C19.74,20.25,18.74,20.25,17.71,20.25z
				 M26.96,20.25c0,2.37,0,4.7,0,7.03c1.04,0,2.05,0,3.06,0c0-2.36,0-4.69,0-7.03C28.99,20.25,27.99,20.25,26.96,20.25z M34,20.26
				c-1.04,0-2.05,0-3.06,0c0,2.36,0,4.69,0,7.02c1.03,0,2.04,0,3.06,0C34,24.94,34,22.62,34,20.26z M40.18,20.25
				c0,2.37,0,4.7,0,7.03c1.03,0,2.04,0,3.06,0c0-2.35,0-4.68,0-7.03C42.22,20.25,41.21,20.25,40.18,20.25z M47.29,27.29
				c0-2.37,0-4.7,0-7.04c-1.03,0-2.04,0-3.06,0c0,2.35,0,4.68,0,7.04C45.25,27.29,46.26,27.29,47.29,27.29z M26.96,34.85
				c0,2.37,0,4.7,0,7.03c1.04,0,2.05,0,3.06,0c0-2.36,0-4.69,0-7.03C28.99,34.85,27.98,34.85,26.96,34.85z M16.8,41.96
				c0-2.36,0-4.69,0-7.03c-1.03,0-2.04,0-3.06,0c0,2.35,0,4.68,0,7.03C14.76,41.96,15.77,41.96,16.8,41.96z M17.71,34.92
				c0,2.37,0,4.7,0,7.03c1.04,0,2.05,0,3.06,0c0-2.36,0-4.69,0-7.03C19.74,34.92,18.74,34.92,17.71,34.92z M13.74,50.67
				c0,2.36,0,4.69,0,7.03c1.03,0,2.03,0,3.06,0c0-2.35,0-4.68,0-7.03C15.78,50.67,14.78,50.67,13.74,50.67z M20.77,57.71
				c0-2.37,0-4.7,0-7.03c-1.04,0-2.05,0-3.06,0c0,2.36,0,4.69,0,7.03C18.74,57.71,19.75,57.71,20.77,57.71z M24.72,52.46
				c0,0.9,0,1.76,0,2.64c2.42,0,4.82,0,7.24,0c-0.21-0.8-0.42-1.57-0.6-2.34c-0.06-0.25-0.18-0.3-0.41-0.3c-1.27,0.01-2.54,0-3.81,0
				C26.35,52.46,25.56,52.46,24.72,52.46z"/>
			<path class="st32" d="M49.65,49.77c-4.22,0-8.43,0-12.66,0c0-3,0-5.98,0-8.95c3.17-0.25,5.92-1.65,8.71-2.98
				c0.83-0.4,1.68-0.78,2.55-1.1c0.42-0.15,0.9-0.15,1.4-0.23C49.65,40.96,49.65,45.35,49.65,49.77z"/>
			<path class="st32" d="M49.72,65.22c0-5.14,0-10.22,0-15.34c4.23,0,8.44,0,12.69,0c-0.08,0.99-0.29,1.94-0.58,2.86
				c-1.35,4.24-3.98,7.52-7.6,10.04c-1.31,0.91-2.7,1.66-4.16,2.3C49.97,65.13,49.87,65.16,49.72,65.22z"/>
		</g>
	</g>
</g>
</svg>
