<?xml version="1.0" encoding="utf-8"?>
<!-- Generator: Adobe Illustrator 26.3.1, SVG Export Plug-In . SVG Version: 6.00 Build 0)  -->
<svg version="1.1" id="Layer_1" xmlns="http://www.w3.org/2000/svg" xmlns:xlink="http://www.w3.org/1999/xlink" x="0px" y="0px"
	 viewBox="0 0 77.66 77.66" style="enable-background:new 0 0 77.66 77.66;" xml:space="preserve">
<style type="text/css">
	.st0{clip-path:url(#SVGID_00000018932552363819014980000014904614553592400278_);}
	.st1{fill:#FFFFFF;}
	.st2{clip-path:url(#SVGID_00000040566535707826078640000011888835414898197667_);}
	.st3{clip-path:url(#SVGID_00000078724068314579417010000009283271490828036755_);}
	.st4{opacity:0.83;fill:url(#SVGID_00000168801908745434253830000017702278451225654661_);}
	.st5{clip-path:url(#SVGID_00000084526360762595864770000008402861917304080569_);}
	.st6{clip-path:url(#SVGID_00000134957678972098399630000013964060343878586765_);}
	.st7{opacity:0.1;}
	.st8{fill:none;}
	.st9{fill:#C1C8E1;}
	.st10{fill:#E3E2E2;}
	.st11{fill:#055D91;}
	.st12{fill:#183A65;}
	.st13{clip-path:url(#SVGID_00000016787516286669964310000006308882288642442123_);}
	.st14{fill-rule:evenodd;clip-rule:evenodd;}
	.st15{fill-rule:evenodd;clip-rule:evenodd;fill:#E93638;}
	.st16{fill:#E93839;}
	.st17{clip-path:url(#SVGID_00000067217069722987921260000009140139602660169112_);}
	.st18{fill-rule:evenodd;clip-rule:evenodd;fill:#E93839;}
	.st19{fill:url(#SVGID_00000046303291562100476970000004039703151333276832_);}
	.st20{fill:url(#SVGID_00000150069012007099330530000012979062380577192322_);}
	.st21{opacity:0.2;clip-path:url(#SVGID_00000160883152864005502750000016546835632318863039_);}
	.st22{fill-rule:evenodd;clip-rule:evenodd;fill:#FFFFFF;}
	.st23{opacity:0.2;clip-path:url(#SVGID_00000180325003656103380050000018081555430555767434_);}
	.st24{clip-path:url(#SVGID_00000108990814971374414510000017055666881441392001_);}
	.st25{fill:url(#SVGID_00000034800985720296911350000001121760981058264255_);}
	.st26{fill:url(#SVGID_00000047054493224927186660000011128176590877838524_);}
	.st27{fill:url(#SVGID_00000145773798261351365470000014672007084666456452_);}
	.st28{fill:url(#SVGID_00000138561768040273335450000005755638867021136531_);}
	.st29{clip-path:url(#SVGID_00000027588743280474034320000003965176451984627348_);}
	.st30{clip-path:url(#SVGID_00000022534074278792483250000007871393384754446746_);}
	.st31{fill-rule:evenodd;clip-rule:evenodd;fill:#E9383A;}
	.st32{fill:#E9383A;}
	.st33{clip-path:url(#SVGID_00000015343717093494802090000011753497411093977257_);}
	.st34{clip-path:url(#SVGID_00000006700338730599590730000011169253613939784855_);}
	.st35{fill:url(#SVGID_00000139289366103738067520000002366960171092836481_);}
	.st36{fill:url(#SVGID_00000181072889209068367670000018366481782071775875_);}
	.st37{fill:url(#SVGID_00000072280655602223777990000011719781232569246083_);}
	.st38{fill:url(#SVGID_00000016047717956005100610000004658518333179179965_);}
	.st39{fill:none;stroke:#D1232D;stroke-width:3;stroke-miterlimit:10;}
	.st40{fill:#AD2E3F;}
	.st41{fill:#D51419;}
</style>
<g id="fHdg50.tif">
	<g>
		<path class="st32" d="M18.5,44.4c-0.14,1.67,0.89,2.39,2.01,3.1c1.69,1.07,3.34,2.21,5.01,3.32c1.43,0.95,2.24,0.94,3.66-0.07
			c1.58-1.13,3.14-2.29,4.73-3.4c0.99-0.69,1.86-1.41,1.65-2.93c0.5,0.07,0.88,0.09,1.23,0.19c3.22,0.93,5.25,3.26,6.99,5.93
			c0.42,0.65-0.03,0.79-0.58,0.79c-2.13,0-4.25,0-6.38,0c-3.64,0-5.88,2.19-5.88,5.81c0,0.9,0.18,1.8,0.23,2.7
			c0.02,0.26-0.07,0.53-0.16,0.79c-0.39,1.12-0.83,2.22-1.2,3.34c-0.23,0.71-0.39,1.44-0.62,2.31c-0.14,0.01-0.43,0.07-0.72,0.07
			c-2.95,0.01-5.89-0.02-8.84,0.02c-0.78,0.01-0.98-0.26-0.97-1c0.04-2.28,0.02-4.55,0.01-6.83c0-0.27,0.07-0.6-0.05-0.81
			c-0.16-0.28-0.51-0.68-0.71-0.64c-0.29,0.05-0.66,0.41-0.74,0.7c-0.13,0.48-0.06,1.02-0.06,1.54c0,2.03-0.02,4.07,0,6.1
			c0.01,0.63-0.14,0.95-0.86,0.93c-2.03-0.04-4.07-0.03-6.1-0.01c-0.86,0.01-1.21-0.36-1.2-1.2c0.02-3.19-0.05-6.38,0.03-9.56
			c0.13-5.08,3.55-9.47,8.42-10.94C17.7,44.56,18,44.51,18.5,44.4z"/>
		<path class="st32" d="M27.83,41.02c-6.1-0.04-10.6-4.05-11.25-9.48c-0.03-0.24-0.04-0.49-0.09-0.72
			c-0.74-3.88,1.59-6.24,4.19-8.46c0.5-0.42,0.98-0.23,1.41,0.1c0.86,0.67,1.7,1.37,2.55,2.06c0.83,0.68,1.09,0.6,1.76-0.23
			c0.81-1.01,1.66-1.99,2.61-2.87c0.72-0.66,1.65-0.68,2.57-0.29c2.45,1.02,4.05,2.93,5.37,5.13c2.15,3.57,1.07,6.95-0.89,10.07
			C34.06,39.49,30.94,40.95,27.83,41.02z"/>
		<path class="st32" d="M49.78,59.48c-5.29,0-10.57,0-15.86,0c-1.35,0-1.44-0.11-1.45-1.46c0-0.39-0.01-0.79,0-1.18
			c0.05-2.32,1.66-3.95,3.98-3.97c2.64-0.02,5.29-0.03,7.93,0.01c0.76,0.01,1.07-0.17,1.08-1c0.03-1.57,1.04-2.49,2.64-2.53
			c1.15-0.02,2.31-0.02,3.46,0c1.58,0.03,2.56,0.96,2.6,2.55c0.02,0.77,0.3,0.97,1.03,0.96c2.58-0.03,5.16-0.02,7.75-0.01
			c2.59,0.01,4.19,1.62,4.2,4.22c0.02,2.55,0.18,2.4-2.34,2.4C59.81,59.48,54.8,59.48,49.78,59.48z"/>
		<path class="st32" d="M25.28,23c-0.83-0.65-1.56-1.24-2.31-1.8c-1.1-0.83-2.3-0.91-3.37-0.05c-1.03,0.82-1.93,1.82-2.87,2.75
			c-0.19,0.18-0.32,0.42-0.51,0.66c-0.93-2.7,0.19-7.68,3.72-10.61c3.94-3.27,9.59-3.58,13.8-0.65c4.28,2.97,5.65,8.05,4.56,12.08
			c-0.25-0.36-0.45-0.64-0.65-0.94c-1.17-1.78-2.6-3.28-4.49-4.31c-2.31-1.26-4.26-1-6.12,0.87C26.44,21.61,25.9,22.3,25.28,23z"/>
		<path class="st32" d="M46.9,34.81c0-4.04-0.02-8.07,0.01-12.11c0.02-2.38,2.32-3.81,4.31-2.71c1.09,0.6,1.54,1.58,1.54,2.8
			c0,4.76,0,9.53,0,14.29c0,3.25-0.02,6.49,0.01,9.74c0.01,0.74-0.21,1.02-0.98,0.99c-1.3-0.06-2.61-0.05-3.91,0
			c-0.76,0.03-1-0.23-1-0.98C46.91,42.82,46.9,38.82,46.9,34.81C46.9,34.81,46.9,34.81,46.9,34.81z"/>
		<path class="st32" d="M27.3,49.98c-0.26-0.12-0.55-0.22-0.79-0.38c-1.92-1.27-3.85-2.53-5.75-3.82c-0.92-0.62-0.9-0.99-0.1-1.77
			c0.6-0.59,1.1-1.28,1.71-1.85c0.2-0.19,0.64-0.3,0.89-0.22c2.66,0.84,5.3,0.85,7.96-0.01c0.23-0.08,0.66,0.02,0.81,0.2
			c0.6,0.67,1.1,1.43,1.68,2.12c0.44,0.52,0.46,0.99-0.1,1.4c-1.89,1.37-3.78,2.73-5.68,4.09C27.76,49.84,27.54,49.88,27.3,49.98z"
			/>
		<path class="st32" d="M36.16,61.03c-0.67,1.8-1.22,3.33-1.83,4.84c-0.08,0.21-0.43,0.42-0.67,0.45c-0.63,0.06-1.27,0.04-1.91,0.01
			c-0.66-0.03-0.95-0.43-0.75-1.05c0.43-1.29,0.9-2.57,1.38-3.84c0.06-0.17,0.28-0.39,0.43-0.39
			C33.87,61.01,34.92,61.03,36.16,61.03z"/>
		<path class="st32" d="M63.88,61.03c1.1,0,2.05-0.03,3,0.03c0.18,0.01,0.4,0.35,0.49,0.57c0.43,1.13,0.84,2.27,1.22,3.42
			c0.29,0.87,0,1.24-0.92,1.29c-2.22,0.11-2.22,0.11-2.83-1.98C64.54,63.35,64.26,62.33,63.88,61.03z"/>
		<path class="st32" d="M51.34,64.4c0.08,1.94,0.08,1.94-1.83,1.94c-0.24,0-0.49-0.01-0.73,0c-0.49,0.02-0.73-0.16-0.65-0.7
			c0.19-1.32,0.32-2.65,0.55-3.96c0.04-0.25,0.41-0.53,0.68-0.62c0.33-0.11,0.75-0.11,1.07,0c0.27,0.09,0.61,0.38,0.65,0.63
			C51.24,62.58,51.27,63.5,51.34,64.4z"/>
		<path class="st32" d="M63.82,66.33c-0.84,0-1.5,0.03-2.15-0.02c-0.17-0.01-0.43-0.25-0.48-0.43c-0.39-1.4-0.74-2.81-1.09-4.22
			c-0.03-0.14-0.04-0.32,0.02-0.43c0.23-0.39,2.08-0.25,2.22,0.19C62.86,62.99,63.3,64.58,63.82,66.33z"/>
		<path class="st32" d="M55.87,66.33c-0.92,0-1.67,0.05-2.41-0.03c-0.19-0.02-0.46-0.44-0.49-0.69c-0.13-1.24-0.22-2.48-0.25-3.72
			c-0.01-0.27,0.28-0.79,0.41-0.79c0.52,0.03,1.4,0.09,1.49,0.36C55.12,62.99,55.45,64.59,55.87,66.33z"/>
		<path class="st32" d="M39.85,66.33c0.36-1.21,0.67-2.27,0.98-3.33c0.06-0.2,0.12-0.41,0.18-0.61c0.47-1.48,0.77-1.64,2.49-1.18
			c-0.32,1.58-0.63,3.17-0.98,4.75c-0.03,0.15-0.29,0.34-0.45,0.35C41.4,66.35,40.71,66.33,39.85,66.33z"/>
		<path class="st32" d="M44.04,66.34c0.37-1.76,0.63-3.37,1.1-4.93c0.08-0.26,1.04-0.3,1.6-0.32c0.11,0,0.36,0.55,0.33,0.82
			c-0.12,1.24-0.33,2.47-0.46,3.7c-0.06,0.53-0.26,0.76-0.8,0.73C45.28,66.32,44.74,66.34,44.04,66.34z"/>
		<path class="st32" d="M59.68,66.33c-0.7,0-1.27,0.04-1.82-0.02c-0.19-0.02-0.46-0.29-0.51-0.5c-0.36-1.34-0.65-2.7-0.99-4.05
			c-0.14-0.54,0.06-0.7,0.57-0.73c1.33-0.08,1.43-0.04,1.75,1.22C59.01,63.55,59.32,64.86,59.68,66.33z"/>
		<path class="st32" d="M39.76,61.26c-0.48,1.58-0.95,3.16-1.47,4.72c-0.05,0.16-0.36,0.32-0.56,0.34
			c-0.56,0.05-1.12,0.02-1.89,0.02c0.67-1.79,1.17-3.43,1.93-4.95c0.18-0.35,1.19-0.29,1.82-0.43
			C39.64,61.06,39.7,61.16,39.76,61.26z"/>
	</g>
</g>
</svg>
