<?xml version="1.0" encoding="utf-8"?>
<!-- Generator: Adobe Illustrator 26.3.1, SVG Export Plug-In . SVG Version: 6.00 Build 0)  -->
<svg version="1.1" id="Layer_1" xmlns="http://www.w3.org/2000/svg" xmlns:xlink="http://www.w3.org/1999/xlink" x="0px" y="0px"
	 viewBox="0 0 77.66 77.66" style="enable-background:new 0 0 77.66 77.66;" xml:space="preserve">
<style type="text/css">
	.st0{clip-path:url(#SVGID_00000107551758832938762230000017342576668273583253_);}
	.st1{clip-path:url(#SVGID_00000080201278726023559560000008863331940514250120_);}
	.st2{fill:#FFFFFF;}
	.st3{clip-path:url(#SVGID_00000144333391357391144230000010356246078759792301_);}
	.st4{opacity:0.83;fill:url(#SVGID_00000011750557694139050160000014552206467408213430_);}
	.st5{clip-path:url(#SVGID_00000110468258439737190770000007532588471377759373_);}
	.st6{clip-path:url(#SVGID_00000155830684107272032160000003390819233073354382_);}
	.st7{opacity:0.1;}
	.st8{fill:none;}
	.st9{fill:#C1C8E1;}
	.st10{fill:#E3E2E2;}
	.st11{fill:#055D91;}
	.st12{fill:#183A65;}
	.st13{clip-path:url(#SVGID_00000136387696459809005970000018327044799337159067_);}
	.st14{fill-rule:evenodd;clip-rule:evenodd;}
	.st15{fill-rule:evenodd;clip-rule:evenodd;fill:#E93638;}
	.st16{fill:#E93839;}
	.st17{clip-path:url(#SVGID_00000177456261845259396850000003193874761609708212_);}
	.st18{fill-rule:evenodd;clip-rule:evenodd;fill:#E93839;}
	.st19{fill:url(#SVGID_00000136378040957184096480000010395782877103204736_);}
	.st20{fill:url(#SVGID_00000034065263229725880240000003087942904194704539_);}
	.st21{opacity:0.2;clip-path:url(#SVGID_00000180336194852861828540000001404887488846822322_);}
	.st22{fill-rule:evenodd;clip-rule:evenodd;fill:#FFFFFF;}
	.st23{opacity:0.2;clip-path:url(#SVGID_00000023238576457921041780000005980864316433955499_);}
	.st24{clip-path:url(#SVGID_00000163039726756727156390000010057720072561629616_);}
	.st25{fill:url(#SVGID_00000013163898844867579000000001620838774382664891_);}
	.st26{fill:url(#SVGID_00000168102686714623466420000011386720065415016843_);}
	.st27{fill:url(#SVGID_00000080180370454747128370000009010297152031204780_);}
	.st28{fill:url(#SVGID_00000131348069040325135340000009365003754553347475_);}
	.st29{clip-path:url(#SVGID_00000099633831400541917290000009919630989446828450_);}
	.st30{clip-path:url(#SVGID_00000001631597249452952590000009498632784075645852_);}
	.st31{fill:#E9383A;}
	.st32{clip-path:url(#SVGID_00000120518973813442659280000006392000673040484251_);}
	.st33{clip-path:url(#SVGID_00000134235306920056575430000004344007518100044685_);}
	.st34{fill:url(#SVGID_00000134955867573746939590000005688257918538109110_);}
	.st35{fill:url(#SVGID_00000024680136950041878920000003969887566927475640_);}
	.st36{fill:url(#SVGID_00000000935632475544063960000013287968369958835088_);}
	.st37{fill:url(#SVGID_00000168092020748636732710000007485075703062848173_);}
	.st38{fill:none;stroke:#D1232D;stroke-width:3;stroke-miterlimit:10;}
	.st39{fill:#AD2E3F;}
	.st40{fill:#D51419;}
</style>
<g id="Hzu9RS.tif">
	<g>
		<path d="M38.37,74.88c-0.08-0.01-0.17-0.04-0.25-0.04c-1.1-0.02-2.2-0.15-3.29-0.31c-1.57-0.24-3.1-0.63-4.58-1.21
			c-0.79-0.31-1.57-0.67-2.35-1.02c-0.33-0.15-0.54-0.41-0.54-0.79c-0.01-0.35,0.33-0.83,0.66-0.9c0.17-0.04,0.37-0.01,0.53,0.05
			c0.38,0.14,0.76,0.31,1.13,0.48c1.16,0.51,2.36,0.92,3.6,1.22c1.01,0.25,2.03,0.45,3.07,0.53c0.82,0.06,1.64,0.15,2.46,0.14
			c1.31-0.02,2.62-0.14,3.92-0.37c1.75-0.31,3.44-0.81,5.08-1.49c0.16-0.07,0.32-0.1,0.55-0.18c-0.14-0.08-0.22-0.13-0.32-0.18
			c-0.27-0.13-0.56-0.23-0.82-0.39c-0.32-0.2-0.43-0.59-0.34-0.94c0.08-0.33,0.44-0.67,0.78-0.68c0.18-0.01,0.36,0.06,0.53,0.13
			c0.97,0.37,1.94,0.75,2.91,1.12c0.52,0.2,0.66,0.78,0.51,1.18c-0.39,1.01-0.79,2.02-1.17,3.03c-0.14,0.36-0.64,0.68-1.11,0.49
			c-0.46-0.18-0.71-0.63-0.58-1.1c0.08-0.28,0.2-0.56,0.31-0.83c0.02-0.05,0.03-0.09,0.06-0.16c-0.44,0.17-0.85,0.33-1.26,0.49
			c-1.39,0.54-2.82,0.98-4.29,1.24c-0.69,0.12-1.38,0.23-2.07,0.3c-0.69,0.08-1.38,0.1-2.07,0.16c-0.04,0-0.09,0.03-0.13,0.04
			C38.98,74.88,38.68,74.88,38.37,74.88z"/>
		<path d="M74.86,40.1c-0.02,0.06-0.04,0.12-0.05,0.19c-0.08,0.78-0.13,1.56-0.24,2.34c-0.23,1.66-0.65,3.28-1.25,4.85
			c-0.28,0.75-0.61,1.48-0.94,2.21c-0.17,0.38-0.45,0.62-0.89,0.61c-0.45-0.01-1.08-0.5-0.82-1.12c0.29-0.68,0.56-1.37,0.84-2.06
			c0.45-1.14,0.81-2.3,1.04-3.5c0.15-0.8,0.31-1.6,0.38-2.41c0.09-0.88,0.13-1.77,0.11-2.66c-0.04-1.62-0.22-3.24-0.59-4.82
			c-0.31-1.32-0.74-2.6-1.25-3.85c-0.06-0.15-0.12-0.31-0.18-0.47c-0.03,0-0.05,0-0.08,0c-0.08,0.2-0.15,0.4-0.23,0.59
			c-0.12,0.29-0.27,0.55-0.56,0.72c-0.35,0.21-0.66,0.06-0.95-0.11c-0.28-0.17-0.42-0.55-0.32-0.85c0.17-0.52,0.36-1.03,0.56-1.55
			c0.2-0.53,0.4-1.05,0.6-1.57c0.05-0.12,0.1-0.23,0.18-0.33c0.24-0.28,0.53-0.43,0.91-0.29c0.69,0.26,1.39,0.52,2.08,0.77
			c0.22,0.08,0.44,0.17,0.67,0.25c0.42,0.14,0.78,0.35,0.96,0.79c0,0.15,0,0.29,0,0.44c-0.06,0.1-0.12,0.2-0.19,0.3
			c-0.17,0.24-0.43,0.41-0.71,0.36c-0.36-0.05-0.71-0.2-1.06-0.31c-0.08-0.02-0.15-0.07-0.27-0.12c0.05,0.14,0.07,0.22,0.11,0.31
			c0.51,1.17,0.95,2.37,1.26,3.6c0.22,0.88,0.4,1.77,0.56,2.66c0.11,0.63,0.15,1.28,0.22,1.92c0.02,0.18,0.05,0.36,0.08,0.54
			C74.86,38.37,74.86,39.24,74.86,40.1z"/>
		<path d="M73.66,15.72c-0.08,6.61-5.14,11.79-11.82,11.78c-6.49-0.01-11.63-5.16-11.68-11.7C50.1,9.32,55.39,3.97,61.9,4.01
			C68.42,4.05,73.57,9.18,73.66,15.72z M69.44,22.22c3.42-4.04,3.3-10.41-1.3-14.18c-4.26-3.49-11.29-2.99-14.71,2.57
			c-1.42,2.3-1.82,4.8-1.19,7.44c0.37,1.54,1.06,2.92,2.1,4.16c0.03-0.09,0.05-0.13,0.06-0.18c0.18-0.74,0.47-1.43,0.85-2.08
			c0.64-1.1,1.53-1.95,2.61-2.62c0.21-0.13,0.22-0.16,0.07-0.37c-0.1-0.14-0.23-0.27-0.33-0.42c-0.78-1.2-1.12-2.51-0.86-3.93
			c0.24-1.34,0.88-2.47,1.97-3.32c1.12-0.87,2.38-1.25,3.8-1.12c0.82,0.08,1.56,0.35,2.26,0.73c0.55,0.3,1.03,0.7,1.42,1.2
			c1,1.29,1.4,2.74,1.12,4.35c-0.16,0.93-0.53,1.78-1.17,2.49c-0.1,0.11-0.18,0.23-0.28,0.37c0.95,0.52,1.7,1.22,2.31,2.07
			C68.77,20.24,69.19,21.17,69.44,22.22z M65.57,13.45c-0.04-1.13-0.48-2.06-1.4-2.75c-0.91-0.69-1.93-0.87-3.02-0.63
			c-1.67,0.38-2.81,2.06-2.66,3.68c0.05,0.51,0.19,0.99,0.44,1.45c0.32,0.61,0.82,1.04,1.39,1.41c0.37,0.24,0.54,0.58,0.45,1.01
			c-0.07,0.33-0.32,0.54-0.63,0.66c-0.68,0.24-1.32,0.54-1.88,1c-0.48,0.39-0.93,0.82-1.26,1.34c-0.53,0.84-0.9,1.75-1,2.76
			c-0.02,0.23,0.01,0.41,0.25,0.54c0.57,0.34,1.14,0.7,1.76,0.96c1.09,0.47,2.23,0.73,3.41,0.78c0.41,0.02,0.82-0.02,1.22-0.03
			c0.8-0.02,1.58-0.21,2.34-0.45c0.9-0.29,1.74-0.7,2.52-1.24c0.2-0.14,0.37-0.26,0.31-0.53c-0.02-0.12-0.03-0.24-0.05-0.35
			c-0.27-1.38-0.84-2.6-1.92-3.53c-0.38-0.32-0.82-0.58-1.25-0.83c-0.35-0.2-0.75-0.31-1.08-0.54c-0.46-0.31-0.49-0.87-0.18-1.27
			c0.13-0.17,0.35-0.26,0.52-0.4c0.32-0.26,0.69-0.48,0.95-0.79C65.32,15.07,65.6,14.31,65.57,13.45z"/>
		<path d="M15.71,4c6.55,0.05,11.8,5.19,11.78,11.76c-0.01,6.65-5.2,11.74-11.73,11.75C9.17,27.51,4.02,22.28,4.04,15.67
			C4.05,9.28,9.25,4.05,15.71,4z M12,17.17c-0.2-0.25-0.39-0.47-0.54-0.7c-0.74-1.13-1.04-2.37-0.85-3.71
			c0.19-1.33,0.8-2.47,1.84-3.35c1.2-1,2.58-1.44,4.13-1.22C17.95,8.39,19.11,9,20,10.08c1.01,1.23,1.4,2.63,1.18,4.21
			c-0.15,1.09-0.62,2.03-1.35,2.85c-0.12,0.13-0.09,0.19,0.04,0.27c0.62,0.36,1.15,0.81,1.63,1.34c0.83,0.92,1.36,1.99,1.72,3.16
			c0.03,0.09,0.07,0.18,0.12,0.29c2.11-2.63,2.61-5.7,2.21-8c-0.52-2.98-2.04-5.3-4.6-6.89C16.28,4.42,9.99,5.8,7.11,10.96
			c-1.41,2.52-1.66,5.19-0.72,7.95c0.41,1.2,0.98,2.31,1.86,3.29c0.28-1.09,0.7-2.06,1.34-2.91C10.23,18.42,11.03,17.72,12,17.17z
			 M15.92,9.97c-0.18,0.02-0.36,0.03-0.53,0.05c-0.95,0.1-1.69,0.57-2.26,1.32c-0.54,0.71-0.82,1.5-0.74,2.4
			c0.06,0.66,0.27,1.26,0.65,1.8c0.29,0.42,0.69,0.73,1.1,1.02c0.18,0.13,0.37,0.28,0.46,0.47c0.24,0.54-0.01,1.02-0.55,1.25
			c-0.46,0.19-0.92,0.38-1.34,0.63c-0.35,0.2-0.68,0.45-0.96,0.73c-0.36,0.37-0.71,0.76-0.97,1.19C10.3,21.58,10,22.4,9.9,23.28
			c-0.02,0.18-0.13,0.38,0.08,0.53c0.81,0.59,1.69,1.04,2.64,1.36c1.12,0.38,2.28,0.56,3.47,0.49c0.49-0.03,0.99-0.08,1.47-0.16
			c1.39-0.24,2.67-0.79,3.84-1.59c0.18-0.12,0.27-0.22,0.24-0.47c-0.07-0.7-0.26-1.35-0.55-1.99c-0.39-0.88-0.98-1.61-1.74-2.2
			c-0.54-0.42-1.16-0.69-1.77-0.97c-0.47-0.21-0.65-0.65-0.5-1.14c0.09-0.3,0.33-0.44,0.56-0.59c0.38-0.24,0.72-0.5,1-0.86
			c0.69-0.87,0.92-1.86,0.7-2.94C19.01,11.13,17.52,9.92,15.92,9.97z"/>
		<path d="M61.86,73.71c-6.54-0.02-11.67-5.28-11.71-11.59c-0.04-6.66,5.25-11.89,11.77-11.86c6.52,0.03,11.78,5.21,11.73,11.86
			C73.59,68.52,68.44,73.7,61.86,73.71z M69.45,68.43c3.61-4.33,3.05-10.66-1.39-14.2c-4.25-3.39-10.82-2.81-14.26,2.04
			c-3.04,4.29-1.95,9.39,0.55,12.1c0.59-2.14,1.79-3.81,3.75-4.93c-1-1.18-1.55-2.52-1.41-4.1c0.13-1.57,0.83-2.84,2.05-3.82
			c1.83-1.48,4.77-1.66,7.01,0.37c0.98,0.89,1.53,2.06,1.63,3.39c0.12,1.62-0.35,3.05-1.54,4.26
			C67.75,64.65,68.88,66.32,69.45,68.43z M65.56,59.71c0-0.13,0.02-0.27,0-0.4c-0.17-0.93-0.56-1.74-1.34-2.32
			c-0.56-0.42-1.17-0.71-1.87-0.75c-1.16-0.08-2.17,0.25-2.96,1.14c-0.65,0.73-0.98,1.59-0.92,2.58c0.06,0.9,0.41,1.68,1.06,2.3
			c0.28,0.27,0.6,0.5,0.92,0.72c0.4,0.28,0.39,0.88,0.19,1.17c-0.16,0.22-0.38,0.34-0.63,0.43c-0.57,0.2-1.11,0.47-1.6,0.82
			c-0.72,0.51-1.28,1.16-1.71,1.93c-0.42,0.75-0.66,1.56-0.72,2.43c-0.01,0.17,0.05,0.26,0.18,0.34c0.49,0.28,0.97,0.6,1.48,0.84
			c1.58,0.75,3.25,1.11,5,0.91c0.7-0.08,1.39-0.21,2.07-0.38c1.03-0.26,1.97-0.75,2.86-1.35c0.2-0.14,0.25-0.28,0.23-0.49
			c-0.01-0.1-0.03-0.2-0.05-0.29c-0.22-1.26-0.74-2.38-1.66-3.29c-0.44-0.44-0.94-0.82-1.51-1.08c-0.38-0.18-0.77-0.36-1.14-0.56
			c-0.25-0.13-0.39-0.56-0.33-0.83c0.07-0.34,0.3-0.54,0.58-0.73c0.37-0.26,0.76-0.52,1.06-0.85
			C65.34,61.34,65.58,60.56,65.56,59.71z"/>
		<path d="M15.74,73.71C9.27,73.7,4.08,68.47,4.03,62.1c-0.05-6.55,5.22-11.92,11.85-11.84c6.38,0.08,11.6,5.16,11.61,11.74
			C27.5,68.56,22.24,73.68,15.74,73.71z M11.98,63.44c-0.11-0.16-0.21-0.31-0.32-0.45c-0.92-1.17-1.25-2.52-1.06-3.97
			c0.18-1.35,0.82-2.49,1.87-3.38c1.2-1.01,2.6-1.4,4.15-1.19c1.21,0.16,2.26,0.7,3.11,1.57c0.58,0.59,0.99,1.29,1.25,2.07
			c0.3,0.87,0.34,1.76,0.17,2.67c-0.19,0.98-0.59,1.85-1.29,2.58c-0.17,0.18-0.17,0.22,0.04,0.34c0.77,0.45,1.43,1.03,1.96,1.74
			c0.61,0.82,1.07,1.71,1.36,2.7c0.03,0.09,0.07,0.18,0.11,0.3c0.08-0.11,0.12-0.18,0.17-0.24c1.36-1.67,2.03-3.61,2.17-5.73
			c0.05-0.79-0.04-1.57-0.19-2.34c-0.49-2.42-1.72-4.41-3.66-5.93c-1.55-1.22-3.33-1.91-5.3-2.05c-0.86-0.06-1.73-0.02-2.59,0.13
			c-1.83,0.33-3.41,1.14-4.78,2.38c-0.66,0.6-1.25,1.27-1.73,2.03c-0.97,1.54-1.5,3.22-1.57,5.04C5.83,62.36,5.89,63.02,6,63.66
			c0.24,1.47,0.8,2.81,1.67,4.03c0.17,0.23,0.35,0.45,0.56,0.72C8.83,66.22,10.03,64.55,11.98,63.44z M15.91,56.23
			c-0.11,0-0.23-0.01-0.34,0c-0.12,0.01-0.24,0.01-0.35,0.04c-1.22,0.28-2.1,0.99-2.58,2.14c-0.5,1.19-0.32,2.34,0.4,3.4
			c0.29,0.43,0.71,0.73,1.12,1.03c0.13,0.09,0.27,0.19,0.35,0.31c0.26,0.4,0.28,1.06-0.43,1.34c-0.77,0.3-1.52,0.63-2.14,1.18
			c-0.63,0.55-1.13,1.19-1.49,1.94c-0.32,0.67-0.5,1.39-0.6,2.12c-0.02,0.13,0.01,0.22,0.13,0.3c0.88,0.61,1.82,1.1,2.85,1.4
			c1.07,0.32,2.17,0.54,3.29,0.44c0.7-0.07,1.4-0.16,2.08-0.32c1.18-0.27,2.27-0.78,3.27-1.49c0.14-0.1,0.21-0.21,0.19-0.38
			c-0.1-0.7-0.26-1.38-0.56-2.03c-0.41-0.89-1.03-1.61-1.81-2.2c-0.51-0.39-1.08-0.66-1.68-0.89c-0.4-0.15-0.57-0.46-0.6-0.83
			c-0.02-0.3,0.11-0.59,0.4-0.77c0.26-0.17,0.54-0.32,0.77-0.53c1-0.89,1.41-2.01,1.19-3.32C19.09,57.46,17.6,56.18,15.91,56.23z"/>
		<path d="M54.35,38.29c0,2.26-0.42,4.24-1.22,6.14c-0.54,1.27-1.26,2.45-2.12,3.53c-0.36,0.45-0.78,0.85-1.14,1.3
			c-0.21,0.26-0.4,0.56-0.49,0.87c-0.05,0.18,0.07,0.45,0.19,0.63c0.29,0.42,0.68,0.73,1.12,0.99c0.24,0.14,0.51,0.27,0.71,0.45
			c0.45,0.42,0.33,1.11-0.18,1.37c-0.84,0.43-1.73,0.73-2.66,0.88c-0.45,0.07-0.92,0.14-1.38,0.14c-0.64,0-1.27-0.1-1.89-0.29
			c-0.73-0.22-1.42-0.5-2.02-0.98c-0.13-0.11-0.27-0.1-0.43-0.07c-0.68,0.14-1.36,0.3-2.05,0.38c-0.71,0.09-1.43,0.13-2.15,0.15
			c-1.02,0.03-2.03-0.12-3.03-0.32c-1.45-0.3-2.82-0.8-4.12-1.5c-0.54-0.29-1.05-0.64-1.57-0.96c-0.79-0.5-1.5-1.11-2.16-1.78
			c-0.9-0.92-1.69-1.93-2.34-3.04c-0.66-1.12-1.2-2.29-1.52-3.54c-0.22-0.84-0.41-1.7-0.5-2.56c-0.09-0.85-0.07-1.72-0.04-2.58
			c0.03-1.14,0.25-2.26,0.57-3.36c0.41-1.39,1-2.69,1.78-3.91c0.54-0.85,1.17-1.63,1.87-2.36c0.99-1.04,2.11-1.92,3.33-2.65
			c1.4-0.83,2.9-1.4,4.48-1.76c1.23-0.28,2.48-0.42,3.74-0.37c0.78,0.03,1.57,0.12,2.34,0.23c1.71,0.26,3.32,0.83,4.83,1.67
			c1.1,0.61,2.12,1.32,3.04,2.18c1,0.93,1.89,1.96,2.62,3.12c1.02,1.6,1.72,3.33,2.08,5.19C54.25,36.49,54.37,37.48,54.35,38.29z
			 M48.69,52.56c0.01-0.02,0.02-0.04,0.03-0.07c-0.11-0.12-0.24-0.23-0.34-0.35c-0.55-0.63-0.9-1.33-0.79-2.2
			c0.07-0.57,0.27-1.08,0.62-1.52c0.4-0.49,0.84-0.95,1.25-1.44c0.89-1.07,1.59-2.26,2.11-3.55c0.5-1.26,0.82-2.57,0.92-3.92
			c0.07-0.85,0.07-1.69-0.04-2.54c-0.12-1.01-0.34-2-0.68-2.95c-0.63-1.81-1.61-3.4-2.92-4.79c-0.9-0.95-1.9-1.76-3.03-2.42
			c-1.72-1-3.57-1.62-5.55-1.8c-0.76-0.07-1.54-0.04-2.3-0.04c-0.78,0-1.54,0.14-2.29,0.31c-1.72,0.39-3.3,1.11-4.75,2.12
			c-0.98,0.68-1.84,1.49-2.61,2.4c-0.59,0.7-1.12,1.44-1.55,2.25c-0.69,1.27-1.16,2.61-1.41,4.04c-0.21,1.17-0.28,2.33-0.17,3.51
			c0.08,0.93,0.26,1.85,0.53,2.74c0.53,1.75,1.38,3.32,2.55,4.73c0.61,0.74,1.3,1.38,2.04,1.97c0.54,0.43,1.13,0.82,1.72,1.17
			c1.04,0.61,2.16,1.04,3.32,1.35c1.15,0.3,2.33,0.46,3.52,0.44c0.7-0.01,1.39-0.05,2.07-0.19c0.72-0.15,1.44-0.31,2.16-0.47
			c0.17-0.04,0.35-0.07,0.52,0.03c0.14,0.09,0.29,0.17,0.41,0.27c0.62,0.52,1.32,0.87,2.12,1.03c0.55,0.11,1.1,0.1,1.64,0.08
			C48.09,52.73,48.39,52.62,48.69,52.56z"/>
		<path d="M28.52,5c0.15-0.06,0.3-0.1,0.45-0.17c1.77-0.78,3.61-1.36,5.52-1.67c0.87-0.14,1.75-0.24,2.63-0.32
			c0.67-0.06,1.35-0.08,2.02-0.07c0.65,0.01,1.29,0.09,1.94,0.13c1.39,0.09,2.76,0.35,4.1,0.7c1.37,0.36,2.7,0.83,3.98,1.44
			c0.22,0.1,0.43,0.21,0.64,0.32c0.29,0.15,0.44,0.42,0.47,0.72c0.03,0.24-0.08,0.48-0.26,0.66c-0.28,0.27-0.6,0.38-0.99,0.22
			c-0.61-0.26-1.21-0.52-1.83-0.77c-1.39-0.57-2.83-0.97-4.31-1.22c-0.72-0.12-1.45-0.2-2.18-0.26c-0.65-0.06-1.31-0.12-1.96-0.1
			c-0.94,0.03-1.88,0.11-2.81,0.2c-1.54,0.15-3.03,0.53-4.5,1.02c-0.63,0.21-1.25,0.46-1.88,0.7c-0.07,0.03-0.13,0.06-0.23,0.12
			c0.3,0.12,0.56,0.24,0.82,0.34c0.4,0.16,0.68,0.53,0.66,0.9c-0.02,0.39-0.32,0.78-0.74,0.87c-0.16,0.03-0.36-0.01-0.52-0.07
			c-0.79-0.29-1.58-0.59-2.37-0.9c-0.22-0.09-0.44-0.18-0.66-0.27c-0.42-0.18-0.63-0.59-0.48-1.03c0.24-0.7,0.5-1.39,0.76-2.08
			c0.14-0.36,0.28-0.73,0.43-1.09c0.19-0.42,0.6-0.61,1-0.53c0.34,0.07,0.82,0.57,0.72,0.99c-0.08,0.34-0.23,0.67-0.35,1
			c-0.02,0.06-0.07,0.11-0.1,0.16C28.5,4.97,28.51,4.98,28.52,5z"/>
		<path d="M6.69,48.33c0.11-0.26,0.19-0.48,0.29-0.68c0.15-0.32,0.29-0.63,0.67-0.77c0.49-0.18,0.97,0.19,1.12,0.55
			c0.13,0.3,0.01,0.58-0.09,0.84c-0.34,0.94-0.71,1.88-1.08,2.81c-0.06,0.15-0.18,0.29-0.31,0.4c-0.21,0.19-0.46,0.25-0.75,0.14
			c-1.03-0.4-2.07-0.78-3.09-1.18c-0.35-0.14-0.6-0.38-0.61-0.8c-0.02-0.56,0.52-1.03,1.08-0.91c0.19,0.04,0.37,0.11,0.55,0.17
			c0.18,0.06,0.36,0.14,0.55,0.22C5.02,49.07,5.02,49.03,5,49c-0.67-1.4-1.16-2.87-1.51-4.39C3.28,43.7,3.14,42.77,3,41.84
			c-0.18-1.14-0.23-2.29-0.2-3.44c0.02-0.73,0.1-1.46,0.16-2.19c0.13-1.51,0.45-2.99,0.88-4.44c0.39-1.31,0.89-2.57,1.49-3.8
			c0.3-0.61,0.93-0.76,1.45-0.34c0.23,0.18,0.36,0.44,0.27,0.74c-0.15,0.45-0.32,0.9-0.5,1.33c-0.48,1.11-0.9,2.24-1.18,3.42
			c-0.2,0.82-0.35,1.66-0.49,2.49c-0.19,1.12-0.28,2.26-0.25,3.39c0.02,0.68,0.08,1.36,0.13,2.04c0.1,1.22,0.32,2.42,0.63,3.6
			c0.25,0.97,0.56,1.92,0.95,2.85c0.09,0.22,0.16,0.45,0.24,0.67C6.59,48.2,6.63,48.23,6.69,48.33z"/>
		<path d="M38.85,36.43c-2.01,0-4.03,0-6.04,0c-0.52,0-0.94-0.33-1.03-0.83c-0.06-0.32,0.15-0.54,0.36-0.75
			c0.18-0.19,0.42-0.24,0.67-0.24c3.99,0,7.98,0,11.96,0c0.58,0,0.95,0.31,1.07,0.86c0.06,0.29-0.17,0.7-0.49,0.85
			c-0.15,0.07-0.31,0.11-0.47,0.11C42.87,36.43,40.86,36.43,38.85,36.43z"/>
		<path d="M38.83,42.94c-2.02,0-4.04,0-6.06,0c-0.43,0-0.83-0.29-0.97-0.69c-0.1-0.28,0.03-0.62,0.31-0.86
			c0.22-0.19,0.47-0.28,0.76-0.28c3.06,0,6.11,0,9.17,0c0.96,0,1.93,0.03,2.89,0.03c0.54,0,0.96,0.45,0.93,0.95
			c-0.02,0.45-0.38,0.84-0.93,0.85C42.89,42.94,40.86,42.94,38.83,42.94z"/>
	</g>
</g>
</svg>
