<?xml version="1.0" encoding="utf-8"?>
<!-- Generator: Adobe Illustrator 26.3.1, SVG Export Plug-In . SVG Version: 6.00 Build 0)  -->
<svg version="1.1" id="Layer_1" xmlns="http://www.w3.org/2000/svg" xmlns:xlink="http://www.w3.org/1999/xlink" x="0px" y="0px"
	 viewBox="0 0 77.66 77.66" style="enable-background:new 0 0 77.66 77.66;" xml:space="preserve">
<style type="text/css">
	.st0{clip-path:url(#SVGID_00000093857080159991688000000003336855533922423721_);}
	.st1{clip-path:url(#SVGID_00000151513455451087040350000010784470984238385081_);}
	.st2{fill:#FFFFFF;}
	.st3{clip-path:url(#SVGID_00000107553079985472583070000002061070087175103618_);}
	.st4{opacity:0.83;fill:url(#SVGID_00000005988753398941717530000016628007997213208207_);}
	.st5{clip-path:url(#SVGID_00000094577838639312131170000014688433991757992865_);}
	.st6{clip-path:url(#SVGID_00000011751149964602250040000001888058490613478319_);}
	.st7{opacity:0.1;}
	.st8{fill:none;}
	.st9{fill:#C1C8E1;}
	.st10{fill:#E3E2E2;}
	.st11{fill:#055D91;}
	.st12{fill:#183A65;}
	.st13{clip-path:url(#SVGID_00000170261342343762647000000009646471453401306521_);}
	.st14{fill-rule:evenodd;clip-rule:evenodd;}
	.st15{fill-rule:evenodd;clip-rule:evenodd;fill:#E93638;}
	.st16{fill:#E93839;}
	.st17{clip-path:url(#SVGID_00000064353094712874243730000013965911171538743224_);}
	.st18{fill-rule:evenodd;clip-rule:evenodd;fill:#E93839;}
	.st19{fill:url(#SVGID_00000054963070758175980800000001500354495932989327_);}
	.st20{fill:url(#SVGID_00000059287091266380903670000002059176115734651268_);}
	.st21{opacity:0.2;clip-path:url(#SVGID_00000125580438614518207130000014917288852813704360_);}
	.st22{fill-rule:evenodd;clip-rule:evenodd;fill:#FFFFFF;}
	.st23{opacity:0.2;clip-path:url(#SVGID_00000058587100678758536180000001189453574620009614_);}
	.st24{clip-path:url(#SVGID_00000011726168736842551950000018325547117195070881_);}
	.st25{fill:url(#SVGID_00000110466388991037021970000012149197449299327390_);}
	.st26{fill:url(#SVGID_00000070815338460797620450000012849750962154297527_);}
	.st27{fill:url(#SVGID_00000120558322843757840260000008678362732856499878_);}
	.st28{fill:url(#SVGID_00000036932604390234745670000006849580391485235349_);}
	.st29{clip-path:url(#SVGID_00000120533347199807124150000011752930503033994936_);}
	.st30{clip-path:url(#SVGID_00000180326824648172393600000018079860463600906431_);}
	.st31{fill:#E9383A;}
	.st32{clip-path:url(#SVGID_00000168833078096112755190000011993814896463914143_);}
	.st33{clip-path:url(#SVGID_00000042700341396555912530000005978072026351348619_);}
	.st34{fill:url(#SVGID_00000080906728999109461540000000745938628074692272_);}
	.st35{fill:url(#SVGID_00000052079929249422460090000006532763172966522522_);}
	.st36{fill:url(#SVGID_00000164475037817881793420000016001923407948073880_);}
	.st37{fill:url(#SVGID_00000058590452965786441890000000043459969671813557_);}
	.st38{fill:none;stroke:#D1232D;stroke-width:3;stroke-miterlimit:10;}
	.st39{fill:#AD2E3F;}
	.st40{fill:#D51419;}
</style>
<g id="wfAbCS.tif">
	<g>
		<path d="M3.04,33.58c0.03-0.16,0.06-0.32,0.08-0.48c0.04-0.43,0.07-0.87,0.12-1.3c0.06-0.49,0.14-0.98,0.23-1.47
			c0.17-0.83,0.34-1.66,0.54-2.49c0.39-1.63,0.93-3.22,1.57-4.77c0.39-0.93,0.8-1.86,1.28-2.75c0.69-1.3,1.43-2.57,2.29-3.77
			c0.53-0.75,1.08-1.48,1.65-2.2c0.35-0.45,0.74-0.87,1.13-1.29c0.58-0.62,1.15-1.26,1.77-1.84c0.68-0.65,1.39-1.27,2.13-1.86
			c0.88-0.7,1.78-1.37,2.7-2.01c1.38-0.96,2.86-1.77,4.38-2.48c1.29-0.61,2.6-1.15,3.96-1.57c0.97-0.3,1.94-0.59,2.92-0.84
			c0.76-0.19,1.54-0.31,2.32-0.45c0.6-0.1,1.21-0.19,1.82-0.27c0.34-0.04,0.68-0.07,1.01-0.08c1.59-0.02,3.18-0.04,4.77-0.03
			c0.57,0,1.15,0.09,1.72,0.15c0.53,0.06,1.06,0.12,1.59,0.2c0.53,0.08,1.07,0.16,1.6,0.28c1.02,0.24,2.04,0.47,3.04,0.77
			c1.08,0.33,2.15,0.69,3.19,1.13c1.22,0.52,2.43,1.09,3.6,1.72c1.02,0.55,2,1.19,2.97,1.84c0.78,0.52,1.52,1.1,2.26,1.67
			c0.42,0.33,0.81,0.71,1.2,1.08c0.52,0.47,1.05,0.93,1.54,1.44c0.58,0.6,1.13,1.22,1.67,1.85c0.52,0.61,1.04,1.23,1.52,1.87
			c0.46,0.62,0.9,1.27,1.31,1.93c0.47,0.74,0.92,1.49,1.33,2.27c0.47,0.87,0.9,1.76,1.31,2.66c0.55,1.21,1,2.47,1.38,3.75
			c0.38,1.25,0.7,2.5,0.91,3.79c0.12,0.71,0.25,1.43,0.34,2.15c0.06,0.47,0.07,0.96,0.12,1.43c0.13,1.23,0.13,2.47,0.11,3.71
			c-0.02,0.72-0.09,1.43-0.15,2.15c-0.03,0.43-0.06,0.87-0.12,1.3c-0.08,0.59-0.16,1.19-0.28,1.77c-0.21,1.02-0.45,2.03-0.69,3.05
			c-0.04,0.17-0.08,0.33-0.14,0.49c-0.05,0.15-0.01,0.24,0.14,0.27c0.67,0.16,1.33,0.31,2,0.47c0.41,0.1,0.82,0.21,1.23,0.32
			c0.05,0.01,0.1,0.06,0.17,0.1c-0.18,0.21-0.34,0.42-0.52,0.6c-0.42,0.43-0.85,0.85-1.28,1.27c-0.8,0.8-1.59,1.61-2.38,2.42
			c-0.77,0.78-1.53,1.56-2.3,2.34c-0.32,0.33-0.63,0.67-0.95,0.98c-0.19,0.19-0.41,0.35-0.67,0.57c-0.11-0.26-0.22-0.47-0.29-0.69
			c-0.43-1.21-0.85-2.43-1.28-3.65c-0.54-1.54-1.08-3.07-1.61-4.61c-0.19-0.56-0.37-1.13-0.55-1.7c-0.02-0.07-0.02-0.15-0.04-0.28
			c1.15,0.25,2.26,0.48,3.41,0.73c0.1-0.31,0.21-0.61,0.29-0.93c0.2-0.84,0.41-1.67,0.58-2.52c0.11-0.56,0.18-1.13,0.24-1.7
			c0.08-0.75,0.16-1.5,0.19-2.25c0.04-0.92,0.06-1.83,0.04-2.75c-0.01-0.7-0.07-1.4-0.15-2.09c-0.27-2.25-0.75-4.45-1.51-6.58
			c-0.44-1.25-0.96-2.48-1.57-3.65c-0.43-0.83-0.9-1.65-1.42-2.44c-0.58-0.89-1.22-1.74-1.86-2.59c-0.32-0.43-0.69-0.82-1.06-1.22
			c-0.55-0.6-1.1-1.21-1.68-1.78c-1.16-1.12-2.42-2.13-3.76-3.03c-1.33-0.9-2.73-1.7-4.19-2.38c-1.71-0.79-3.48-1.42-5.31-1.86
			c-0.88-0.21-1.77-0.37-2.66-0.52c-0.63-0.11-1.28-0.16-1.92-0.24c-1.3-0.16-2.61-0.14-3.92-0.11c-0.82,0.02-1.63,0.14-2.45,0.22
			c-1.4,0.13-2.77,0.42-4.12,0.79c-0.95,0.26-1.89,0.58-2.81,0.93c-0.88,0.34-1.73,0.74-2.58,1.15c-1.2,0.58-2.35,1.26-3.44,2.02
			c-0.8,0.55-1.56,1.16-2.33,1.76c-1.04,0.81-1.95,1.76-2.85,2.71c-0.6,0.64-1.14,1.33-1.68,2.02c-0.5,0.64-0.98,1.31-1.42,1.99
			c-0.49,0.75-0.94,1.53-1.37,2.31c-0.85,1.53-1.49,3.15-2.02,4.82c-0.35,1.09-0.65,2.2-0.84,3.33c-0.12,0.73-0.25,1.46-0.34,2.19
			c-0.07,0.56-0.12,1.13-0.16,1.7c-0.04,0.68-0.08,1.37-0.07,2.05c0.01,0.75,0.04,1.5,0.12,2.25c0.13,1.38,0.34,2.74,0.64,4.09
			c0.37,1.63,0.86,3.22,1.5,4.77c0.56,1.36,1.2,2.68,1.97,3.93c0.6,0.97,1.25,1.91,1.93,2.83c0.45,0.62,0.98,1.18,1.48,1.76
			c0.33,0.37,0.65,0.76,1.02,1.09c0.9,0.81,1.8,1.63,2.74,2.39c0.8,0.64,1.63,1.24,2.49,1.79c0.82,0.52,1.68,0.98,2.55,1.43
			c1.54,0.79,3.13,1.44,4.79,1.92c0.9,0.26,1.81,0.46,2.71,0.69c0.53,0.13,1.03,0.31,1.4,0.73c0.87,0.96,0.95,2.26,0.18,3.3
			c-0.5,0.68-1.21,1-2.04,0.97c-0.43-0.01-0.87-0.12-1.29-0.23c-0.99-0.25-1.98-0.49-2.95-0.81c-1.07-0.35-2.13-0.75-3.17-1.19
			c-0.89-0.37-1.76-0.81-2.62-1.25c-1.16-0.59-2.27-1.26-3.33-2.02c-0.79-0.56-1.56-1.15-2.33-1.74c-0.49-0.39-0.97-0.8-1.43-1.23
			c-0.74-0.7-1.49-1.41-2.19-2.16c-0.58-0.62-1.09-1.3-1.65-1.94c-0.75-0.87-1.4-1.81-2.03-2.78c-0.8-1.24-1.53-2.53-2.16-3.86
			c-0.79-1.69-1.47-3.42-1.98-5.21c-0.29-1-0.52-2.02-0.74-3.04C3.45,42.36,3.37,41.68,3.28,41c-0.08-0.59-0.13-1.18-0.2-1.77
			c0-0.02-0.02-0.04-0.04-0.06C3.04,37.31,3.04,35.45,3.04,33.58z"/>
		<path d="M52.15,76.01c-0.22-0.02-0.43-0.06-0.65-0.06c-0.23,0-0.38-0.08-0.48-0.3c-0.19-0.38-0.39-0.76-0.62-1.12
			c-0.07-0.12-0.21-0.26-0.33-0.29c-0.75-0.15-1.41-0.5-2.08-0.84c-0.3-0.15-0.56-0.24-0.9-0.08c-0.34,0.16-0.72,0.26-1.08,0.37
			c-0.04,0.01-0.11,0-0.15-0.03c-0.24-0.18-0.49-0.35-0.7-0.56c-0.51-0.51-1-1.05-1.48-1.56c0.08-0.15,0.16-0.24,0.19-0.34
			c0.12-0.36,0.23-0.73,0.36-1.09c0.05-0.16,0.02-0.3-0.06-0.43c-0.41-0.66-0.7-1.37-0.9-2.11c-0.09-0.3-0.23-0.53-0.55-0.66
			c-0.36-0.15-0.69-0.36-1.02-0.55c-0.14-0.07-0.18-0.19-0.18-0.35c0-0.28-0.06-0.56-0.06-0.84c0-0.36,0.03-0.72,0.05-1.08
			c0.01-0.2,0.06-0.41,0.05-0.61c-0.01-0.15,0.05-0.21,0.15-0.26c0.4-0.21,0.8-0.43,1.21-0.62c0.19-0.09,0.27-0.23,0.32-0.41
			c0.22-0.76,0.48-1.51,0.92-2.19c0.13-0.2,0.14-0.4,0.05-0.63c-0.12-0.31-0.21-0.63-0.31-0.94c-0.01-0.02,0-0.04-0.01-0.06
			c-0.26-0.29-0.04-0.5,0.14-0.68c0.58-0.57,1.19-1.12,1.78-1.68c0.08-0.08,0.16-0.07,0.27-0.03c0.48,0.17,0.96,0.32,1.44,0.47
			c0.06,0.02,0.16-0.03,0.23-0.06c0.5-0.24,1-0.5,1.51-0.73c0.28-0.12,0.58-0.19,0.87-0.27c0.14-0.04,0.24-0.11,0.31-0.25
			c0.23-0.45,0.48-0.88,0.72-1.32c0.02-0.04,0.08-0.09,0.12-0.09c0.22-0.02,0.44-0.03,0.65-0.04c0.21-0.01,0.41-0.04,0.62-0.04
			c0.48,0.02,0.97,0.04,1.44,0.08c0.1,0.01,0.2,0.13,0.26,0.23c0.2,0.34,0.41,0.68,0.58,1.03c0.11,0.24,0.28,0.36,0.52,0.44
			c0.74,0.23,1.45,0.52,2.11,0.9c0.22,0.12,0.4,0.14,0.64,0.04c0.38-0.16,0.77-0.3,1.17-0.39c0.13-0.03,0.33,0.09,0.45,0.2
			c0.38,0.35,0.75,0.73,1.11,1.1c0.21,0.21,0.4,0.44,0.59,0.67c0.1,0.12,0.09,0.24,0.03,0.4c-0.16,0.39-0.3,0.78-0.42,1.18
			c-0.03,0.11,0.01,0.26,0.06,0.36c0.38,0.72,0.74,1.45,0.95,2.24c0.09,0.35,0.37,0.47,0.63,0.62c0.29,0.16,0.58,0.31,0.87,0.47
			c0.14,0.08,0.2,0.19,0.2,0.36c0.01,0.49,0.06,0.99,0.07,1.48c0,0.35-0.03,0.71-0.08,1.05c-0.02,0.12-0.16,0.25-0.27,0.32
			c-0.3,0.18-0.62,0.32-0.94,0.48c-0.28,0.13-0.44,0.32-0.5,0.64c-0.15,0.69-0.47,1.33-0.82,1.94c-0.18,0.31-0.21,0.57-0.06,0.9
			c0.14,0.32,0.24,0.65,0.35,0.98c0.07,0.2-0.07,0.35-0.18,0.46c-0.5,0.53-1.01,1.05-1.52,1.57c-0.1,0.1-0.23,0.18-0.35,0.27
			c-0.03,0.02-0.09,0.02-0.14,0c-0.51-0.16-1.01-0.33-1.52-0.49c-0.07-0.02-0.16,0.02-0.23,0.05c-0.51,0.24-1.02,0.5-1.53,0.73
			c-0.28,0.12-0.57,0.21-0.86,0.31c-0.14,0.05-0.24,0.13-0.31,0.28c-0.19,0.4-0.42,0.79-0.62,1.18c-0.07,0.13-0.18,0.17-0.32,0.17
			c-0.27,0.01-0.54,0.02-0.81,0.04c-0.03,0-0.05,0.02-0.08,0.04C52.72,76.01,52.43,76.01,52.15,76.01z M57.27,64.81
			c0.03-2.53-2.08-4.63-4.62-4.64c-2.67-0.01-4.57,2.12-4.65,4.5c-0.09,2.62,2.05,4.74,4.45,4.78
			C55.27,69.5,57.29,67.34,57.27,64.81z"/>
		<path d="M37.68,47.48c-2.85,0-5.69,0-8.54,0c-0.57,0-0.98-0.24-1.24-0.73c-0.06-0.11-0.07-0.24-0.08-0.37
			c-0.02-0.3-0.04-0.61-0.04-0.91c0-3.49-0.01-6.99,0.01-10.48c0.01-0.96,0.08-1.93,0.42-2.85c0.38-1.02,0.88-1.96,1.66-2.74
			c0.66-0.66,1.4-1.2,2.29-1.52c0.48-0.17,0.98-0.29,1.49-0.29c2.59-0.01,5.19-0.04,7.78-0.03c1.31,0,2.49,0.41,3.54,1.23
			c1.14,0.9,1.9,2.06,2.35,3.43c0.18,0.54,0.27,1.11,0.34,1.68c0.17,1.36,0.06,2.73,0.08,4.1c0.01,0.78,0.01,1.55,0,2.33
			c-0.01,1.95-0.02,3.89-0.04,5.84c-0.01,0.56-0.32,1.06-0.91,1.22c-0.17,0.05-0.35,0.07-0.53,0.07
			C43.38,47.48,40.53,47.48,37.68,47.48z M37.76,38.75c0.05-0.09,0.08-0.16,0.12-0.23c0.75-1.11,1.5-2.22,2.24-3.33
			c0.04-0.06,0.06-0.16,0.04-0.22c-0.35-1.08-0.71-2.16-1.07-3.24c-0.34-1.02-0.68-2.04-1.01-3.07c-0.09-0.28-0.18-0.56-0.29-0.91
			c-0.08,0.1-0.14,0.15-0.17,0.22c-0.04,0.09-0.06,0.19-0.09,0.29c-0.35,1.06-0.7,2.12-1.06,3.18c-0.34,1.03-0.67,2.07-1.05,3.08
			c-0.14,0.38-0.1,0.63,0.13,0.96c0.69,0.98,1.34,2,2,3.01C37.61,38.57,37.69,38.65,37.76,38.75z"/>
		<path d="M42.72,21.36c-0.04,2.86-2.23,5.07-5.17,4.99c-2.55-0.07-4.79-2.11-4.79-4.96c0.01-2.72,2.24-5.04,5.13-4.95
			C40.55,16.51,42.68,18.68,42.72,21.36z"/>
	</g>
</g>
</svg>
