<?xml version="1.0" encoding="utf-8"?>
<!-- Generator: Adobe Illustrator 26.3.1, SVG Export Plug-In . SVG Version: 6.00 Build 0)  -->
<svg version="1.1" id="Layer_1" xmlns="http://www.w3.org/2000/svg" xmlns:xlink="http://www.w3.org/1999/xlink" x="0px" y="0px"
	 viewBox="0 0 77.66 77.66" style="enable-background:new 0 0 77.66 77.66;" xml:space="preserve">
<style type="text/css">
	.st0{clip-path:url(#SVGID_00000089565444380720464730000010324779639321641610_);}
	.st1{clip-path:url(#SVGID_00000076578611889478805660000016364011875334265275_);}
	.st2{fill:#FFFFFF;}
	.st3{clip-path:url(#SVGID_00000037685439835159265130000013874202737038505912_);}
	.st4{opacity:0.83;fill:url(#SVGID_00000098200975350529436170000000554115992903402154_);}
	.st5{clip-path:url(#SVGID_00000101819514573801533690000005008660063425900220_);}
	.st6{clip-path:url(#SVGID_00000108998293400263997720000011912769213746680976_);}
	.st7{opacity:0.1;}
	.st8{fill:none;}
	.st9{fill:#C1C8E1;}
	.st10{fill:#E3E2E2;}
	.st11{fill:#055D91;}
	.st12{fill:#183A65;}
	.st13{clip-path:url(#SVGID_00000102517432003983851540000008415002845238524548_);}
	.st14{fill-rule:evenodd;clip-rule:evenodd;}
	.st15{fill-rule:evenodd;clip-rule:evenodd;fill:#E93638;}
	.st16{fill:#E93839;}
	.st17{clip-path:url(#SVGID_00000091696493728777631860000014158356821711056258_);}
	.st18{fill-rule:evenodd;clip-rule:evenodd;fill:#E93839;}
	.st19{fill:url(#SVGID_00000062165385885761586420000004011940168202368701_);}
	.st20{fill:url(#SVGID_00000129202438399452311610000009390848939049264805_);}
	.st21{opacity:0.2;clip-path:url(#SVGID_00000150076362130905068860000017235883671747271045_);}
	.st22{fill-rule:evenodd;clip-rule:evenodd;fill:#FFFFFF;}
	.st23{opacity:0.2;clip-path:url(#SVGID_00000099620633046668863630000018207911704054040741_);}
	.st24{clip-path:url(#SVGID_00000103978280844041768970000008083431425374872971_);}
	.st25{fill:url(#SVGID_00000025415246832211088760000008255297590518522766_);}
	.st26{fill:url(#SVGID_00000031920959687486839960000012733723743001814149_);}
	.st27{fill:url(#SVGID_00000049903853336471151530000010355557092109405835_);}
	.st28{fill:url(#SVGID_00000140697980324134782740000013253041413525933218_);}
	.st29{clip-path:url(#SVGID_00000121281119775236772960000004788432051349689747_);}
	.st30{clip-path:url(#SVGID_00000177473374176290937790000013718301324314491548_);}
	.st31{fill:#E9383A;}
	.st32{clip-path:url(#SVGID_00000106121700189154281910000008727827098279301042_);}
	.st33{clip-path:url(#SVGID_00000080190276056798059690000012424757955995174302_);}
	.st34{fill:url(#SVGID_00000173861488581766943410000007331649556687202468_);}
	.st35{fill:url(#SVGID_00000142892836843807694800000004309362442576811397_);}
	.st36{fill:url(#SVGID_00000049911127381626863180000013412421101347614624_);}
	.st37{fill:url(#SVGID_00000028283108298198846340000012604429757024272554_);}
	.st38{fill:none;stroke:#D1232D;stroke-width:3;stroke-miterlimit:10;}
	.st39{fill:#AD2E3F;}
	.st40{fill:#D51419;}
</style>
<g id="tWNAec.tif">
	<g>
		<path d="M2.77,27.93c0.04-0.25,0.05-0.51,0.12-0.76c0.14-0.51,0.28-1.02,0.48-1.5c0.34-0.84,0.88-1.55,1.55-2.16
			c0.94-0.84,2.01-1.43,3.26-1.62c0.57-0.09,1.15-0.13,1.72-0.08c1.22,0.1,2.34,0.51,3.31,1.26c0.33,0.26,0.66,0.52,0.95,0.83
			c0.5,0.53,0.89,1.14,1.18,1.81c0.21,0.49,0.38,0.98,0.46,1.51c0.09,0.63,0.13,1.27,0.06,1.91c-0.1,0.88-0.36,1.7-0.78,2.47
			c-0.34,0.63-0.79,1.17-1.34,1.65c-0.64,0.56-1.34,0.99-2.13,1.28c-0.46,0.17-0.93,0.34-1.44,0.34c-0.4,0-0.44,0.06-0.45,0.45
			c-0.01,0.66-0.04,1.32-0.04,1.99c0,0.47,0.01,0.95,0.04,1.42c0.05,0.65,0.14,1.3,0.21,1.96c0.15,1.54,0.47,3.04,0.9,4.52
			c0.34,1.18,0.78,2.34,1.21,3.5c0.25,0.66,0.54,1.3,0.85,1.93c0.35,0.7,0.73,1.4,1.14,2.07c0.44,0.73,0.9,1.45,1.39,2.14
			c0.43,0.62,0.91,1.2,1.38,1.8c0.78,1.01,1.67,1.92,2.59,2.79c0.58,0.55,1.21,1.05,1.82,1.58c0.89,0.78,1.85,1.45,2.85,2.08
			c0.62,0.39,1.25,0.76,1.89,1.1c0.72,0.39,1.44,0.78,2.19,1.09c1.09,0.45,2.2,0.86,3.31,1.24c0.72,0.25,1.46,0.42,2.19,0.61
			c0.56,0.15,1.13,0.26,1.69,0.41c0.53,0.14,0.82,0.55,0.92,1.05c0.16,0.8-0.39,1.54-1.04,1.69c-0.26,0.06-0.56,0.03-0.82-0.02
			c-0.69-0.13-1.37-0.29-2.05-0.46c-0.61-0.15-1.21-0.34-1.82-0.52c-1.41-0.43-2.77-0.98-4.11-1.59c-1.21-0.56-2.39-1.18-3.51-1.91
			c-0.76-0.49-1.51-0.99-2.25-1.51c-0.58-0.42-1.13-0.88-1.69-1.33c-1.06-0.85-2.01-1.81-2.94-2.78c-0.58-0.6-1.12-1.24-1.64-1.89
			c-0.69-0.87-1.35-1.76-1.98-2.67c-0.44-0.63-0.82-1.31-1.21-1.98c-0.65-1.13-1.23-2.31-1.74-3.51c-0.71-1.71-1.32-3.45-1.73-5.25
			c-0.16-0.71-0.32-1.41-0.45-2.13c-0.11-0.62-0.19-1.24-0.26-1.87c-0.07-0.62-0.14-1.24-0.16-1.87c-0.05-1.06-0.07-2.11-0.08-3.17
			c0-0.33,0.05-0.67,0.08-1c0.03-0.26-0.02-0.33-0.24-0.47c-0.56-0.35-1.13-0.67-1.65-1.07c-0.53-0.41-0.94-0.94-1.28-1.53
			C3.26,31,2.95,30.22,2.84,29.37c-0.02-0.13-0.05-0.26-0.07-0.39C2.77,28.63,2.77,28.28,2.77,27.93z"/>
		<path d="M42.91,2.78c0.04,0.02,0.08,0.04,0.12,0.05c0.44,0.03,0.88,0.05,1.31,0.09c0.47,0.05,0.94,0.13,1.41,0.2
			c0.49,0.07,0.98,0.11,1.47,0.22c1.01,0.23,2.03,0.47,3.03,0.75c0.85,0.24,1.69,0.52,2.52,0.82c0.66,0.24,1.31,0.52,1.95,0.82
			c0.85,0.4,1.69,0.81,2.52,1.26c0.69,0.37,1.35,0.79,2.02,1.2c0.23,0.14,0.46,0.28,0.68,0.42c0.72-0.65,1.57-1.03,2.49-1.24
			c0.49-0.11,0.99-0.15,1.49-0.17c0.86-0.04,1.68,0.16,2.47,0.47c0.81,0.32,1.52,0.8,2.13,1.42c0.76,0.76,1.31,1.65,1.65,2.68
			c0.29,0.86,0.36,1.75,0.27,2.64c-0.11,1.15-0.51,2.22-1.18,3.16c-0.76,1.07-1.77,1.83-2.99,2.3c-0.58,0.22-1.18,0.36-1.8,0.42
			c-1.46,0.13-2.83-0.18-4.06-0.99c-0.46-0.3-0.9-0.64-1.28-1.03c-0.85-0.88-1.43-1.93-1.65-3.15c-0.07-0.4-0.16-0.81-0.16-1.22
			c0-0.43,0.06-0.86,0.14-1.29c0.06-0.35,0.17-0.69,0.27-1.02c0.06-0.18,0.15-0.36,0.25-0.52c0.09-0.13,0.06-0.2-0.05-0.26
			c-0.51-0.32-1.02-0.66-1.55-0.96c-0.71-0.4-1.42-0.8-2.16-1.14c-0.84-0.39-1.7-0.77-2.57-1.08c-1.03-0.37-2.08-0.7-3.14-0.99
			c-0.78-0.21-1.58-0.34-2.37-0.49c-0.54-0.1-1.08-0.18-1.62-0.25c-0.35-0.05-0.71-0.06-1.06-0.09c-0.57-0.04-1.13-0.11-1.7-0.12
			c-0.68-0.01-1.36,0.02-2.04,0.03c-0.29,0.01-0.58,0.02-0.87,0.04c-0.58,0.04-1.16,0.06-1.74,0.13c-0.6,0.07-1.2,0.17-1.79,0.29
			c-0.9,0.18-1.81,0.36-2.7,0.6c-0.95,0.26-1.88,0.58-2.81,0.91c-1.18,0.42-2.32,0.96-3.43,1.54c-1.25,0.66-2.45,1.38-3.59,2.22
			c-0.64,0.47-1.29,0.95-1.91,1.45c-0.44,0.36-0.86,0.75-1.27,1.14c-0.6,0.58-1.18,1.17-1.76,1.76c-0.29,0.29-0.57,0.61-0.86,0.9
			c-0.23,0.23-0.53,0.36-0.85,0.38c-0.58,0.03-1.21-0.43-1.41-0.97c-0.21-0.57-0.06-1.08,0.31-1.49c0.75-0.84,1.52-1.68,2.33-2.46
			c0.96-0.92,1.98-1.77,3.05-2.57c1.26-0.94,2.57-1.81,3.95-2.56c0.69-0.37,1.37-0.76,2.08-1.08c0.89-0.4,1.81-0.76,2.72-1.12
			c1.23-0.49,2.51-0.85,3.8-1.15c0.76-0.18,1.53-0.32,2.3-0.45C35.91,3.1,36.56,3,37.21,2.92c0.41-0.05,0.82-0.06,1.24-0.1
			c0.06,0,0.12-0.03,0.17-0.05C40.05,2.78,41.48,2.78,42.91,2.78z"/>
		<path d="M25.32,21.17c1.02,0,2.04,0.02,3.06-0.01c0.83-0.02,1.63-0.18,2.43-0.41c1.62-0.47,3.16-1.14,4.64-1.94
			c0.98-0.52,1.91-1.12,2.86-1.71c0.65-0.4,1.28-0.84,1.93-1.25c0.47-0.29,0.93-0.18,1.36,0.1c1.08,0.7,2.15,1.42,3.25,2.09
			c1.09,0.67,2.22,1.26,3.4,1.72c0.9,0.36,1.82,0.7,2.74,1.01c0.66,0.22,1.35,0.33,2.05,0.34c1.39,0.02,2.78,0.05,4.17,0.08
			c0.44,0.01,0.84,0.14,1.13,0.5c0.22,0.27,0.33,0.59,0.36,0.94c0.03,0.36,0.08,0.73,0.12,1.09c0.03,0.32,0.07,0.64,0.09,0.96
			c0.06,0.63,0.11,1.26,0.17,1.89c0.02,0.22,0.04,0.44,0.04,0.66c0.02,1.08,0.04,2.17,0.04,3.25c0,0.55-0.04,1.1-0.08,1.65
			c-0.05,0.62-0.09,1.25-0.17,1.87c-0.12,0.95-0.25,1.9-0.42,2.84c-0.18,0.98-0.39,1.95-0.62,2.91c-0.34,1.4-0.79,2.78-1.34,4.11
			c-0.49,1.19-1.05,2.35-1.69,3.47c-0.54,0.95-1.15,1.85-1.82,2.71c-0.43,0.55-0.93,1.06-1.4,1.58c-0.24,0.26-0.47,0.54-0.74,0.77
			c-0.63,0.55-1.26,1.1-1.91,1.61c-1.05,0.83-2.2,1.53-3.41,2.1c-1.05,0.49-2.14,0.89-3.22,1.32c-0.41,0.16-0.83,0.29-1.24,0.42
			c-0.28,0.09-0.55-0.01-0.8-0.1c-0.99-0.36-1.98-0.7-2.96-1.09c-1.37-0.55-2.66-1.28-3.87-2.12c-0.76-0.52-1.5-1.07-2.17-1.72
			c-0.31-0.3-0.65-0.56-0.94-0.87c-0.54-0.59-1.05-1.21-1.57-1.81c-0.63-0.72-1.14-1.51-1.63-2.32c-0.62-1.03-1.17-2.1-1.66-3.2
			c-0.53-1.2-0.98-2.43-1.34-3.68c-0.26-0.91-0.5-1.83-0.7-2.75c-0.17-0.79-0.3-1.59-0.43-2.38c-0.11-0.69-0.18-1.38-0.25-2.07
			c-0.07-0.68-0.14-1.36-0.17-2.04c-0.05-1.18-0.09-2.36-0.08-3.54c0-0.72,0.1-1.43,0.16-2.14c0.04-0.5,0.08-0.99,0.13-1.48
			c0.08-0.74,0.13-1.49,0.26-2.22c0.13-0.71,0.66-1.07,1.37-1.1c0.3-0.01,0.6,0,0.9,0C25.32,21.19,25.32,21.18,25.32,21.17z
			 M53.38,29.49c0-0.22,0.01-0.44,0-0.66c-0.01-0.23-0.04-0.45-0.04-0.68c0.01-0.47-0.52-1.08-1.02-1.19
			c-0.24-0.05-0.48-0.08-0.72-0.13c-0.7-0.15-1.42-0.27-2.11-0.45c-1.34-0.36-2.63-0.86-3.9-1.43c-1.38-0.62-2.71-1.35-4.03-2.09
			c-0.48-0.27-0.96-0.29-1.45-0.01c-1,0.55-2.01,1.1-3.02,1.63c-1.31,0.68-2.69,1.22-4.1,1.67c-1.12,0.36-2.27,0.62-3.44,0.77
			c-0.33,0.04-0.62,0.18-0.86,0.42c-0.31,0.31-0.42,0.72-0.41,1.15c0.01,1.01,0.02,2.01,0.04,3.02c0,0.24,0.02,0.48,0.04,0.72
			c0.05,0.51,0.11,1.01,0.17,1.52c0.06,0.48,0.09,0.97,0.17,1.45c0.14,0.79,0.29,1.57,0.46,2.35c0.34,1.61,0.87,3.17,1.53,4.68
			c0.47,1.07,1.01,2.11,1.69,3.07c0.45,0.64,0.92,1.26,1.42,1.86c0.41,0.48,0.88,0.92,1.35,1.35c0.42,0.38,0.85,0.76,1.31,1.09
			c1.15,0.84,2.41,1.51,3.74,2.02c0.3,0.12,0.61,0.21,0.94,0.1c0.83-0.27,1.61-0.64,2.36-1.06c1.07-0.59,2.08-1.26,2.97-2.09
			c0.56-0.52,1.11-1.06,1.6-1.65c0.55-0.67,1.03-1.38,1.51-2.1c0.67-1.02,1.21-2.11,1.65-3.25c0.31-0.78,0.58-1.58,0.82-2.38
			c0.25-0.85,0.45-1.72,0.64-2.59c0.13-0.63,0.21-1.28,0.3-1.92c0.11-0.83,0.22-1.66,0.29-2.49c0.06-0.64,0.06-1.28,0.09-1.92
			C53.38,30.01,53.38,29.75,53.38,29.49z"/>
		<path d="M49.28,61.69c1.03,0.03,2,0.25,2.91,0.72c0.94,0.48,1.72,1.14,2.33,2c0.16,0.22,0.23,0.24,0.48,0.11
			c1.33-0.68,2.62-1.44,3.83-2.32c0.73-0.53,1.46-1.05,2.13-1.64c0.95-0.84,1.88-1.72,2.76-2.63c0.7-0.73,1.32-1.53,1.95-2.32
			c0.37-0.47,0.69-0.98,1.03-1.48c0.82-1.19,1.54-2.45,2.17-3.75c0.59-1.21,1.12-2.44,1.51-3.72c0.36-1.15,0.66-2.32,0.94-3.49
			c0.16-0.68,0.25-1.37,0.34-2.07c0.09-0.71,0.18-1.42,0.21-2.13c0.05-1.11,0.08-2.22,0.08-3.33c0-0.64-0.06-1.28-0.12-1.91
			c-0.07-0.68-0.16-1.36-0.29-2.04c-0.2-1.06-0.43-2.12-0.68-3.17c-0.17-0.69-0.38-1.36-0.61-2.03c-0.2-0.58-0.11-1.09,0.31-1.52
			c0.52-0.55,1.21-0.64,1.86-0.2c0.4,0.27,0.56,0.7,0.69,1.13c0.33,1.14,0.67,2.27,0.96,3.42c0.19,0.75,0.31,1.52,0.43,2.29
			c0.1,0.61,0.16,1.22,0.21,1.84c0.06,0.62,0.1,1.24,0.13,1.85c0.03,0.85,0.06,1.71,0.05,2.56c-0.01,0.58-0.09,1.17-0.13,1.75
			c-0.03,0.35-0.05,0.71-0.09,1.06c-0.05,0.43-0.1,0.87-0.18,1.3c-0.1,0.59-0.21,1.17-0.33,1.76c-0.13,0.61-0.25,1.23-0.43,1.83
			c-0.3,1.04-0.6,2.08-0.98,3.08c-0.42,1.1-0.9,2.17-1.39,3.23c-0.71,1.54-1.6,2.98-2.56,4.37c-0.46,0.66-0.95,1.31-1.46,1.93
			c-0.5,0.62-1.04,1.21-1.58,1.79c-0.49,0.53-1,1.06-1.52,1.56c-0.43,0.41-0.89,0.8-1.34,1.18c-0.56,0.46-1.11,0.93-1.69,1.35
			c-0.77,0.56-1.55,1.11-2.36,1.62c-0.84,0.52-1.71,0.99-2.57,1.47c-0.03,0.02-0.07,0.04-0.1,0.05c-0.4,0.17-0.43,0.29-0.36,0.72
			c0.05,0.28,0.05,0.59,0.01,0.87c-0.07,0.49-0.17,0.98-0.29,1.45c-0.22,0.85-0.65,1.59-1.21,2.27c-1.01,1.22-2.33,1.92-3.86,2.26
			c-0.58,0.13-1.18,0.12-1.78,0.06c-0.55-0.06-1.08-0.15-1.6-0.34c-0.76-0.28-1.44-0.68-2.07-1.2c-0.74-0.61-1.31-1.35-1.7-2.22
			c-0.32-0.71-0.53-1.46-0.6-2.26c-0.11-1.24,0.16-2.38,0.7-3.48c0.32-0.64,0.72-1.23,1.24-1.72c0.96-0.91,2.05-1.56,3.37-1.77
			C48.45,61.79,48.86,61.75,49.28,61.69z"/>
		<path d="M31.19,31.64c-0.02-0.62-0.05-1.24-0.08-1.87c-0.01-0.14,0.03-0.21,0.19-0.25c0.8-0.2,1.61-0.39,2.4-0.63
			c1.19-0.35,2.35-0.79,3.47-1.32c0.67-0.32,1.35-0.62,2.02-0.95c0.43-0.21,0.84-0.46,1.26-0.68c0.11-0.06,0.23-0.12,0.35-0.16
			c0.04-0.02,0.11-0.01,0.15,0.01c0.8,0.42,1.58,0.86,2.39,1.25c0.69,0.34,1.39,0.65,2.1,0.94c0.79,0.32,1.6,0.61,2.41,0.87
			c0.83,0.26,1.67,0.46,2.51,0.67c0.15,0.04,0.27,0.07,0.19,0.26c-0.02,0.05-0.01,0.12-0.01,0.17c-0.03,0.62-0.05,1.24-0.09,1.86
			c-0.03,0.5-0.07,0.99-0.13,1.48c-0.07,0.53-0.16,1.07-0.25,1.6c-0.13,0.75-0.25,1.5-0.43,2.24c-0.27,1.15-0.62,2.27-1.07,3.36
			c-0.42,1.02-0.88,2.03-1.51,2.94c-0.47,0.68-0.99,1.34-1.52,1.98c-0.71,0.86-1.57,1.54-2.5,2.14c-0.67,0.43-1.38,0.79-2.08,1.15
			c-0.09,0.05-0.25,0.01-0.36-0.04c-0.94-0.44-1.85-0.95-2.69-1.58c-0.65-0.49-1.27-1.02-1.79-1.64c-0.56-0.65-1.08-1.33-1.56-2.05
			c-0.4-0.6-0.74-1.24-1.06-1.89c-0.5-1-0.89-2.06-1.19-3.13c-0.25-0.91-0.48-1.84-0.67-2.77c-0.14-0.7-0.22-1.42-0.31-2.13
			c-0.06-0.46-0.08-0.92-0.13-1.38C31.22,31.96,31.2,31.8,31.19,31.64C31.18,31.64,31.18,31.64,31.19,31.64z"/>
	</g>
</g>
</svg>
