<?xml version="1.0" encoding="utf-8"?>
<!-- Generator: Adobe Illustrator 26.3.1, SVG Export Plug-In . SVG Version: 6.00 Build 0)  -->
<svg version="1.1" id="Layer_1" xmlns="http://www.w3.org/2000/svg" xmlns:xlink="http://www.w3.org/1999/xlink" x="0px" y="0px"
	 viewBox="0 0 77.66 77.66" style="enable-background:new 0 0 77.66 77.66;" xml:space="preserve">
<style type="text/css">
	.st0{clip-path:url(#SVGID_00000006692197925774452010000000405055175958795455_);}
	.st1{clip-path:url(#SVGID_00000152946791489151155370000015699324161963456149_);}
	.st2{fill:#FFFFFF;}
	.st3{clip-path:url(#SVGID_00000147203670113526887100000003089287604802030996_);}
	.st4{opacity:0.83;fill:url(#SVGID_00000119825378251291846590000010501858164935494285_);}
	.st5{clip-path:url(#SVGID_00000172402207964421850150000005844950000956618647_);}
	.st6{clip-path:url(#SVGID_00000013913428826986704690000014557346553286077843_);}
	.st7{opacity:0.1;}
	.st8{fill:none;}
	.st9{fill:#C1C8E1;}
	.st10{fill:#E3E2E2;}
	.st11{fill:#055D91;}
	.st12{fill:#183A65;}
	.st13{clip-path:url(#SVGID_00000163063915903077598630000001147736184477645759_);}
	.st14{fill-rule:evenodd;clip-rule:evenodd;}
	.st15{fill-rule:evenodd;clip-rule:evenodd;fill:#E93638;}
	.st16{fill:#E93839;}
	.st17{clip-path:url(#SVGID_00000056416556209339109870000016665472206608458368_);}
	.st18{fill-rule:evenodd;clip-rule:evenodd;fill:#E93839;}
	.st19{fill:url(#SVGID_00000045585878482029888060000002556217686975560074_);}
	.st20{fill:url(#SVGID_00000003081770310426672040000018003452912462744723_);}
	.st21{opacity:0.2;clip-path:url(#SVGID_00000181801763185430805930000009928078217199979707_);}
	.st22{fill-rule:evenodd;clip-rule:evenodd;fill:#FFFFFF;}
	.st23{opacity:0.2;clip-path:url(#SVGID_00000040559006819376459180000006414516874819082663_);}
	.st24{clip-path:url(#SVGID_00000180329319855070046690000002451359860650244994_);}
	.st25{fill:url(#SVGID_00000181769247399121522430000003431055737301521839_);}
	.st26{fill:url(#SVGID_00000013191421606361185170000001641906662563988612_);}
	.st27{fill:url(#SVGID_00000109727998760838235540000009435306552567560603_);}
	.st28{fill:url(#SVGID_00000043446890852417180750000010811247301522399624_);}
	.st29{clip-path:url(#SVGID_00000094603134982478956780000014022469823158325894_);}
	.st30{clip-path:url(#SVGID_00000060748987242591181190000000804325342054587306_);}
	.st31{fill:#E9383A;}
	.st32{clip-path:url(#SVGID_00000117640405575503087140000004515876340313053853_);}
	.st33{clip-path:url(#SVGID_00000173151854982639681260000012318650647507398589_);}
	.st34{fill:url(#SVGID_00000027567168984501377470000009940502229915897740_);}
	.st35{fill:url(#SVGID_00000049908080837688876500000006655211228776099762_);}
	.st36{fill:url(#SVGID_00000034800806884720286560000006994569112491070862_);}
	.st37{fill:url(#SVGID_00000078029681453669449690000013162856343847568572_);}
	.st38{fill:none;stroke:#D1232D;stroke-width:3;stroke-miterlimit:10;}
	.st39{fill:#AD2E3F;}
	.st40{fill:#D51419;}
</style>
<g id="lAqNvd.tif">
	<g>
		<path d="M70.46,27.95c-0.02,0.19-0.06,0.38-0.07,0.57c-0.03,0.71-0.05,1.42-0.08,2.13c-0.01,0.36-0.04,0.72-0.07,1.08
			c-0.02,0.25-0.04,0.5-0.07,0.74c-0.04,0.31-0.09,0.62-0.13,0.92c0,0.02,0,0.05-0.01,0.07c-0.02,0.34-0.04,0.67-0.07,1.01
			c-0.04,0.37-0.09,0.75-0.14,1.12c-0.04,0.34-0.08,0.69-0.14,1.03c-0.06,0.35-0.14,0.7-0.2,1.05c-0.04,0.2-0.05,0.41-0.08,0.61
			c-0.03,0.2-0.08,0.39-0.12,0.59c-0.03,0.14-0.07,0.28-0.09,0.42c-0.05,0.31-0.08,0.63-0.15,0.93c-0.08,0.37-0.19,0.73-0.27,1.1
			c-0.06,0.26-0.09,0.53-0.15,0.79c-0.08,0.32-0.18,0.64-0.27,0.96c-0.06,0.23-0.09,0.46-0.15,0.69c-0.07,0.27-0.16,0.54-0.23,0.82
			c-0.06,0.22-0.12,0.45-0.19,0.67c-0.05,0.18-0.11,0.36-0.17,0.53c-0.09,0.27-0.17,0.55-0.26,0.82c-0.08,0.25-0.17,0.49-0.26,0.74
			c-0.12,0.36-0.25,0.71-0.37,1.07c-0.1,0.28-0.2,0.56-0.3,0.84c-0.21,0.53-0.41,1.07-0.63,1.6c-0.17,0.42-0.37,0.83-0.56,1.24
			c-0.17,0.37-0.35,0.73-0.53,1.1c-0.36,0.72-0.71,1.44-1.08,2.15c-0.2,0.4-0.42,0.79-0.65,1.18c-0.25,0.42-0.53,0.82-0.79,1.23
			c-0.25,0.4-0.5,0.8-0.76,1.19c-0.27,0.4-0.57,0.79-0.85,1.19c-0.22,0.31-0.44,0.61-0.66,0.92c-0.1,0.13-0.19,0.26-0.3,0.38
			c-0.42,0.49-0.83,0.99-1.25,1.47c-0.48,0.54-0.97,1.09-1.48,1.61c-0.57,0.58-1.17,1.14-1.76,1.7c-0.43,0.41-0.88,0.8-1.33,1.19
			c-0.28,0.24-0.58,0.46-0.88,0.69c-0.31,0.24-0.62,0.48-0.94,0.71c-0.31,0.23-0.63,0.45-0.95,0.67c-0.37,0.25-0.75,0.5-1.14,0.73
			c-0.59,0.36-1.17,0.72-1.77,1.04c-0.92,0.48-1.85,0.94-2.79,1.39c-0.6,0.28-1.21,0.53-1.82,0.78c-0.47,0.19-0.95,0.35-1.42,0.51
			c-0.48,0.17-0.96,0.33-1.45,0.48c-0.36,0.11-0.72,0.2-1.08,0.3c-0.18,0.05-0.36,0.1-0.54,0.15c-0.02,0-0.02,0.04-0.03,0.06
			c-0.15,0-0.3,0-0.46,0c-0.1-0.04-0.19-0.1-0.29-0.12c-0.29-0.08-0.58-0.15-0.86-0.23c-0.34-0.1-0.68-0.22-1.03-0.33
			c-0.39-0.13-0.78-0.25-1.17-0.38c-0.34-0.12-0.68-0.25-1.01-0.38c-0.57-0.24-1.14-0.47-1.71-0.73c-0.73-0.33-1.47-0.66-2.18-1.03
			c-0.72-0.37-1.42-0.79-2.12-1.19c-0.34-0.2-0.67-0.43-1-0.64c-0.4-0.26-0.79-0.52-1.18-0.78c-0.31-0.21-0.61-0.44-0.91-0.67
			c-0.51-0.39-1.02-0.78-1.52-1.18c-0.26-0.21-0.5-0.44-0.74-0.66c-0.45-0.42-0.89-0.84-1.33-1.26c-0.33-0.31-0.67-0.62-0.99-0.94
			c-0.26-0.26-0.52-0.53-0.76-0.82c-0.36-0.42-0.72-0.85-1.07-1.28c-0.14-0.17-0.29-0.33-0.43-0.5c-0.23-0.29-0.46-0.58-0.68-0.88
			c-0.24-0.32-0.49-0.63-0.72-0.95c-0.24-0.33-0.46-0.68-0.69-1.01c-0.15-0.22-0.3-0.45-0.45-0.68c-0.21-0.32-0.42-0.65-0.63-0.98
			c-0.22-0.36-0.45-0.71-0.64-1.08c-0.47-0.87-0.92-1.75-1.38-2.63c-0.23-0.44-0.46-0.89-0.67-1.34c-0.21-0.45-0.4-0.91-0.59-1.37
			c-0.22-0.54-0.42-1.08-0.64-1.63c-0.16-0.4-0.32-0.8-0.47-1.2c-0.11-0.3-0.2-0.62-0.3-0.92c-0.08-0.25-0.18-0.5-0.25-0.75
			c-0.11-0.35-0.2-0.7-0.31-1.05c-0.06-0.2-0.13-0.39-0.19-0.58c-0.06-0.21-0.11-0.43-0.16-0.64c-0.05-0.19-0.11-0.38-0.16-0.58
			c-0.04-0.14-0.08-0.27-0.12-0.41c-0.06-0.22-0.11-0.45-0.16-0.67c-0.04-0.18-0.08-0.37-0.12-0.55c-0.05-0.23-0.1-0.46-0.16-0.68
			c-0.04-0.15-0.08-0.3-0.11-0.45c-0.08-0.39-0.14-0.79-0.22-1.18c-0.06-0.32-0.14-0.65-0.2-0.97c-0.03-0.18-0.05-0.36-0.08-0.55
			c-0.04-0.23-0.09-0.46-0.13-0.69c-0.03-0.15-0.05-0.3-0.07-0.46c-0.03-0.2-0.05-0.4-0.08-0.6c-0.04-0.3-0.09-0.6-0.13-0.9
			c0-0.02-0.01-0.05-0.01-0.07c-0.05-0.49-0.1-0.99-0.14-1.48c-0.05-0.48-0.08-0.97-0.14-1.45c-0.09-0.65-0.13-1.3-0.14-1.96
			c-0.02-0.72-0.08-1.44-0.09-2.17c-0.01-1.88-0.01-3.75,0-5.63c0-0.57,0.01-1.13,0.03-1.7c0.01-0.43,0.04-0.86,0.07-1.29
			c0.02-0.35,0.04-0.7,0.07-1.04c0.03-0.32,0.08-0.63,0.14-0.94c0.02-0.08,0.1-0.17,0.18-0.2c0.36-0.18,0.73-0.33,1.1-0.5
			c0.7-0.33,1.39-0.65,2.09-0.98c0.44-0.21,0.88-0.41,1.33-0.62c0.47-0.22,0.94-0.45,1.42-0.67c0.5-0.23,1-0.45,1.5-0.69
			c0.41-0.19,0.81-0.41,1.22-0.6c0.52-0.25,1.04-0.48,1.56-0.73c0.71-0.33,1.43-0.67,2.14-1.01c0.75-0.36,1.5-0.72,2.25-1.08
			c0.88-0.42,1.77-0.83,2.66-1.25c0.79-0.37,1.58-0.74,2.37-1.12c0.61-0.29,1.21-0.58,1.82-0.87c1.04-0.49,2.08-0.98,3.12-1.47
			c0.86-0.41,1.73-0.81,2.59-1.22c0.61-0.29,1.23-0.57,1.85-0.86c0.66-0.32,1.31-0.65,1.96-0.96c0.05-0.02,0.13-0.02,0.18,0
			c0.59,0.27,1.17,0.55,1.76,0.83c0.31,0.15,0.62,0.3,0.93,0.45c0.76,0.36,1.51,0.72,2.27,1.08c0.54,0.25,1.08,0.49,1.61,0.74
			c0.29,0.14,0.57,0.29,0.87,0.42c0.46,0.21,0.93,0.41,1.4,0.63c0.4,0.19,0.8,0.39,1.2,0.58c0.99,0.46,1.97,0.92,2.96,1.38
			c0.61,0.29,1.22,0.59,1.83,0.89c0.41,0.2,0.84,0.38,1.25,0.58c0.52,0.25,1.03,0.5,1.55,0.74c0.49,0.23,1,0.44,1.49,0.67
			c0.75,0.35,1.5,0.72,2.25,1.08c0.35,0.17,0.69,0.34,1.04,0.5c0.4,0.19,0.81,0.39,1.21,0.58c0.54,0.25,1.08,0.49,1.62,0.74
			c0.84,0.4,1.68,0.82,2.53,1.22c0.44,0.21,0.9,0.39,1.35,0.6c0.31,0.14,0.61,0.32,0.92,0.47c0.32,0.15,0.63,0.3,0.96,0.43
			c0.23,0.1,0.31,0.29,0.33,0.5c0.04,0.57,0.04,1.14,0.08,1.71c0.03,0.56,0.1,1.12,0.13,1.69c0.02,0.37,0,0.74,0.01,1.1
			c0,0.11,0.05,0.21,0.07,0.32C70.46,24.47,70.46,26.21,70.46,27.95z M38.73,73.71c0.21-0.05,0.4-0.07,0.57-0.13
			c0.41-0.12,0.82-0.26,1.23-0.39c0.41-0.13,0.83-0.23,1.24-0.38c0.58-0.21,1.14-0.44,1.71-0.67c0.59-0.24,1.19-0.47,1.76-0.74
			c0.72-0.34,1.43-0.72,2.14-1.09c0.52-0.28,1.04-0.57,1.55-0.87c0.53-0.33,1.05-0.68,1.57-1.03c0.36-0.25,0.72-0.5,1.07-0.76
			c0.35-0.26,0.69-0.53,1.03-0.8c0.51-0.42,1.03-0.84,1.53-1.27c0.31-0.26,0.6-0.54,0.88-0.82c0.55-0.55,1.1-1.11,1.63-1.68
			c0.47-0.5,0.93-1.03,1.39-1.54c0.14-0.15,0.27-0.3,0.4-0.46c0.29-0.37,0.57-0.74,0.85-1.12c0.34-0.47,0.68-0.95,1.01-1.42
			c0.32-0.46,0.65-0.92,0.95-1.39c0.36-0.58,0.7-1.17,1.04-1.76c0.28-0.48,0.55-0.97,0.81-1.47c0.24-0.46,0.47-0.92,0.69-1.39
			c0.3-0.65,0.59-1.3,0.87-1.95c0.2-0.46,0.38-0.93,0.57-1.4c0.17-0.42,0.32-0.84,0.48-1.26c0.14-0.37,0.27-0.74,0.4-1.11
			c0.08-0.22,0.16-0.45,0.23-0.68c0.11-0.36,0.22-0.72,0.33-1.08c0.08-0.26,0.16-0.51,0.23-0.77c0.08-0.3,0.15-0.61,0.22-0.92
			c0.11-0.46,0.23-0.92,0.35-1.38c0.04-0.14,0.08-0.27,0.12-0.41c0.06-0.23,0.11-0.47,0.16-0.7c0.06-0.26,0.1-0.53,0.16-0.79
			c0.06-0.29,0.13-0.58,0.19-0.87c0.03-0.17,0.05-0.35,0.07-0.53c0.02-0.15,0.05-0.3,0.08-0.46c0.04-0.2,0.09-0.4,0.12-0.61
			c0.03-0.22,0.04-0.45,0.08-0.67c0.06-0.37,0.14-0.75,0.2-1.12c0.06-0.35,0.1-0.71,0.14-1.06c0.05-0.41,0.1-0.83,0.14-1.24
			c0.05-0.48,0.1-0.96,0.14-1.44c0.05-0.62,0.11-1.25,0.14-1.88c0.04-0.93,0.05-1.86,0.07-2.78c0-0.16,0.01-0.33,0.01-0.49
			c0-0.86,0.02-1.73,0.01-2.59c-0.02-1.44-0.03-2.88-0.15-4.32c-0.05-0.53-0.05-1.06-0.08-1.59c0-0.06-0.07-0.15-0.13-0.18
			c-0.94-0.45-1.88-0.9-2.82-1.34c-0.72-0.34-1.44-0.67-2.16-1.01c-0.8-0.38-1.6-0.76-2.39-1.14c-0.44-0.21-0.89-0.41-1.33-0.62
			c-0.9-0.43-1.79-0.86-2.69-1.29c-0.73-0.34-1.46-0.67-2.19-1.01c-0.46-0.22-0.92-0.45-1.38-0.67c-0.8-0.38-1.61-0.76-2.41-1.14
			c-0.25-0.12-0.49-0.25-0.74-0.36c-0.9-0.42-1.79-0.84-2.69-1.26c-0.54-0.25-1.08-0.48-1.62-0.73c-0.36-0.17-0.71-0.35-1.07-0.52
			c-0.66-0.32-1.33-0.63-1.99-0.95c-0.69-0.33-1.38-0.65-2.08-0.98c-0.26-0.12-0.52-0.24-0.78-0.36c-0.39-0.18-0.77-0.36-1.16-0.55
			c-0.19-0.09-0.37-0.19-0.56-0.27c-0.06-0.02-0.14-0.01-0.2,0.01c-0.35,0.16-0.7,0.33-1.04,0.49c-0.76,0.36-1.52,0.72-2.28,1.07
			c-0.43,0.2-0.86,0.41-1.29,0.62c-0.76,0.36-1.52,0.71-2.28,1.07c-0.8,0.38-1.6,0.77-2.4,1.15c-0.63,0.3-1.27,0.59-1.9,0.88
			c-0.68,0.32-1.35,0.64-2.03,0.96c-0.62,0.29-1.24,0.59-1.86,0.88c-0.79,0.38-1.58,0.75-2.37,1.13c-0.58,0.28-1.17,0.55-1.75,0.82
			c-0.69,0.32-1.39,0.64-2.08,0.97c-0.76,0.36-1.52,0.72-2.29,1.08c-0.72,0.34-1.43,0.68-2.15,1.02c-0.68,0.32-1.36,0.65-2.05,0.97
			c-0.71,0.34-1.43,0.67-2.14,1.02c-0.08,0.04-0.18,0.13-0.19,0.2c-0.06,0.58-0.11,1.17-0.15,1.76c-0.03,0.45-0.05,0.91-0.07,1.36
			c-0.03,0.73-0.06,1.47-0.07,2.21c-0.01,1.09,0,2.17,0,3.26c0,0.28,0.01,0.56,0.03,0.84c0.04,0.74,0.07,1.48,0.11,2.22
			c0.02,0.49,0.05,0.97,0.07,1.46c0,0.02,0,0.03,0.01,0.05c0.04,0.43,0.09,0.85,0.13,1.28c0.03,0.31,0.05,0.62,0.07,0.93
			c0,0.01,0,0.02,0.01,0.03c0.04,0.3,0.09,0.6,0.13,0.9c0.03,0.27,0.05,0.54,0.08,0.81C8.94,35.7,8.97,35.87,9,36.05
			c0.04,0.23,0.08,0.46,0.12,0.7c0.03,0.22,0.04,0.44,0.08,0.65c0.06,0.34,0.14,0.67,0.2,1.01c0.06,0.31,0.1,0.62,0.15,0.93
			c0.02,0.14,0.06,0.27,0.09,0.4c0.04,0.18,0.08,0.36,0.12,0.53c0.03,0.16,0.07,0.31,0.1,0.47c0.06,0.26,0.12,0.52,0.18,0.78
			c0.05,0.24,0.1,0.49,0.16,0.73c0.08,0.31,0.18,0.61,0.26,0.92c0.08,0.3,0.14,0.61,0.23,0.91c0.13,0.44,0.27,0.88,0.41,1.32
			c0.12,0.38,0.23,0.75,0.35,1.12c0.14,0.43,0.27,0.86,0.43,1.29c0.24,0.65,0.5,1.28,0.76,1.92c0.24,0.59,0.47,1.18,0.73,1.76
			c0.32,0.71,0.66,1.41,1.01,2.1c0.3,0.6,0.62,1.18,0.95,1.77c0.32,0.57,0.67,1.13,1.01,1.69c0.18,0.3,0.38,0.59,0.57,0.89
			c0.21,0.31,0.43,0.62,0.64,0.93c0.19,0.27,0.39,0.54,0.58,0.81c0.25,0.34,0.49,0.68,0.74,1c0.24,0.31,0.49,0.6,0.74,0.9
			c0.44,0.51,0.87,1.04,1.33,1.52c0.66,0.68,1.34,1.35,2.03,2c0.47,0.44,0.96,0.87,1.45,1.28c0.44,0.37,0.9,0.72,1.35,1.08
			c0.38,0.3,0.76,0.6,1.17,0.87c0.67,0.45,1.36,0.87,2.05,1.29c0.49,0.3,0.98,0.58,1.48,0.85c0.48,0.26,0.97,0.5,1.46,0.74
			c0.39,0.19,0.78,0.38,1.18,0.55c0.48,0.2,0.96,0.39,1.45,0.58c0.31,0.12,0.63,0.24,0.95,0.35c0.39,0.14,0.79,0.27,1.18,0.41
			c0.15,0.05,0.29,0.11,0.44,0.15c0.28,0.09,0.57,0.17,0.85,0.25C38.25,73.58,38.5,73.65,38.73,73.71z"/>
		<path d="M65.9,21.3c0.02,0.52,0.04,1.04,0.06,1.55c0.02,0.45,0.03,0.91,0.07,1.36c0.15,1.8,0.04,3.6,0.06,5.4
			c0.01,0.66-0.08,1.32-0.12,1.99c0,0.03-0.01,0.06-0.01,0.09c-0.02,0.5-0.04,1-0.08,1.5c-0.03,0.34-0.09,0.69-0.13,1.03
			c-0.03,0.21-0.05,0.43-0.07,0.64c-0.03,0.29-0.04,0.58-0.08,0.86c-0.03,0.27-0.08,0.55-0.12,0.82c-0.03,0.2-0.05,0.41-0.09,0.61
			c-0.04,0.23-0.08,0.46-0.12,0.7c-0.03,0.19-0.05,0.38-0.09,0.56c-0.06,0.34-0.14,0.68-0.2,1.03c-0.03,0.16-0.05,0.32-0.08,0.48
			c-0.06,0.29-0.13,0.58-0.19,0.87c-0.03,0.14-0.06,0.28-0.09,0.42c-0.07,0.28-0.14,0.55-0.2,0.83c-0.05,0.24-0.09,0.48-0.15,0.72
			c-0.05,0.2-0.11,0.4-0.16,0.59c-0.06,0.21-0.12,0.41-0.19,0.62c-0.07,0.22-0.13,0.43-0.2,0.65c-0.07,0.25-0.14,0.49-0.22,0.74
			c-0.11,0.35-0.23,0.69-0.34,1.03c-0.14,0.41-0.28,0.83-0.43,1.24c-0.18,0.48-0.37,0.96-0.57,1.44c-0.28,0.66-0.58,1.31-0.88,1.96
			c-0.22,0.47-0.46,0.94-0.7,1.41c-0.24,0.47-0.48,0.93-0.74,1.39c-0.42,0.71-0.86,1.41-1.31,2.1c-0.3,0.47-0.61,0.94-0.95,1.38
			c-0.47,0.62-0.96,1.21-1.44,1.81c-0.77,0.96-1.62,1.84-2.5,2.69c-0.37,0.36-0.74,0.72-1.14,1.06c-0.41,0.35-0.85,0.67-1.27,1.01
			c-0.43,0.34-0.85,0.68-1.29,1c-0.35,0.26-0.72,0.5-1.1,0.73c-0.54,0.34-1.08,0.68-1.64,1c-0.52,0.29-1.05,0.56-1.58,0.83
			c-0.41,0.21-0.83,0.4-1.25,0.58c-0.61,0.26-1.23,0.52-1.85,0.76c-0.57,0.22-1.13,0.43-1.71,0.62c-0.6,0.19-1.21,0.33-1.8,0.52
			c-0.22,0.07-0.41,0-0.61-0.05c-0.3-0.08-0.61-0.15-0.91-0.24c-0.31-0.09-0.63-0.19-0.94-0.29c-0.38-0.13-0.76-0.26-1.14-0.4
			c-0.54-0.21-1.08-0.41-1.61-0.64c-0.7-0.31-1.39-0.63-2.08-0.97c-0.67-0.34-1.32-0.7-1.97-1.07c-0.49-0.29-0.95-0.62-1.42-0.93
			c-0.24-0.16-0.5-0.31-0.74-0.48c-0.21-0.14-0.41-0.3-0.61-0.46c-0.27-0.2-0.53-0.41-0.8-0.61c-0.16-0.13-0.33-0.25-0.49-0.39
			c-0.61-0.55-1.21-1.1-1.81-1.67c-0.43-0.41-0.84-0.83-1.25-1.25c-0.29-0.3-0.57-0.61-0.85-0.92c-0.23-0.26-0.45-0.53-0.67-0.8
			c-0.41-0.52-0.83-1.03-1.21-1.57c-0.46-0.65-0.89-1.32-1.31-2c-0.39-0.62-0.76-1.26-1.12-1.9c-0.32-0.57-0.64-1.15-0.93-1.74
			c-0.3-0.6-0.58-1.22-0.85-1.84c-0.28-0.65-0.55-1.32-0.8-1.98c-0.22-0.56-0.43-1.13-0.62-1.7c-0.16-0.49-0.3-0.98-0.45-1.47
			c-0.11-0.36-0.23-0.71-0.33-1.06c-0.09-0.31-0.15-0.62-0.23-0.93c-0.09-0.34-0.19-0.68-0.27-1.03c-0.06-0.26-0.1-0.53-0.15-0.79
			c-0.06-0.26-0.12-0.51-0.18-0.76c-0.04-0.15-0.07-0.3-0.09-0.45c-0.03-0.19-0.04-0.38-0.08-0.56c-0.03-0.16-0.09-0.32-0.12-0.48
			c-0.03-0.15-0.06-0.29-0.08-0.44c-0.03-0.23-0.04-0.46-0.08-0.69c-0.03-0.21-0.08-0.41-0.12-0.62c0-0.02-0.01-0.03-0.01-0.05
			c-0.02-0.27-0.04-0.54-0.07-0.81c-0.03-0.28-0.08-0.57-0.13-0.85c0-0.01-0.01-0.02-0.01-0.03c-0.03-0.29-0.05-0.57-0.07-0.86
			c-0.03-0.35-0.05-0.69-0.07-1.04c-0.04-0.56-0.1-1.12-0.14-1.68c-0.06-0.97-0.11-1.95-0.13-2.92c-0.02-0.79,0.02-1.58,0.03-2.36
			c0.01-0.58,0.02-1.17,0.03-1.75c0.02-0.55,0.04-1.11,0.07-1.66c0.02-0.35,0.04-0.7,0.07-1.05c0.02-0.3,0.04-0.6,0.08-0.9
			c0.02-0.17,0.13-0.28,0.28-0.36c0.48-0.24,0.96-0.47,1.44-0.7c0.49-0.23,0.97-0.47,1.46-0.7c0.58-0.27,1.17-0.52,1.74-0.79
			c0.7-0.33,1.4-0.67,2.1-1.01c0.8-0.38,1.61-0.76,2.42-1.14c0.99-0.46,1.97-0.93,2.96-1.39c0.65-0.31,1.31-0.62,1.96-0.93
			c0.79-0.37,1.58-0.75,2.37-1.13c0.64-0.31,1.29-0.62,1.93-0.92c0.69-0.33,1.38-0.65,2.08-0.98c0.84-0.39,1.68-0.77,2.52-1.16
			c0.55-0.26,1.09-0.52,1.64-0.78c0.39-0.19,0.79-0.38,1.18-0.57c0.26-0.12,0.52-0.25,0.78-0.35c0.1-0.04,0.24-0.04,0.34,0
			c0.31,0.13,0.61,0.29,0.92,0.43c0.35,0.16,0.71,0.29,1.06,0.46c0.5,0.24,0.98,0.5,1.48,0.73c0.52,0.25,1.06,0.48,1.58,0.72
			c0.71,0.33,1.42,0.68,2.13,1.01c0.37,0.18,0.74,0.35,1.11,0.52c0.36,0.17,0.73,0.33,1.09,0.5c0.66,0.3,1.32,0.61,1.97,0.92
			c0.75,0.36,1.5,0.74,2.26,1.1c0.44,0.21,0.88,0.39,1.32,0.59c0.31,0.14,0.61,0.3,0.92,0.45c0.52,0.25,1.05,0.5,1.57,0.75
			c0.31,0.15,0.62,0.3,0.94,0.44c0.9,0.42,1.8,0.83,2.7,1.26c0.49,0.23,0.98,0.48,1.47,0.72c0.4,0.2,0.8,0.39,1.21,0.58
			c0.85,0.4,1.69,0.8,2.54,1.2c0.04,0.02,0.08,0.02,0.12,0.04c0.49,0.21,0.56,0.31,0.56,0.85c0,0.07,0,0.14,0,0.21
			C65.89,21.3,65.9,21.3,65.9,21.3z M64.76,21.8C64.76,21.8,64.76,21.8,64.76,21.8c0.01-0.11,0.03-0.23,0-0.33
			c-0.03-0.1-0.08-0.24-0.17-0.29c-0.29-0.17-0.6-0.32-0.9-0.46c-0.2-0.1-0.41-0.19-0.61-0.28c-0.55-0.26-1.09-0.52-1.64-0.77
			c-0.38-0.18-0.78-0.35-1.16-0.53c-0.85-0.4-1.7-0.82-2.55-1.22c-0.51-0.24-1.03-0.48-1.55-0.72c-0.77-0.36-1.54-0.71-2.3-1.08
			c-0.62-0.29-1.23-0.6-1.85-0.89c-0.65-0.31-1.31-0.61-1.97-0.92c-0.84-0.4-1.69-0.79-2.53-1.19c-0.43-0.2-0.85-0.41-1.28-0.61
			c-0.65-0.3-1.31-0.59-1.96-0.89c-0.37-0.17-0.73-0.36-1.1-0.53c-0.73-0.35-1.46-0.69-2.19-1.03c-0.64-0.3-1.28-0.62-1.92-0.91
			c-0.15-0.07-0.32-0.16-0.5-0.07c-0.71,0.33-1.41,0.67-2.12,1c-0.44,0.21-0.88,0.4-1.31,0.61c-0.8,0.38-1.6,0.78-2.4,1.16
			c-0.43,0.2-0.85,0.4-1.28,0.6c-0.4,0.19-0.81,0.37-1.21,0.56c-0.49,0.23-0.98,0.47-1.46,0.7c-0.42,0.2-0.85,0.39-1.27,0.59
			c-0.61,0.29-1.21,0.59-1.82,0.88c-0.63,0.3-1.27,0.58-1.9,0.88c-0.5,0.24-0.99,0.49-1.49,0.73c-0.69,0.32-1.39,0.63-2.09,0.95
			c-0.59,0.28-1.17,0.56-1.76,0.84c-0.74,0.35-1.49,0.7-2.23,1.05c-0.65,0.31-1.3,0.63-1.95,0.95c-0.43,0.21-0.87,0.41-1.3,0.63
			c-0.07,0.04-0.14,0.15-0.15,0.23c-0.06,0.71-0.11,1.42-0.14,2.13c-0.04,0.77-0.07,1.54-0.07,2.31c0.01,1.71,0.04,3.42,0.07,5.13
			c0,0.04,0.01,0.08,0.01,0.12c0.04,0.54,0.09,1.09,0.13,1.63c0.03,0.36,0.05,0.73,0.07,1.09c0,0.02,0.01,0.03,0.01,0.05
			c0.04,0.32,0.09,0.64,0.13,0.96c0.03,0.29,0.05,0.59,0.07,0.88c0,0.01,0,0.02,0.01,0.03c0.04,0.22,0.1,0.44,0.13,0.66
			c0.04,0.25,0.05,0.5,0.07,0.76c0,0.02,0.01,0.05,0.02,0.07c0.04,0.18,0.09,0.37,0.12,0.55c0.03,0.2,0.05,0.4,0.08,0.6
			c0.02,0.16,0.06,0.33,0.09,0.49c0.06,0.29,0.13,0.57,0.18,0.86c0.03,0.16,0.04,0.33,0.08,0.49c0.06,0.25,0.14,0.49,0.2,0.74
			c0.08,0.34,0.14,0.69,0.22,1.03c0.11,0.44,0.22,0.89,0.35,1.33c0.13,0.43,0.28,0.86,0.41,1.29c0.13,0.41,0.23,0.83,0.37,1.23
			c0.18,0.53,0.36,1.05,0.56,1.56c0.18,0.47,0.37,0.94,0.58,1.41c0.24,0.55,0.49,1.1,0.75,1.64c0.28,0.58,0.56,1.16,0.86,1.72
			c0.25,0.48,0.53,0.94,0.81,1.41c0.25,0.42,0.51,0.84,0.76,1.26c0.15,0.25,0.31,0.49,0.47,0.74c0.12,0.17,0.24,0.34,0.36,0.51
			c0.22,0.3,0.44,0.59,0.66,0.89c0.19,0.26,0.38,0.52,0.58,0.78c0.15,0.19,0.31,0.36,0.46,0.54c0.36,0.43,0.71,0.87,1.09,1.29
			c0.39,0.43,0.82,0.83,1.23,1.24c0.39,0.38,0.79,0.76,1.2,1.12c0.37,0.33,0.76,0.63,1.14,0.94c0.16,0.13,0.32,0.26,0.49,0.39
			c0.25,0.19,0.5,0.36,0.74,0.55c0.25,0.18,0.5,0.38,0.76,0.55c0.36,0.23,0.72,0.45,1.08,0.67c0.38,0.23,0.77,0.46,1.16,0.68
			c0.24,0.13,0.48,0.25,0.72,0.37c0.45,0.23,0.89,0.46,1.34,0.68c0.41,0.19,0.82,0.36,1.23,0.54c0.3,0.13,0.59,0.26,0.89,0.37
			c0.32,0.12,0.64,0.22,0.96,0.33c0.39,0.13,0.78,0.26,1.17,0.38c0.28,0.09,0.56,0.16,0.84,0.24c0.2,0.06,0.37,0.14,0.61,0.06
			c0.44-0.16,0.91-0.23,1.35-0.38c0.67-0.22,1.33-0.45,1.99-0.7c0.57-0.22,1.14-0.45,1.7-0.71c0.83-0.4,1.65-0.83,2.46-1.26
			c0.4-0.21,0.8-0.44,1.19-0.68c0.34-0.21,0.67-0.43,1-0.66c0.45-0.31,0.89-0.63,1.33-0.95c0.28-0.21,0.55-0.43,0.81-0.66
			c0.42-0.35,0.85-0.68,1.24-1.05c0.59-0.56,1.16-1.14,1.73-1.72c0.42-0.43,0.85-0.87,1.24-1.32c0.36-0.42,0.69-0.87,1.04-1.31
			c0.25-0.31,0.5-0.62,0.73-0.95c0.34-0.48,0.66-0.97,0.98-1.46c0.36-0.56,0.72-1.13,1.06-1.71c0.29-0.5,0.57-1.02,0.83-1.54
			c0.3-0.59,0.59-1.18,0.87-1.79c0.27-0.6,0.52-1.2,0.77-1.81c0.08-0.18,0.15-0.36,0.22-0.54c0.11-0.3,0.22-0.61,0.33-0.91
			c0.08-0.22,0.16-0.43,0.24-0.64c0.09-0.25,0.17-0.51,0.25-0.76c0.08-0.26,0.17-0.51,0.24-0.77c0.09-0.29,0.17-0.58,0.25-0.87
			c0.06-0.19,0.12-0.38,0.17-0.58c0.08-0.31,0.15-0.62,0.23-0.93c0.09-0.33,0.18-0.66,0.26-1c0.07-0.29,0.13-0.59,0.2-0.89
			c0.03-0.15,0.06-0.29,0.09-0.44c0.03-0.17,0.05-0.35,0.08-0.53c0.02-0.13,0.05-0.26,0.08-0.39c0.04-0.18,0.09-0.36,0.12-0.54
			c0.03-0.21,0.04-0.43,0.08-0.64c0.06-0.36,0.14-0.72,0.2-1.08c0.06-0.35,0.1-0.71,0.14-1.06c0.05-0.4,0.1-0.79,0.14-1.19
			c0.05-0.49,0.1-0.98,0.14-1.47c0.03-0.32,0.05-0.64,0.07-0.96c0.03-0.42,0.05-0.85,0.07-1.27c0.03-0.74,0.07-1.47,0.07-2.21
			c-0.01-1.2-0.04-2.41-0.06-3.61c-0.01-0.37,0-0.75-0.02-1.12C64.85,23.06,64.8,22.43,64.76,21.8z"/>
		<path d="M44.18,57.3c-2.49,0-4.98,0-7.47,0c-1.51,0-3.03-0.02-4.54-0.02c-2.11,0-4.22,0.03-6.33,0.02c-0.69,0-1.24-0.3-1.55-0.93
			c-0.11-0.23-0.18-0.51-0.18-0.76c-0.01-1.99-0.02-3.97,0-5.96c0-0.37,0.07-0.75,0.14-1.12c0.06-0.33,0.11-0.67,0.23-0.98
			c0.16-0.4,0.38-0.77,0.59-1.15c0.23-0.41,0.54-0.77,0.88-1.09c0.55-0.51,1.17-0.92,1.85-1.2c0.34-0.14,0.71-0.21,1.07-0.3
			c0.47-0.13,0.95-0.15,1.43-0.14c0.55,0.01,1.1-0.02,1.65,0.01c0.28,0.01,0.44-0.12,0.6-0.29c0.28-0.29,0.58-0.57,0.86-0.86
			c0.23-0.24,0.47-0.47,0.66-0.73c0.08-0.11,0.07-0.28,0.08-0.43c0.01-0.17-0.01-0.33,0.01-0.5c0.02-0.22-0.05-0.38-0.21-0.53
			c-0.18-0.17-0.36-0.36-0.53-0.53c-0.37-0.37-0.7-0.77-0.96-1.23c-0.23-0.41-0.47-0.82-0.65-1.25c-0.15-0.35-0.23-0.72-0.32-1.09
			c-0.09-0.36-0.14-0.73-0.21-1.1c0-0.02,0-0.05-0.01-0.07c-0.01-0.24-0.09-0.31-0.32-0.28c-0.15,0.01-0.31,0.05-0.45,0.03
			c-0.35-0.05-0.72-0.02-1.05-0.19c-0.42-0.21-0.74-0.52-0.9-0.97c-0.05-0.15-0.08-0.33-0.08-0.49c-0.01-1.17-0.01-2.35,0-3.52
			c0-0.34,0.13-0.63,0.34-0.89c0.09-0.11,0.08-0.18,0.01-0.3c-0.18-0.31-0.34-0.63-0.51-0.94c-0.23-0.44-0.46-0.89-0.7-1.33
			c-0.21-0.4-0.41-0.81-0.63-1.2c-0.15-0.27-0.11-0.51,0.03-0.77c0.34-0.64,0.66-1.29,0.99-1.93c0.16-0.32,0.31-0.65,0.47-0.98
			c0.17-0.34,0.36-0.68,0.53-1.02c0.16-0.32,0.3-0.66,0.47-0.98c0.17-0.33,0.33-0.66,0.54-0.97c0.09-0.13,0.27-0.21,0.42-0.28
			c0.31-0.12,0.64-0.21,0.96-0.32c0.37-0.13,0.75-0.26,1.12-0.39c0.37-0.13,0.74-0.27,1.11-0.4c0.31-0.11,0.63-0.2,0.94-0.31
			c0.29-0.1,0.58-0.2,0.88-0.3c0.38-0.13,0.76-0.27,1.15-0.4c0.37-0.13,0.74-0.27,1.11-0.41c0.4-0.14,0.79-0.3,1.2-0.42
			c0.1-0.03,0.23,0.03,0.35,0.07c0.54,0.18,1.08,0.37,1.62,0.55c0.43,0.15,0.85,0.31,1.27,0.46c0.31,0.11,0.63,0.2,0.95,0.31
			c0.23,0.08,0.45,0.16,0.68,0.24c0.37,0.13,0.74,0.26,1.11,0.39c0.37,0.13,0.74,0.27,1.11,0.4c0.38,0.13,0.78,0.23,1.16,0.38
			c0.32,0.12,0.7,0.13,0.9,0.47c0.12,0.19,0.22,0.39,0.32,0.59c0.3,0.6,0.59,1.2,0.89,1.8c0.44,0.89,0.9,1.77,1.34,2.66
			c0.18,0.35,0.34,0.72,0.52,1.07c0.07,0.15-0.01,0.26-0.07,0.38c-0.29,0.58-0.58,1.15-0.88,1.72c-0.2,0.38-0.41,0.75-0.61,1.13
			c-0.15,0.27-0.29,0.55-0.42,0.83c-0.02,0.04-0.01,0.1,0.01,0.14c0.23,0.34,0.39,0.7,0.39,1.13c-0.01,1.07,0.01,2.14-0.01,3.21
			c-0.01,0.47-0.13,0.92-0.49,1.25c-0.28,0.26-0.62,0.39-1,0.46c-0.36,0.06-0.72,0.03-1.08,0.01c-0.24-0.02-0.3,0.05-0.32,0.28
			c-0.02,0.31-0.03,0.63-0.09,0.93c-0.06,0.3-0.16,0.6-0.26,0.9c-0.11,0.32-0.22,0.63-0.36,0.93c-0.16,0.33-0.35,0.65-0.55,0.95
			c-0.38,0.59-0.85,1.12-1.39,1.58c-0.17,0.14-0.28,0.32-0.25,0.58c0.03,0.3,0.01,0.61,0.01,0.91c0,0.18,0.06,0.32,0.19,0.45
			c0.43,0.43,0.85,0.86,1.29,1.28c0.07,0.07,0.2,0.12,0.3,0.12c0.77,0,1.54-0.02,2.31,0c0.28,0,0.55,0.1,0.83,0.12
			c0.46,0.03,0.87,0.21,1.28,0.37c0.31,0.12,0.61,0.3,0.89,0.49c0.3,0.2,0.59,0.42,0.86,0.66c0.21,0.18,0.4,0.4,0.56,0.62
			c0.21,0.29,0.41,0.6,0.57,0.93c0.17,0.34,0.31,0.69,0.43,1.05c0.27,0.83,0.28,1.69,0.28,2.54c0,1.43,0,2.85-0.01,4.28
			c0,0.41-0.03,0.82-0.06,1.22c-0.04,0.49-0.54,1.09-1.03,1.2c-0.33,0.07-0.66,0.13-0.99,0.13c-1.29,0.01-2.58-0.01-3.87-0.01
			c-1.12,0-2.24,0-3.37,0C44.18,57.29,44.18,57.29,44.18,57.3z M32.47,28.51c0,0-0.01,0.01-0.01,0.02
			c-0.02,0.42-0.06,0.85-0.06,1.27c-0.01,0.82,0.02,1.64-0.01,2.45c-0.03,0.82,0.12,1.63,0.02,2.45c0,0.02,0,0.03,0,0.05
			c0.04,0.3,0.07,0.6,0.12,0.89c0.06,0.32,0.12,0.65,0.23,0.95c0.17,0.44,0.37,0.87,0.61,1.27c0.2,0.34,0.43,0.67,0.7,0.96
			c0.45,0.51,0.96,0.95,1.55,1.28c0.35,0.19,0.7,0.39,1.08,0.52c0.37,0.14,0.76,0.21,1.14,0.29c0.31,0.06,0.63,0.11,0.94,0.13
			c0.22,0.01,0.45-0.06,0.67-0.06c0.33,0,0.64-0.05,0.95-0.14c0.41-0.13,0.84-0.22,1.24-0.38c0.58-0.23,1.09-0.61,1.57-1.01
			c0.46-0.37,0.85-0.83,1.18-1.32c0.36-0.53,0.62-1.11,0.81-1.73c0.13-0.4,0.21-0.82,0.25-1.23c0.06-0.71,0.05-1.44,0.06-2.15
			c0-0.29-0.02-0.57-0.02-0.86c0-0.92,0-1.85,0-2.77c0-0.26,0-0.51,0-0.77c0-0.1-0.02-0.2-0.03-0.34c-0.41,0.47-0.91,0.73-1.4,1.01
			c-0.61,0.36-1.28,0.6-1.96,0.78c-0.47,0.13-0.95,0.26-1.44,0.34c-0.46,0.08-0.93,0.13-1.4,0.14c-0.64,0.01-1.28-0.04-1.92-0.06
			c-0.02,0-0.05-0.01-0.07-0.01c-0.24-0.04-0.48-0.08-0.71-0.12c-0.26-0.05-0.52-0.09-0.77-0.16c-0.25-0.07-0.49-0.16-0.73-0.26
			c-0.44-0.19-0.9-0.37-1.32-0.6C33.3,29.11,32.9,28.8,32.47,28.51z M38.92,23.28c2.13,0,4.27-0.01,6.4,0c0.5,0,0.99-0.03,1.5,0.05
			c0.3,0.05,0.72,0.54,0.72,0.82c0,0.78,0,1.57,0,2.35c0,0.26-0.28,0.64-0.53,0.72c-0.33,0.11-0.35,0.14-0.35,0.48
			c0,0.04,0,0.08,0,0.12c0,0.23,0.03,0.26,0.26,0.26c0.3-0.01,0.61-0.02,0.91-0.02c0.19,0,0.27-0.09,0.35-0.25
			c0.15-0.31,0.31-0.61,0.48-0.92c0.16-0.3,0.33-0.58,0.49-0.88c0.16-0.3,0.29-0.61,0.46-0.9c0.19-0.31,0.28-0.6,0.05-0.92
			c-0.03-0.05-0.06-0.1-0.08-0.15c-0.34-0.68-0.69-1.36-1.03-2.04c-0.26-0.52-0.52-1.04-0.78-1.56c-0.16-0.32-0.28-0.65-0.46-0.95
			c-0.09-0.17-0.18-0.36-0.41-0.42c-0.26-0.07-0.52-0.18-0.77-0.28c-0.31-0.11-0.62-0.23-0.94-0.33c-0.44-0.15-0.88-0.29-1.32-0.44
			c-0.32-0.11-0.64-0.22-0.96-0.34c-0.37-0.13-0.74-0.26-1.12-0.4c-0.28-0.1-0.56-0.21-0.84-0.3c-0.39-0.13-0.78-0.27-1.17-0.39
			c-0.27-0.09-0.55-0.23-0.82-0.23c-0.28,0-0.56,0.14-0.84,0.23c-0.38,0.12-0.76,0.26-1.13,0.39c-0.37,0.13-0.75,0.26-1.12,0.39
			c-0.22,0.08-0.43,0.16-0.65,0.24c-0.4,0.14-0.79,0.27-1.19,0.4c-0.31,0.1-0.62,0.2-0.93,0.31c-0.31,0.1-0.62,0.21-0.92,0.32
			c-0.3,0.1-0.6,0.22-0.91,0.31c-0.3,0.09-0.5,0.28-0.64,0.54c-0.12,0.23-0.21,0.48-0.32,0.72c-0.22,0.43-0.45,0.86-0.67,1.29
			c-0.48,0.95-0.96,1.89-1.42,2.85c-0.06,0.12-0.06,0.29-0.04,0.43c0.02,0.11,0.1,0.21,0.16,0.32c0.48,0.92,0.96,1.85,1.45,2.77
			c0.07,0.13,0.25,0.25,0.33,0.23c0.07-0.02,0.14-0.04,0.22-0.05c0.22-0.01,0.43,0.01,0.65-0.01c0.09-0.01,0.23-0.06,0.26-0.13
			c0.12-0.23-0.02-0.53-0.24-0.65c-0.38-0.21-0.61-0.49-0.6-0.97c0.03-0.71,0-1.42,0.01-2.14c0-0.28,0.17-0.5,0.35-0.68
			c0.18-0.18,0.43-0.21,0.68-0.21C33.94,23.28,36.43,23.28,38.92,23.28z M30.86,56.11c1.69,0,3.38,0,5.07,0c0.3,0,0.39-0.1,0.41-0.4
			c0.01-0.2,0.05-0.4,0.08-0.6c0.02-0.16,0.05-0.32,0.08-0.48c0.04-0.21,0.09-0.41,0.12-0.62c0.03-0.22,0.04-0.45,0.08-0.67
			c0.06-0.36,0.17-0.71,0.19-1.06c0.02-0.31,0.15-0.63,0.02-0.96c-0.09-0.22-0.13-0.45-0.19-0.68c-0.06-0.24-0.11-0.48-0.17-0.71
			c-0.02-0.07-0.06-0.14-0.09-0.21c-0.06,0.03-0.14,0.05-0.18,0.1c-0.15,0.16-0.29,0.31-0.51,0.36c-0.12,0.03-0.25,0.1-0.36,0.08
			c-0.19-0.03-0.37-0.11-0.55-0.18c-0.29-0.12-0.39-0.4-0.52-0.65c-0.23-0.44-0.42-0.89-0.63-1.34c-0.28-0.59-0.57-1.17-0.85-1.76
			c-0.22-0.46-0.44-0.93-0.66-1.39c-0.02-0.05-0.09-0.1-0.13-0.1c-0.24-0.02-0.48-0.02-0.72-0.04c-0.76-0.04-1.52,0.01-2.28,0.11
			c-0.37,0.05-0.7,0.18-1.03,0.33c-0.36,0.16-0.68,0.37-0.99,0.6c-0.35,0.27-0.65,0.59-0.89,0.95c-0.24,0.38-0.42,0.79-0.61,1.2
			c-0.17,0.36-0.25,0.76-0.25,1.16c-0.01,2.16,0,4.31-0.01,6.47c0,0.33,0.18,0.48,0.49,0.47C27.47,56.11,29.16,56.11,30.86,56.11z
			 M41.11,49.76c-0.03,0.23-0.04,0.41-0.07,0.59c-0.02,0.16-0.06,0.32-0.09,0.47c-0.04,0.2-0.12,0.4-0.12,0.6
			c0,0.48,0.04,0.96,0.07,1.45c0,0.01,0,0.02,0,0.03c0.07,0.41,0.15,0.83,0.2,1.24c0.06,0.5,0.1,1,0.14,1.51
			c0.03,0.4,0.09,0.46,0.48,0.46c2.16,0,4.32,0,6.49,0c1.18,0,2.36,0.01,3.54,0c0.41-0.01,0.56-0.11,0.57-0.56c0-2.02,0-4.03,0-6.05
			c0-0.28-0.02-0.56-0.08-0.83c-0.06-0.3-0.15-0.6-0.28-0.88c-0.18-0.38-0.36-0.78-0.63-1.11c-0.43-0.53-0.94-0.99-1.56-1.3
			c-0.55-0.27-1.12-0.46-1.72-0.5c-0.83-0.04-1.67-0.01-2.51-0.01c-0.05,0-0.13,0.05-0.15,0.1c-0.15,0.31-0.29,0.63-0.44,0.94
			c-0.32,0.66-0.64,1.32-0.96,1.99c-0.28,0.59-0.56,1.18-0.85,1.76c-0.18,0.35-0.47,0.56-0.86,0.63c-0.24,0.04-0.47-0.05-0.68-0.17
			C41.44,50.01,41.3,49.89,41.11,49.76z M38.95,24.47c-2.37,0-4.74,0-7.12,0c-0.29,0-0.29,0-0.29,0.3c0,0.37,0.01,0.74,0,1.1
			c-0.01,0.3,0.03,0.35,0.35,0.35c0.69,0,1.38,0.01,2.07,0c0.91-0.01,1.81-0.04,2.72-0.04c3.17-0.01,6.33-0.01,9.5-0.02
			c0.16,0,0.21-0.06,0.21-0.22c-0.01-0.4,0-0.79,0-1.19c0-0.26-0.03-0.29-0.29-0.29C43.71,24.47,41.33,24.47,38.95,24.47z
			 M33.02,27.37c0.07,0.08,0.11,0.15,0.16,0.19c0.14,0.12,0.28,0.24,0.43,0.34c0.18,0.13,0.36,0.25,0.55,0.36
			c0.46,0.29,0.95,0.52,1.47,0.68c0.29,0.09,0.58,0.16,0.88,0.24c0.16,0.04,0.33,0.06,0.5,0.08c0.25,0.04,0.5,0.12,0.75,0.12
			c0.86,0.01,1.72,0.05,2.58-0.07c0.17-0.02,0.33-0.04,0.49-0.08c0.26-0.06,0.51-0.12,0.76-0.2c0.48-0.15,0.96-0.3,1.42-0.48
			c0.62-0.25,1.15-0.66,1.69-1.04c0.04-0.03,0.07-0.08,0.12-0.15C40.88,27.37,36.97,27.37,33.02,27.37z M42.09,49.04
			c0.06-0.07,0.11-0.11,0.14-0.17c0.13-0.28,0.25-0.56,0.38-0.83c0.26-0.54,0.54-1.08,0.8-1.62c0.31-0.64,0.61-1.29,0.9-1.93
			c0.03-0.06-0.01-0.18-0.06-0.23c-0.42-0.44-0.86-0.88-1.29-1.31c-0.08-0.08-0.14-0.08-0.22,0.01c-0.38,0.41-0.76,0.82-1.14,1.23
			c-0.56,0.59-1.13,1.18-1.69,1.77c-0.08,0.08-0.17,0.15-0.23,0.24c-0.04,0.06-0.05,0.18-0.01,0.23c0.13,0.18,0.28,0.34,0.43,0.5
			c0.53,0.55,1.06,1.1,1.58,1.66c0.07,0.08,0.13,0.17,0.19,0.25C41.94,48.89,42.01,48.95,42.09,49.04z M33.21,44.4
			c0.08,0.17,0.14,0.32,0.21,0.47c0.19,0.4,0.39,0.8,0.57,1.2c0.21,0.45,0.42,0.89,0.63,1.34c0.18,0.38,0.35,0.76,0.53,1.14
			c0.06,0.13,0.14,0.26,0.22,0.39c0.07,0.11,0.14,0.08,0.22-0.02c0.22-0.27,0.43-0.54,0.66-0.79c0.53-0.57,1.07-1.12,1.61-1.68
			c0.1-0.1,0.11-0.19,0-0.3c-0.37-0.38-0.72-0.77-1.09-1.16c-0.61-0.64-1.22-1.27-1.83-1.9c-0.23-0.24-0.24-0.24-0.48,0
			c-0.38,0.38-0.76,0.76-1.14,1.14C33.29,44.28,33.25,44.34,33.21,44.4z M35.19,41.32c0.11,0.4,0.21,0.6,0.51,0.91
			c0.5,0.53,1.01,1.06,1.51,1.58c0.14,0.15,0.3,0.29,0.44,0.45c0.32,0.33,0.63,0.67,0.94,1.01c0.14,0.15,0.24,0.15,0.38,0
			c0.22-0.23,0.42-0.47,0.64-0.7c0.66-0.69,1.32-1.37,1.98-2.06c0.29-0.31,0.58-0.62,0.87-0.92c0.04-0.04,0.07-0.08,0.1-0.12
			c0.01-0.03,0.02-0.08,0-0.09c-0.02-0.02-0.07-0.02-0.09-0.01c-0.25,0.1-0.49,0.22-0.74,0.31c-0.24,0.09-0.49,0.17-0.74,0.23
			c-0.23,0.06-0.47,0.11-0.7,0.15c-0.3,0.05-0.6,0.12-0.9,0.13c-0.61,0.02-1.22,0.03-1.81-0.13c-0.25-0.07-0.51-0.08-0.76-0.16
			c-0.35-0.11-0.68-0.26-1.03-0.39C35.61,41.44,35.42,41.39,35.19,41.32z M38.78,56.11c0.39,0,0.77-0.01,1.16,0
			c0.14,0,0.21-0.04,0.19-0.19c-0.05-0.37-0.1-0.73-0.14-1.1c-0.05-0.45-0.1-0.91-0.14-1.36c-0.03-0.32-0.05-0.63-0.07-0.95
			c-0.02-0.24-0.17-0.36-0.42-0.33c-0.16,0.02-0.31,0.04-0.47,0.04c-0.23-0.01-0.45-0.04-0.68-0.05c-0.13-0.01-0.18,0.06-0.2,0.19
			c-0.04,0.34-0.09,0.67-0.14,1.01c-0.04,0.27-0.09,0.53-0.13,0.79c-0.03,0.18-0.05,0.36-0.09,0.55c-0.04,0.2-0.09,0.39-0.12,0.59
			c-0.03,0.18-0.05,0.37-0.09,0.54c-0.05,0.22-0.03,0.27,0.2,0.27C38.02,56.11,38.4,56.11,38.78,56.11z M38.75,47.18
			c-0.43,0.45-0.85,0.88-1.26,1.33c-0.09,0.1-0.17,0.23-0.06,0.39c0.06,0.1,0.06,0.23,0.09,0.35c0.05,0.22,0.1,0.43,0.16,0.65
			c0.09,0.32,0.18,0.64,0.26,0.97c0.03,0.12,0.08,0.17,0.2,0.17c0.48,0,0.96,0,1.44,0c0.13,0,0.19-0.06,0.2-0.19
			c0.02-0.18,0.04-0.35,0.08-0.53c0.04-0.21,0.09-0.42,0.13-0.64c0.04-0.19,0.11-0.38,0.12-0.57c0.01-0.18,0.12-0.38-0.03-0.55
			c-0.24-0.27-0.49-0.53-0.73-0.8C39.15,47.57,38.95,47.38,38.75,47.18z M46.66,31.44c0,0.67,0,1.33,0,2c0,0.12,0.03,0.18,0.16,0.18
			c0.31-0.01,0.62,0.01,0.93-0.01c0.16-0.01,0.31-0.08,0.46-0.15c0.05-0.02,0.1-0.12,0.1-0.18c0.02-0.67,0.05-1.34,0.05-2.01
			c0-0.57-0.02-1.13-0.05-1.7c0-0.08-0.1-0.2-0.17-0.23c-0.13-0.06-0.29-0.08-0.43-0.08c-0.28-0.01-0.56,0-0.84-0.01
			c-0.15-0.01-0.2,0.03-0.2,0.19C46.67,30.11,46.66,30.77,46.66,31.44z M31.27,31.43c0-0.62,0-1.25,0-1.87
			c0-0.35-0.05-0.39-0.39-0.32c-0.05,0.01-0.1,0.01-0.16,0.01c-0.2,0-0.4-0.01-0.59,0.01c-0.35,0.02-0.51,0.2-0.52,0.55
			c-0.01,1.04-0.02,2.09-0.03,3.13c0,0.43,0.21,0.69,0.68,0.68c0.24-0.01,0.49,0,0.74,0c0.25,0,0.28-0.03,0.28-0.27
			C31.27,32.71,31.27,32.07,31.27,31.43z"/>
	</g>
</g>
</svg>
