<?xml version="1.0" encoding="utf-8"?>
<!-- Generator: Adobe Illustrator 26.3.1, SVG Export Plug-In . SVG Version: 6.00 Build 0)  -->
<svg version="1.1" id="Layer_1" xmlns="http://www.w3.org/2000/svg" xmlns:xlink="http://www.w3.org/1999/xlink" x="0px" y="0px"
	 viewBox="0 0 77.66 77.66" style="enable-background:new 0 0 77.66 77.66;" xml:space="preserve">
<style type="text/css">
	.st0{clip-path:url(#SVGID_00000059293164745548429070000010858828295771823490_);}
	.st1{clip-path:url(#SVGID_00000096780152007023361200000011306457530605189803_);}
	.st2{fill:#FFFFFF;}
	.st3{clip-path:url(#SVGID_00000166674299569537867900000001082347028097041811_);}
	.st4{opacity:0.83;fill:url(#SVGID_00000088123270771643357440000013860110996646074271_);}
	.st5{clip-path:url(#SVGID_00000112590489567253526660000005201360987913292172_);}
	.st6{clip-path:url(#SVGID_00000031914874280736869700000006968562924295087280_);}
	.st7{opacity:0.1;}
	.st8{fill:none;}
	.st9{fill:#C1C8E1;}
	.st10{fill:#E3E2E2;}
	.st11{fill:#055D91;}
	.st12{fill:#183A65;}
	.st13{clip-path:url(#SVGID_00000116922495037851033150000007211898309975337866_);}
	.st14{fill-rule:evenodd;clip-rule:evenodd;}
	.st15{fill-rule:evenodd;clip-rule:evenodd;fill:#E93638;}
	.st16{fill:#E93839;}
	.st17{clip-path:url(#SVGID_00000114752619895826536100000015925393321138562739_);}
	.st18{fill-rule:evenodd;clip-rule:evenodd;fill:#E93839;}
	.st19{fill:url(#SVGID_00000007413502547212660040000015113838296416126596_);}
	.st20{fill:url(#SVGID_00000035514840575113750830000006891919767856561795_);}
	.st21{opacity:0.2;clip-path:url(#SVGID_00000044151521507262312830000010291193517347534515_);}
	.st22{fill-rule:evenodd;clip-rule:evenodd;fill:#FFFFFF;}
	.st23{opacity:0.2;clip-path:url(#SVGID_00000006680864989741668030000006578234387637837719_);}
	.st24{clip-path:url(#SVGID_00000142867113300469269870000002145497484766961578_);}
	.st25{fill:url(#SVGID_00000047031412940394942730000009292269452432439223_);}
	.st26{fill:url(#SVGID_00000181770444734127002510000003723162594489896880_);}
	.st27{fill:url(#SVGID_00000004533803346893580980000002444167444555840131_);}
	.st28{fill:url(#SVGID_00000071552254146674626950000015498977012419480213_);}
	.st29{clip-path:url(#SVGID_00000079465611146686340530000014641526455674166441_);}
	.st30{clip-path:url(#SVGID_00000078728413049537981250000010088972043034291860_);}
	.st31{fill:#E9383A;}
	.st32{clip-path:url(#SVGID_00000030484730874919298500000016290488477594330801_);}
	.st33{clip-path:url(#SVGID_00000056390144775994837360000018405204829212839607_);}
	.st34{fill:url(#SVGID_00000155146470312048073460000008822570234531312310_);}
	.st35{fill:url(#SVGID_00000092415336036666515770000006178948083695448977_);}
	.st36{fill:url(#SVGID_00000002351301294188626280000005639040166567757195_);}
	.st37{fill:url(#SVGID_00000016776096481930440190000011662323528213079715_);}
	.st38{fill:none;stroke:#D1232D;stroke-width:3;stroke-miterlimit:10;}
	.st39{fill:#AD2E3F;}
	.st40{fill:#D51419;}
</style>
<g id="Wp5Wa0.tif">
	<g>
		<path d="M76.03,40.3c-0.03,0.1-0.06,0.2-0.08,0.31c-0.01,0.06,0,0.12,0,0.18c-0.03,0.53-0.04,1.07-0.08,1.6
			c-0.04,0.46-0.1,0.91-0.16,1.36c-0.05,0.35-0.1,0.71-0.16,1.06c-0.07,0.37-0.16,0.73-0.23,1.1c-0.07,0.34-0.1,0.69-0.18,1.03
			c-0.09,0.38-0.2,0.76-0.3,1.14c-0.06,0.23-0.11,0.47-0.18,0.7c-0.09,0.33-0.19,0.66-0.29,0.98c-0.12,0.39-0.24,0.78-0.36,1.17
			c-0.08,0.23-0.16,0.46-0.25,0.69c-0.18,0.46-0.36,0.92-0.55,1.37c-0.25,0.58-0.49,1.16-0.76,1.73c-0.33,0.7-0.68,1.39-1.04,2.08
			c-0.23,0.42-0.49,0.82-0.75,1.22c-0.46,0.71-0.91,1.41-1.39,2.11c-0.3,0.44-0.63,0.85-0.95,1.28c-0.42,0.55-0.81,1.12-1.26,1.64
			c-0.56,0.65-1.17,1.25-1.77,1.87c-0.52,0.53-1.04,1.07-1.58,1.57c-0.42,0.38-0.87,0.72-1.31,1.08c-0.31,0.26-0.62,0.52-0.94,0.77
			c-0.24,0.19-0.48,0.36-0.72,0.54c-0.34,0.24-0.67,0.49-1.02,0.72c-0.43,0.29-0.87,0.56-1.31,0.83c-0.45,0.27-0.89,0.55-1.36,0.79
			c-0.89,0.47-1.78,0.95-2.69,1.38c-0.69,0.33-1.4,0.62-2.11,0.9c-0.63,0.25-1.27,0.46-1.92,0.67c-0.45,0.15-0.9,0.28-1.36,0.41
			c-0.45,0.13-0.89,0.27-1.34,0.39c-0.42,0.1-0.85,0.17-1.28,0.26c-0.34,0.07-0.68,0.16-1.02,0.23c-0.21,0.04-0.42,0.06-0.63,0.09
			c-0.26,0.04-0.52,0.1-0.78,0.14c-0.02,0-0.04,0.01-0.06,0.01c-0.35,0.03-0.7,0.05-1.06,0.09c-0.47,0.05-0.94,0.11-1.41,0.15
			C41.01,75.97,40.62,76,40.24,76c-0.91,0.01-1.81,0.01-2.72,0c-0.42,0-0.83-0.03-1.24-0.06c-0.55-0.04-1.1-0.1-1.65-0.16
			c-0.43-0.05-0.87-0.1-1.3-0.16c-0.35-0.05-0.69-0.1-1.04-0.16c-0.34-0.06-0.67-0.15-1-0.22c-0.31-0.07-0.63-0.11-0.95-0.18
			c-0.36-0.08-0.71-0.19-1.07-0.29c-0.23-0.06-0.46-0.13-0.68-0.19c-0.31-0.09-0.63-0.17-0.94-0.27c-0.39-0.12-0.77-0.25-1.16-0.38
			c-0.3-0.11-0.59-0.22-0.89-0.34c-0.39-0.15-0.77-0.3-1.15-0.46c-0.32-0.13-0.64-0.27-0.96-0.42c-0.83-0.4-1.67-0.77-2.47-1.21
			c-0.84-0.46-1.66-0.97-2.47-1.48c-0.52-0.33-1.02-0.7-1.54-1.04c-0.76-0.5-1.46-1.09-2.16-1.67c-0.78-0.64-1.49-1.34-2.2-2.05
			c-0.12-0.12-0.26-0.21-0.37-0.33c-0.45-0.48-0.89-0.96-1.33-1.44c-0.23-0.25-0.46-0.5-0.67-0.76c-0.25-0.3-0.48-0.6-0.72-0.91
			c-0.21-0.28-0.42-0.56-0.64-0.84c-0.17-0.23-0.35-0.45-0.51-0.69c-0.31-0.46-0.6-0.94-0.9-1.4c-0.79-1.22-1.53-2.47-2.15-3.78
			c-0.32-0.67-0.61-1.36-0.9-2.05c-0.19-0.43-0.38-0.87-0.54-1.31c-0.21-0.59-0.4-1.2-0.59-1.8c-0.13-0.4-0.26-0.79-0.38-1.19
			c-0.07-0.23-0.12-0.47-0.18-0.7c-0.08-0.32-0.16-0.64-0.23-0.96c-0.07-0.3-0.12-0.61-0.18-0.91c-0.07-0.37-0.16-0.75-0.23-1.12
			c-0.04-0.22-0.06-0.44-0.09-0.67c-0.05-0.29-0.1-0.58-0.14-0.88c0-0.02-0.01-0.04-0.01-0.06c-0.03-0.36-0.05-0.72-0.08-1.08
			c-0.04-0.44-0.1-0.89-0.14-1.33c-0.01-0.07-0.01-0.13-0.01-0.2c0-1.3-0.01-2.59,0.01-3.89c0.01-0.45,0.09-0.9,0.14-1.35
			c0-0.03,0.01-0.05,0.01-0.08c0.03-0.41,0.04-0.83,0.09-1.24c0.03-0.3,0.1-0.6,0.15-0.9c0.04-0.23,0.05-0.46,0.09-0.69
			c0.04-0.23,0.09-0.46,0.14-0.69c0.04-0.19,0.06-0.39,0.1-0.58c0.04-0.2,0.1-0.41,0.14-0.61c0.03-0.14,0.06-0.28,0.09-0.42
			c0.16-0.61,0.31-1.23,0.48-1.84c0.18-0.64,0.37-1.28,0.58-1.91c0.16-0.47,0.35-0.93,0.53-1.39c0.14-0.35,0.28-0.7,0.42-1.04
			c0.18-0.43,0.47-0.71,0.95-0.81c0.56-0.11,1.13,0.29,1.31,0.7c0.12,0.26,0.13,0.53,0.02,0.81c-0.17,0.42-0.33,0.86-0.48,1.29
			C6.26,26.58,6.12,27,5.98,27.41c-0.13,0.37-0.26,0.74-0.38,1.11c-0.07,0.22-0.12,0.45-0.18,0.67c-0.09,0.33-0.2,0.67-0.29,1
			c-0.05,0.16-0.07,0.33-0.12,0.5c-0.07,0.28-0.15,0.57-0.22,0.85c-0.04,0.19-0.07,0.39-0.1,0.58c-0.05,0.27-0.11,0.54-0.15,0.81
			c-0.04,0.23-0.06,0.46-0.09,0.69c-0.04,0.29-0.09,0.58-0.13,0.86c-0.01,0.03-0.02,0.06-0.02,0.1c-0.03,0.38-0.05,0.77-0.09,1.15
			c-0.05,0.5-0.1,1.01-0.15,1.51c-0.01,0.07-0.01,0.13-0.01,0.2c0,0.52-0.01,1.03,0,1.55c0.02,0.84,0.04,1.69,0.08,2.53
			c0.02,0.35,0.1,0.71,0.15,1.06c0.03,0.24,0.06,0.49,0.09,0.73c0.03,0.3,0.04,0.6,0.09,0.89c0.03,0.21,0.1,0.42,0.14,0.64
			c0.04,0.17,0.06,0.34,0.09,0.51c0.06,0.32,0.1,0.64,0.17,0.95c0.09,0.39,0.21,0.77,0.31,1.16c0.09,0.35,0.16,0.7,0.26,1.04
			c0.09,0.31,0.19,0.62,0.3,0.93c0.17,0.52,0.33,1.03,0.51,1.55c0.1,0.28,0.21,0.56,0.33,0.83c0.34,0.76,0.68,1.53,1.03,2.28
			c0.15,0.32,0.33,0.63,0.49,0.95c0.26,0.51,0.5,1.03,0.79,1.53c0.27,0.47,0.59,0.91,0.9,1.36c0.1,0.15,0.22,0.29,0.36,0.49
			c0.02-0.1,0.03-0.13,0.03-0.17c0-0.11-0.01-0.23-0.01-0.34c0-10.16,0-20.31,0.01-30.47c0-0.3,0.06-0.62,0.18-0.89
			c0.07-0.16,0.28-0.31,0.47-0.38c0.4-0.14,0.82-0.23,1.24-0.33c0.24-0.05,0.49-0.06,0.73-0.09c0.26-0.04,0.52-0.09,0.78-0.14
			c0.02,0,0.04-0.01,0.06-0.01c0.32-0.03,0.64-0.05,0.95-0.09c0.34-0.04,0.67-0.09,1-0.14c0.03,0,0.07-0.01,0.1-0.02
			c0.53-0.03,1.07-0.03,1.6-0.09c1.59-0.17,3.19-0.03,4.79-0.07c0.27-0.01,0.55,0.05,0.82,0.07c0.18,0.02,0.29-0.04,0.41-0.21
			c0.21-0.28,0.48-0.52,0.74-0.77c0.33-0.33,0.64-0.67,0.99-0.97c0.38-0.34,0.78-0.64,1.18-0.96c0.23-0.19,0.47-0.37,0.71-0.54
			c0.31-0.22,0.63-0.43,0.96-0.63c0.45-0.28,0.9-0.56,1.37-0.8c0.55-0.27,1.12-0.5,1.69-0.74c0.46-0.19,0.93-0.37,1.4-0.53
			c0.31-0.11,0.63-0.18,0.95-0.27c0.26-0.08,0.53-0.15,0.79-0.23c0.12-0.03,0.24-0.06,0.37-0.08c0.37-0.06,0.74-0.11,1.12-0.17
			c0.23-0.04,0.46-0.09,0.7-0.14c0.02,0,0.04-0.01,0.06-0.01c0.37-0.03,0.74-0.06,1.11-0.08c0.66-0.03,1.31-0.08,1.97-0.07
			c0.5,0.01,1.01,0.09,1.51,0.14c0.3,0.03,0.6,0.05,0.89,0.09c0.27,0.04,0.54,0.09,0.81,0.14c0.17,0.03,0.35,0.06,0.52,0.1
			c0.31,0.07,0.61,0.14,0.92,0.22c0.39,0.11,0.78,0.22,1.17,0.34c0.41,0.13,0.81,0.28,1.2,0.44c0.55,0.23,1.1,0.45,1.63,0.71
			c0.49,0.24,0.97,0.5,1.44,0.78c0.42,0.24,0.82,0.51,1.22,0.78c0.25,0.17,0.49,0.35,0.73,0.54c0.41,0.33,0.82,0.66,1.23,1
			c0.11,0.09,0.21,0.19,0.3,0.29c0.37,0.37,0.74,0.74,1.11,1.11c0.07,0.07,0.12,0.14,0.17,0.22c0.18,0.28,0.46,0.38,0.78,0.28
			c0.1-0.03,0.21-0.05,0.31-0.05c1.45,0,2.9-0.02,4.35,0c0.53,0.01,1.06,0.1,1.59,0.15c0.02,0,0.04,0,0.06,0.01
			c0.45,0.03,0.91,0.04,1.36,0.09c0.31,0.03,0.61,0.1,0.92,0.15c0.26,0.04,0.51,0.05,0.77,0.09c0.29,0.04,0.57,0.1,0.86,0.15
			c0.18,0.03,0.35,0.06,0.53,0.09c0.3,0.05,0.61,0.09,0.91,0.17c0.31,0.08,0.5,0.29,0.65,0.59c0.19,0.39,0.12,0.8,0.12,1.2
			c0.02,2.7,0.02,5.4,0.03,8.1c0.01,4.94,0.01,9.89,0.01,14.83c0,2.41,0,4.82,0,7.23c0,0.11-0.03,0.23-0.01,0.37
			c0.08-0.09,0.18-0.16,0.24-0.26c0.36-0.58,0.73-1.15,1.08-1.74c0.31-0.51,0.62-1.02,0.89-1.55c0.36-0.71,0.7-1.44,1.03-2.17
			c0.22-0.5,0.43-1,0.62-1.51c0.16-0.42,0.29-0.84,0.44-1.26c0.13-0.38,0.26-0.76,0.38-1.14c0.1-0.33,0.18-0.67,0.27-1.01
			c0.07-0.27,0.16-0.53,0.22-0.79c0.07-0.27,0.12-0.54,0.18-0.81c0.05-0.24,0.1-0.47,0.15-0.71c0.04-0.21,0.06-0.42,0.1-0.63
			c0.04-0.23,0.09-0.46,0.13-0.7c0.01-0.03,0.02-0.05,0.02-0.08c0.03-0.32,0.05-0.64,0.09-0.95c0.04-0.32,0.1-0.63,0.15-0.94
			c0-0.02,0.01-0.04,0.01-0.06c0.03-0.42,0.07-0.84,0.08-1.26c0.03-0.8,0.05-1.6,0.06-2.4c0-0.63-0.02-1.26-0.06-1.89
			c-0.03-0.57-0.1-1.13-0.16-1.69c-0.05-0.42-0.09-0.84-0.16-1.26c-0.06-0.37-0.15-0.73-0.23-1.1c-0.04-0.18-0.05-0.37-0.09-0.55
			c-0.07-0.35-0.15-0.69-0.23-1.04c-0.06-0.28-0.11-0.57-0.18-0.84c-0.09-0.34-0.2-0.68-0.3-1.02c-0.14-0.46-0.28-0.92-0.43-1.37
			c-0.11-0.34-0.24-0.67-0.36-1c-0.2-0.56-0.39-1.12-0.62-1.67c-0.33-0.82,0.25-1.46,0.9-1.6c0.44-0.09,0.89,0.1,1.15,0.46
			c0.36,0.49,0.52,1.08,0.76,1.62c0.27,0.61,0.45,1.26,0.66,1.9c0.15,0.44,0.28,0.89,0.4,1.34c0.1,0.35,0.17,0.71,0.25,1.07
			c0.07,0.29,0.16,0.57,0.23,0.86c0.07,0.32,0.11,0.65,0.18,0.97c0.04,0.21,0.1,0.41,0.14,0.61c0.04,0.18,0.06,0.37,0.09,0.55
			c0.03,0.24,0.06,0.48,0.09,0.73c0.04,0.3,0.1,0.6,0.15,0.9c0,0.02,0.01,0.04,0.01,0.06c0.03,0.4,0.06,0.8,0.08,1.19
			c0.03,0.53,0.06,1.07,0.09,1.6c0.01,0.08,0.05,0.16,0.07,0.24C76.03,38.42,76.03,39.36,76.03,40.3z M37.52,66.73
			c0.01-0.06,0.02-0.09,0.02-0.12c0-1.69,0-3.39-0.01-5.08c0-0.58-0.01-1.16,0-1.73c0-0.19-0.05-0.28-0.25-0.25
			c-0.1,0.01-0.2,0-0.3-0.02c-0.33-0.04-0.67-0.1-1-0.14c-0.23-0.03-0.46-0.06-0.69-0.09c-0.17-0.03-0.34-0.06-0.51-0.09
			c-0.19-0.04-0.37-0.1-0.55-0.14c-0.29-0.06-0.58-0.1-0.86-0.18c-0.32-0.09-0.64-0.19-0.95-0.31c-0.49-0.17-0.97-0.35-1.45-0.54
			c-0.32-0.13-0.61-0.31-0.94-0.42c-0.43-0.13-0.82-0.36-1.21-0.57c-0.45-0.25-0.89-0.52-1.33-0.79c-0.29-0.18-0.57-0.38-0.85-0.57
			c-0.18-0.13-0.35-0.28-0.52-0.43c-0.41-0.34-0.84-0.65-1.23-1.01c-0.53-0.5-1.04-1.01-1.55-1.54c-0.35-0.37-0.68-0.75-0.99-1.15
			c-0.32-0.41-0.6-0.84-0.89-1.27c-0.34-0.52-0.68-1.03-0.97-1.57c-0.3-0.56-0.56-1.15-0.82-1.73c-0.21-0.47-0.39-0.95-0.56-1.43
			c-0.13-0.36-0.23-0.74-0.34-1.11c-0.07-0.23-0.12-0.46-0.18-0.69c-0.07-0.28-0.16-0.56-0.21-0.84c-0.05-0.23-0.05-0.46-0.09-0.69
			c-0.07-0.46-0.17-0.92-0.23-1.39c-0.05-0.32-0.08-0.65-0.08-0.98c0.01-1.02,0.05-2.05,0.08-3.07c0-0.02,0.01-0.04,0.01-0.06
			c0.05-0.28,0.1-0.57,0.15-0.85c0.04-0.26,0.06-0.51,0.09-0.77c0.02-0.16,0.05-0.33,0.09-0.49c0.07-0.26,0.15-0.52,0.22-0.78
			c0.14-0.52,0.27-1.05,0.43-1.57c0.14-0.45,0.29-0.9,0.48-1.32c0.34-0.75,0.71-1.49,1.08-2.23c0.19-0.38,0.43-0.74,0.66-1.13
			c-0.08,0-0.15,0-0.22,0c-1.27,0.03-2.54,0.05-3.8,0.08c-0.43,0.01-0.85,0.05-1.28,0.08c-0.02,0-0.04,0.01-0.06,0.01
			c-0.35,0.05-0.69,0.11-1.04,0.15c-0.33,0.04-0.66,0.06-0.99,0.09c-0.01,0-0.03,0.01-0.04,0.01c-0.28,0.05-0.57,0.12-0.86,0.15
			c-0.28,0.03-0.41,0.14-0.4,0.43c0.01,0.48,0.02,0.95,0.02,1.43c0.02,1.73,0.05,3.47,0.05,5.2c0,5.45-0.01,10.9-0.01,16.34
			c0,2.03-0.02,4.07-0.03,6.1c-0.01,1.2-0.02,2.39-0.03,3.59c0,0.13,0.03,0.29,0.11,0.39c0.33,0.41,0.67,0.79,1.02,1.18
			c0.04,0.05,0.14,0.08,0.21,0.07c0.3-0.03,0.59-0.08,0.89-0.11c0.53-0.06,1.06-0.12,1.58-0.16c0.5-0.04,1-0.06,1.5-0.08
			c0.36-0.02,0.72-0.03,1.09-0.04c0.48-0.01,0.97-0.05,1.45-0.03c0.93,0.03,1.86,0.1,2.79,0.15c0.44,0.03,0.88,0.05,1.32,0.08
			c0.02,0,0.04,0.01,0.06,0.01c0.34,0.05,0.68,0.1,1.02,0.15c0.28,0.04,0.55,0.06,0.83,0.09c0.17,0.02,0.34,0.05,0.51,0.09
			c0.36,0.07,0.72,0.15,1.08,0.23c0.3,0.06,0.61,0.11,0.91,0.18c0.37,0.09,0.73,0.2,1.1,0.3c0.43,0.11,0.87,0.21,1.29,0.34
			c0.54,0.17,1.08,0.36,1.62,0.56c0.56,0.2,1.11,0.42,1.65,0.65c0.53,0.23,1.06,0.47,1.58,0.73C36.63,66.23,37.06,66.48,37.52,66.73
			z M56.32,27.6c0.05,0.11,0.08,0.17,0.12,0.24c0.23,0.39,0.48,0.77,0.69,1.17c0.21,0.39,0.4,0.79,0.58,1.2
			c0.17,0.37,0.32,0.74,0.46,1.11c0.14,0.35,0.26,0.72,0.39,1.08c0.09,0.27,0.18,0.54,0.26,0.81c0.07,0.26,0.13,0.53,0.19,0.8
			c0.07,0.33,0.15,0.66,0.21,1c0.04,0.23,0.06,0.46,0.09,0.69c0.05,0.35,0.1,0.7,0.15,1.05c0.01,0.07,0.01,0.13,0.02,0.2
			c0.05,0.42,0.14,0.83,0.14,1.25c0,0.72-0.04,1.44-0.07,2.16c-0.02,0.33-0.05,0.66-0.08,1c0,0.01-0.01,0.03-0.01,0.04
			c-0.05,0.3-0.1,0.61-0.15,0.91c-0.01,0.04,0,0.08-0.01,0.12c-0.08,0.35-0.15,0.69-0.23,1.03c-0.02,0.1-0.06,0.19-0.08,0.28
			c-0.07,0.3-0.14,0.6-0.22,0.9c-0.08,0.26-0.17,0.52-0.26,0.78c-0.12,0.36-0.22,0.73-0.36,1.08c-0.16,0.4-0.34,0.8-0.54,1.19
			c-0.35,0.69-0.69,1.38-1.08,2.04c-0.3,0.5-0.65,0.97-1,1.43c-0.38,0.51-0.76,1.03-1.2,1.49c-0.82,0.85-1.62,1.71-2.57,2.43
			c-0.37,0.28-0.72,0.59-1.11,0.85c-0.49,0.33-1.01,0.63-1.52,0.93c-0.38,0.22-0.76,0.44-1.15,0.63c-0.53,0.25-1.08,0.46-1.62,0.69
			c-0.28,0.12-0.56,0.23-0.84,0.33c-0.25,0.09-0.5,0.17-0.75,0.24c-0.35,0.09-0.7,0.17-1.05,0.26c-0.26,0.06-0.52,0.13-0.79,0.18
			c-0.26,0.05-0.53,0.1-0.8,0.14c-0.09,0.01-0.18-0.01-0.26,0.01c-0.51,0.17-1.04,0.19-1.57,0.22c-0.16,0.01-0.19,0.09-0.2,0.21
			c-0.01,0.27,0,0.55,0,0.82c0,1.33-0.01,2.66-0.01,3.99c0,0.57-0.01,1.14,0.01,1.71c0.02,0.41,0.03,0.41,0.4,0.23
			c0.57-0.29,1.14-0.59,1.72-0.86c0.51-0.24,1.02-0.47,1.54-0.68c0.54-0.22,1.09-0.41,1.64-0.6c0.3-0.1,0.59-0.2,0.89-0.29
			c0.34-0.1,0.68-0.21,1.02-0.3c0.27-0.07,0.55-0.12,0.82-0.19c0.27-0.07,0.55-0.14,0.82-0.21c0.18-0.04,0.36-0.08,0.54-0.11
			c0.21-0.04,0.42-0.06,0.63-0.1c0.36-0.07,0.72-0.16,1.08-0.22c0.38-0.07,0.76-0.12,1.14-0.16c0.49-0.06,0.99-0.11,1.48-0.16
			c0.35-0.03,0.69-0.06,1.04-0.08c0.72-0.03,1.45-0.08,2.17-0.08c0.92,0,1.84,0.04,2.76,0.08c0.46,0.02,0.92,0.05,1.38,0.08
			c0.02,0,0.04,0.01,0.06,0.01c0.42,0.05,0.84,0.1,1.27,0.15c0.37,0.04,0.74,0.02,1.1,0.1c0.19,0.04,0.28-0.02,0.39-0.13
			c0.22-0.24,0.45-0.48,0.65-0.74c0.13-0.17,0.33-0.3,0.33-0.57c0-11,0-21.99,0-32.99c0-0.19-0.09-0.26-0.23-0.29
			C64.37,28.1,64,28.05,63.64,28c-0.35-0.04-0.7-0.06-1.05-0.09c-0.03,0-0.05,0-0.08-0.01c-0.33-0.05-0.65-0.11-0.98-0.15
			c-0.36-0.04-0.73-0.06-1.1-0.08c-0.75-0.03-1.5-0.06-2.25-0.08c-0.54-0.01-1.09,0-1.63,0C56.48,27.6,56.42,27.6,56.32,27.6z
			 M24.12,70.26c-0.01,0.02-0.01,0.04-0.02,0.05c3.57,1.67,7.34,2.71,11.26,3.09c6.07,0.58,11.91-0.39,17.51-2.8
			c0.21-0.09,0.41-0.21,0.61-0.32c-0.01-0.01-0.01-0.02-0.02-0.04L24.12,70.26z M33.6,37.61c0.72,0,1.44,0,2.16,0
			c0.52,0,1.05,0,1.57,0c0.25,0,0.31-0.07,0.28-0.32c-0.01-0.08-0.02-0.16-0.02-0.24c0-1.07,0-2.15,0-3.22c0-0.48,0-0.97,0-1.45
			c0-0.86,0.01-1.72,0.02-2.58c0-0.14-0.06-0.2-0.2-0.18c-0.24,0.02-0.47,0.07-0.71,0.07c-0.59,0-1.17,0.07-1.75,0.16
			c-0.43,0.07-0.86,0.11-1.3,0.16c-0.4,0.05-0.8,0.11-1.2,0.17c-0.17,0.03-0.34,0.06-0.5,0.1c-0.29,0.07-0.59,0.14-0.88,0.22
			c-0.23,0.07-0.51,0.08-0.58,0.37c-0.07,0.28-0.11,0.57-0.17,0.85c-0.02,0.1-0.06,0.19-0.07,0.29c-0.03,0.22-0.06,0.45-0.09,0.67
			c-0.03,0.2-0.05,0.39-0.09,0.58c-0.08,0.42-0.17,0.84-0.23,1.26c-0.07,0.49-0.12,0.97-0.16,1.46c-0.04,0.44-0.06,0.88-0.08,1.32
			c-0.01,0.28,0.02,0.3,0.3,0.3C31.14,37.61,32.37,37.61,33.6,37.61z M33.59,40.04c-1.07,0-2.14,0-3.2,0c-0.21,0-0.42-0.01-0.62,0
			c-0.05,0-0.14,0.06-0.14,0.09c-0.01,0.26-0.02,0.52,0.01,0.78c0.03,0.38,0.1,0.76,0.14,1.14c0.04,0.35,0.06,0.7,0.08,1.05
			c0,0.01,0,0.03,0.01,0.04c0.05,0.28,0.11,0.56,0.15,0.84c0.04,0.23,0.05,0.46,0.09,0.69c0.03,0.19,0.06,0.38,0.1,0.56
			c0.04,0.2,0.09,0.39,0.14,0.59c0.06,0.3,0.1,0.6,0.18,0.89c0.04,0.12,0.14,0.28,0.25,0.32c0.34,0.12,0.71,0.19,1.06,0.27
			c0.19,0.04,0.39,0.06,0.58,0.09c0.28,0.05,0.56,0.1,0.83,0.15c0.21,0.03,0.42,0.06,0.63,0.09c0.37,0.05,0.74,0.11,1.12,0.15
			c0.36,0.04,0.73,0.06,1.1,0.09c0.02,0,0.04,0.01,0.06,0.01c0.41,0.05,0.83,0.1,1.24,0.14c0.13,0.01,0.2-0.06,0.2-0.21
			c-0.01-0.94-0.02-1.88-0.01-2.82c0-1.55,0.02-3.1,0.02-4.65c0-0.27-0.04-0.31-0.31-0.31C36.06,40.04,34.83,40.04,33.59,40.04z
			 M40.04,33.58c0,1.24,0,2.48,0,3.73c0,0.31,0,0.31,0.32,0.31c1.3,0,2.59,0,3.89,0c1.16,0,2.31,0,3.47,0c0.23,0,0.32-0.1,0.28-0.3
			c-0.03-0.16-0.05-0.33-0.07-0.49c-0.01-0.16,0-0.32-0.02-0.48c-0.04-0.39-0.1-0.77-0.14-1.16c-0.04-0.35-0.06-0.7-0.09-1.05
			c0-0.02-0.01-0.04-0.01-0.06c-0.05-0.25-0.1-0.5-0.14-0.76c-0.04-0.23-0.06-0.46-0.09-0.69c-0.02-0.16-0.06-0.32-0.09-0.48
			c-0.07-0.33-0.15-0.66-0.22-0.99c-0.03-0.14-0.05-0.29-0.09-0.42c-0.02-0.06-0.1-0.11-0.16-0.13c-0.18-0.06-0.36-0.11-0.55-0.16
			c-0.14-0.04-0.28-0.06-0.42-0.09c-0.21-0.03-0.42-0.05-0.63-0.09c-0.35-0.07-0.7-0.17-1.06-0.23c-0.42-0.07-0.84-0.11-1.26-0.17
			c-0.43-0.05-0.86-0.12-1.3-0.16c-0.46-0.04-0.93-0.05-1.4-0.09c-0.17-0.01-0.21,0.05-0.21,0.22
			C40.04,31.08,40.04,32.33,40.04,33.58z M40.04,44.03c0,1.26,0,2.51,0,3.77c0,0.18,0.05,0.27,0.24,0.24
			c0.18-0.03,0.35-0.06,0.53-0.08c0.4-0.03,0.8-0.06,1.19-0.09c0.01,0,0.03,0,0.04-0.01c0.34-0.05,0.68-0.11,1.02-0.15
			c0.3-0.04,0.59-0.06,0.89-0.09c0.02,0,0.04-0.01,0.06-0.01c0.22-0.05,0.45-0.1,0.67-0.14c0.36-0.06,0.72-0.1,1.07-0.17
			c0.33-0.06,0.65-0.16,0.97-0.23c0.17-0.04,0.27-0.13,0.31-0.31c0.03-0.18,0.1-0.35,0.14-0.53c0.06-0.27,0.13-0.55,0.18-0.83
			c0.04-0.23,0.05-0.46,0.09-0.69c0.07-0.39,0.17-0.77,0.23-1.16c0.07-0.51,0.12-1.02,0.16-1.53c0.04-0.49,0.06-0.98,0.09-1.47
			c0-0.07,0.01-0.15,0.03-0.22c0.05-0.24,0.01-0.3-0.25-0.3c-2.48,0-4.96,0-7.43,0c-0.17,0-0.23,0.04-0.23,0.22
			C40.04,41.51,40.04,42.77,40.04,44.03z M34.11,67.78c0-0.02,0-0.04,0.01-0.05c-0.24-0.09-0.49-0.17-0.73-0.27
			c-0.46-0.18-0.91-0.37-1.37-0.55c-0.23-0.09-0.46-0.18-0.7-0.25c-0.32-0.1-0.64-0.18-0.97-0.27c-0.37-0.1-0.74-0.2-1.11-0.31
			c-0.16-0.04-0.31-0.09-0.47-0.13c-0.26-0.07-0.52-0.13-0.79-0.19c-0.2-0.04-0.41-0.06-0.61-0.1c-0.34-0.07-0.68-0.16-1.02-0.22
			c-0.36-0.07-0.73-0.12-1.1-0.16c-0.35-0.04-0.7-0.06-1.05-0.09c-0.04,0-0.08,0-0.12-0.01c-0.41-0.05-0.83-0.11-1.24-0.15
			c-0.39-0.03-0.79-0.05-1.18-0.05c-0.92-0.02-1.84-0.02-2.76-0.03c-0.21,0-0.43-0.01-0.64,0.02c-0.6,0.07-1.2,0.13-1.81,0.07
			c-0.07-0.01-0.14,0.04-0.22,0.06c0.04,0.06,0.06,0.13,0.11,0.18c0.34,0.29,0.68,0.57,1.03,0.85c0.16,0.13,0.32,0.26,0.49,0.38
			c0.42,0.31,0.85,0.6,1.27,0.91c0.3,0.22,0.59,0.38,0.99,0.38c4.5-0.01,9,0,13.5,0.01C33.77,67.81,33.94,67.79,34.11,67.78z
			 M61.41,65.11c-0.01-0.02-0.02-0.04-0.03-0.07c-0.18,0.01-0.35,0.04-0.53,0.03c-0.53-0.03-1.06-0.11-1.58-0.1
			c-1.57,0.01-3.14,0.05-4.71,0.08c-0.03,0-0.07,0.01-0.1,0.01c-0.43,0.05-0.86,0.1-1.29,0.14c-0.28,0.03-0.56,0.05-0.83,0.09
			c-0.44,0.07-0.88,0.16-1.33,0.23c-0.35,0.06-0.7,0.11-1.05,0.17c-0.15,0.03-0.3,0.06-0.44,0.09c-0.29,0.07-0.57,0.15-0.86,0.22
			c-0.36,0.09-0.73,0.16-1.09,0.26c-0.32,0.09-0.64,0.2-0.95,0.31c-0.5,0.17-0.99,0.34-1.48,0.52c-0.33,0.12-0.66,0.25-1,0.37
			c-0.22,0.08-0.43,0.18-0.64,0.26c0.05,0.04,0.1,0.05,0.15,0.05c4.67,0,9.35,0,14.02,0.01c0.25,0,0.43-0.1,0.61-0.23
			c0.27-0.18,0.53-0.38,0.79-0.57c0.36-0.26,0.72-0.53,1.07-0.8c0.2-0.15,0.4-0.31,0.59-0.47C60.96,65.52,61.18,65.31,61.41,65.11z
			 M45.58,21.78c0.23,0.33,0.45,0.63,0.65,0.93c0.22,0.33,0.44,0.66,0.63,1.01c0.28,0.5,0.53,1.01,0.78,1.51
			c0.15,0.29,0.31,0.58,0.43,0.89c0.26,0.68,0.5,1.37,0.75,2.05c0.08,0.21,0.14,0.45,0.41,0.53c0.27,0.08,0.53,0.17,0.8,0.26
			c0.4,0.14,0.8,0.27,1.18,0.44c0.6,0.27,1.19,0.56,1.78,0.85c0.8,0.4,1.57,0.83,2.26,1.4c0.14,0.11,0.3,0.21,0.47,0.33
			c0.01-0.08,0.03-0.14,0.01-0.17c-1.02-2.22-2.31-4.25-4.04-5.99c-1.73-1.74-3.76-2.99-5.95-4.04
			C45.71,21.77,45.65,21.78,45.58,21.78z M32.03,21.8c-0.01-0.01-0.02-0.03-0.03-0.04c-3.09,1.36-5.77,3.25-7.78,6.03
			c-0.95,1.32-1.77,2.7-2.42,4.23c0.16-0.1,0.28-0.19,0.41-0.27c0.72-0.47,1.41-0.96,2.15-1.39c0.56-0.32,1.17-0.58,1.77-0.83
			c0.72-0.31,1.45-0.62,2.22-0.81c0.11-0.03,0.26-0.12,0.3-0.23c0.16-0.38,0.27-0.77,0.42-1.15c0.22-0.57,0.44-1.15,0.7-1.71
			c0.28-0.6,0.58-1.18,0.91-1.75c0.33-0.56,0.7-1.1,1.05-1.65C31.81,22.07,31.92,21.94,32.03,21.8z M21.83,45.63
			c2.01,4.79,5.4,8.19,10.23,10.23c-0.16-0.23-0.3-0.42-0.43-0.6c-0.21-0.3-0.43-0.58-0.62-0.89c-0.25-0.41-0.49-0.83-0.71-1.26
			c-0.26-0.49-0.51-0.99-0.74-1.5c-0.14-0.31-0.25-0.65-0.37-0.98c-0.16-0.44-0.3-0.88-0.46-1.32c-0.07-0.19-0.15-0.37-0.4-0.4
			c-0.13-0.01-0.25-0.07-0.37-0.12c-0.3-0.11-0.6-0.23-0.9-0.35c-0.58-0.23-1.16-0.45-1.72-0.72c-0.6-0.28-1.18-0.6-1.74-0.94
			c-0.43-0.25-0.83-0.55-1.24-0.83C22.16,45.85,21.99,45.74,21.83,45.63z M45.61,55.76c0.01,0.01,0.03,0.03,0.04,0.04
			c2.16-0.92,4.13-2.15,5.82-3.79c1.88-1.82,3.32-3.94,4.32-6.42c-0.08,0.04-0.11,0.06-0.14,0.08c-0.32,0.24-0.63,0.5-0.97,0.72
			c-0.43,0.28-0.87,0.57-1.33,0.8c-0.78,0.39-1.57,0.76-2.37,1.1c-0.57,0.24-1.16,0.42-1.73,0.65c-0.14,0.06-0.3,0.17-0.36,0.3
			c-0.14,0.31-0.22,0.66-0.34,0.98c-0.24,0.64-0.47,1.28-0.75,1.91c-0.22,0.5-0.48,0.99-0.76,1.46c-0.34,0.58-0.72,1.14-1.09,1.71
			C45.86,55.45,45.73,55.6,45.61,55.76z M49.74,31.45c0.05,0.35,0.09,0.64,0.13,0.94c0.04,0.29,0.1,0.57,0.14,0.86
			c0.04,0.28,0.05,0.55,0.09,0.83c0.04,0.33,0.11,0.65,0.15,0.98c0.04,0.31,0.06,0.62,0.08,0.93c0.03,0.45,0.06,0.91,0.08,1.36
			c0.01,0.19,0.08,0.26,0.26,0.26c1.99,0,3.99,0,5.98-0.01c0.1,0,0.19-0.05,0.33-0.08c-0.18-0.37-0.32-0.71-0.49-1.03
			c-0.36-0.69-0.85-1.29-1.4-1.83c-0.27-0.26-0.58-0.49-0.88-0.72c-0.33-0.26-0.65-0.53-1.01-0.74c-0.57-0.34-1.15-0.65-1.74-0.95
			C50.92,31.97,50.35,31.73,49.74,31.45z M31.46,49.78c0.17,0.39,0.3,0.72,0.46,1.04c0.24,0.51,0.48,1.01,0.75,1.51
			c0.23,0.43,0.47,0.85,0.75,1.24c0.31,0.43,0.67,0.83,0.98,1.26c0.4,0.54,0.94,0.94,1.47,1.32c0.46,0.33,1.02,0.54,1.54,0.8
			c0.14,0.07,0.21,0.01,0.2-0.14c-0.01-0.23-0.03-0.45-0.02-0.68c0.01-1.27,0.02-2.55,0.02-3.82c0-0.52,0-1.03,0-1.55
			c0-0.23-0.07-0.3-0.3-0.3c-0.11,0-0.22,0-0.32-0.01c-0.49-0.05-0.98-0.11-1.47-0.15c-0.4-0.04-0.81-0.06-1.21-0.08
			c-0.01,0-0.03,0-0.04-0.01c-0.3-0.05-0.61-0.11-0.91-0.15c-0.3-0.04-0.61-0.06-0.91-0.09c-0.03,0-0.06-0.02-0.09-0.03
			C32.07,49.89,31.79,49.84,31.46,49.78z M46.13,27.84c-0.17-0.39-0.32-0.74-0.48-1.08c-0.28-0.6-0.55-1.22-0.87-1.8
			c-0.24-0.44-0.53-0.84-0.83-1.24c-0.33-0.44-0.66-0.89-1.04-1.28c-0.38-0.38-0.83-0.71-1.26-1.04c-0.44-0.34-0.97-0.54-1.48-0.74
			c-0.03-0.01-0.1,0.03-0.11,0.07c-0.02,0.04-0.01,0.11-0.01,0.16c0,2.01,0,4.03,0,6.04c0,0.04-0.01,0.09,0,0.12
			c0.04,0.05,0.09,0.13,0.14,0.13c0.47,0.04,0.93,0.06,1.4,0.09c0.44,0.03,0.88,0.05,1.32,0.08c0.01,0,0.03,0,0.04,0
			c0.34,0.05,0.68,0.11,1.02,0.15c0.26,0.04,0.53,0.05,0.78,0.09c0.22,0.04,0.43,0.11,0.65,0.14
			C45.62,27.79,45.86,27.81,46.13,27.84z M23.87,37.61c0.99,0,1.99,0,2.98,0c0.31,0,0.34-0.03,0.34-0.33c0-0.25-0.01-0.5,0.01-0.74
			c0.04-0.43,0.11-0.85,0.14-1.28c0.04-0.42,0.05-0.85,0.09-1.27c0.02-0.2,0.06-0.41,0.09-0.61c0.05-0.28,0.1-0.56,0.15-0.83
			c0.05-0.29,0.1-0.58,0.15-0.87c0.01-0.06-0.01-0.12-0.01-0.17c-0.05,0.01-0.11,0.01-0.16,0.04c-0.11,0.05-0.21,0.12-0.31,0.17
			c-0.4,0.18-0.81,0.34-1.2,0.54c-0.59,0.3-1.17,0.61-1.74,0.94c-0.29,0.17-0.56,0.37-0.83,0.57c-0.21,0.16-0.39,0.35-0.59,0.5
			c-0.51,0.37-0.93,0.83-1.29,1.34c-0.39,0.55-0.77,1.11-0.99,1.76c-0.08,0.23-0.08,0.25,0.17,0.25
			C21.87,37.61,22.87,37.61,23.87,37.61z M37.61,21c0-0.29-0.09-0.36-0.35-0.26c-0.87,0.33-1.62,0.86-2.3,1.48
			c-0.58,0.53-1.07,1.15-1.49,1.81c-0.33,0.51-0.66,1.03-0.94,1.57c-0.36,0.68-0.68,1.39-1.02,2.08c-0.07,0.15-0.01,0.17,0.11,0.16
			c0.12-0.01,0.23-0.06,0.35-0.08c0.24-0.04,0.47-0.05,0.71-0.09c0.42-0.07,0.84-0.17,1.26-0.23c0.5-0.07,1-0.12,1.5-0.16
			c0.55-0.04,1.09-0.06,1.64-0.09c0.07,0,0.16,0.02,0.22-0.01c0.11-0.06,0.3,0,0.31-0.2c0.01-0.18,0-0.36,0-0.54
			C37.61,24.62,37.61,22.81,37.61,21z M40.04,53.68c0,1,0,2,0,3c0,0.27,0.03,0.29,0.29,0.24c0.04-0.01,0.08-0.03,0.11-0.04
			c0.33-0.17,0.66-0.33,0.98-0.52c0.41-0.23,0.8-0.49,1.12-0.84c0.16-0.17,0.33-0.34,0.5-0.5c0.54-0.49,0.94-1.1,1.35-1.7
			c0.29-0.43,0.53-0.91,0.76-1.39c0.3-0.62,0.57-1.25,0.85-1.88c0.03-0.06,0.03-0.14,0.04-0.2c-0.08-0.01-0.16-0.04-0.23-0.03
			c-0.25,0.04-0.5,0.1-0.76,0.15c-0.35,0.06-0.7,0.12-1.06,0.16c-0.47,0.06-0.95,0.11-1.42,0.16c-0.28,0.03-0.56,0.06-0.84,0.07
			c-0.49,0.03-0.97,0.07-1.46,0.08c-0.19,0-0.25,0.04-0.25,0.24C40.04,51.69,40.04,52.68,40.04,53.68z M27.85,46.15
			c-0.05-0.3-0.08-0.55-0.12-0.79c-0.04-0.24-0.1-0.48-0.13-0.72c-0.04-0.26-0.05-0.53-0.09-0.79c-0.04-0.31-0.11-0.62-0.15-0.94
			c-0.04-0.29-0.06-0.58-0.08-0.88c-0.03-0.57-0.06-1.14-0.09-1.7c-0.01-0.25-0.05-0.3-0.29-0.3c-2.01,0-4.03,0-6.04,0
			c-0.07,0-0.14,0.02-0.23,0.03c0.1,0.23,0.18,0.43,0.26,0.63c0.32,0.74,0.77,1.4,1.31,1.98c0.42,0.45,0.91,0.85,1.4,1.23
			c0.43,0.33,0.88,0.62,1.36,0.88c0.76,0.41,1.55,0.77,2.33,1.14C27.45,46,27.62,46.06,27.85,46.15z M53.66,40.04
			c-1.01,0-2.03,0-3.04,0c-0.16,0-0.22,0.04-0.21,0.2c0.01,0.19,0,0.38-0.01,0.56c-0.04,0.49-0.1,0.98-0.14,1.47
			c-0.03,0.34-0.05,0.69-0.09,1.03c-0.02,0.25-0.05,0.49-0.09,0.73c-0.05,0.31-0.1,0.62-0.15,0.94c-0.01,0.04-0.02,0.08-0.02,0.12
			c-0.05,0.3-0.1,0.59-0.14,0.89c-0.01,0.1,0.05,0.13,0.14,0.1c0.27-0.11,0.54-0.2,0.8-0.33c0.66-0.33,1.32-0.66,1.97-1.03
			c0.5-0.29,1-0.59,1.45-0.95c0.46-0.36,0.85-0.79,1.28-1.18c0.41-0.38,0.69-0.85,0.98-1.32c0.19-0.3,0.33-0.64,0.47-0.97
			c0.08-0.19,0.02-0.27-0.19-0.27C55.68,40.04,54.67,40.04,53.66,40.04z"/>
		<path d="M40.72,1.64c0.13,0.04,0.26,0.09,0.39,0.12c0.41,0.09,0.54,0.43,0.7,0.75c0.22,0.46-0.08,1.12-0.47,1.38
			c-0.27,0.17-0.58,0.21-0.9,0.21c-0.72-0.01-1.43-0.04-2.15-0.04c-0.38,0-0.75,0.04-1.13,0.03c-0.27-0.01-0.55-0.01-0.78-0.17
			c-0.28-0.2-0.46-0.44-0.56-0.78c-0.15-0.49,0.04-0.86,0.37-1.17c0.14-0.14,0.38-0.18,0.58-0.26c0.05-0.02,0.11-0.04,0.16-0.06
			C38.2,1.64,39.46,1.64,40.72,1.64z"/>
		<path d="M25.08,5.09c0.08-0.58,0.22-0.96,0.91-1.21c0.59-0.21,1.18-0.43,1.77-0.62c0.42-0.14,0.86-0.23,1.29-0.35
			c0.21-0.06,0.43-0.1,0.65-0.17c0.32-0.09,0.57,0.03,0.81,0.22c0.32,0.25,0.52,0.61,0.55,1c0.03,0.4-0.17,0.77-0.53,0.96
			c-0.33,0.18-0.69,0.29-1.04,0.41c-0.5,0.17-1,0.31-1.5,0.47c-0.55,0.17-1.09,0.37-1.65,0.48c-0.21,0.04-0.48-0.08-0.68-0.21
			c-0.26-0.17-0.44-0.42-0.48-0.75C25.15,5.23,25.1,5.14,25.08,5.09z"/>
		<path d="M52.53,4.97c-0.08,0.64-0.32,1.01-0.84,1.26c-0.29,0.14-0.54,0.04-0.8-0.03c-0.4-0.11-0.79-0.25-1.18-0.38
			c-0.29-0.1-0.57-0.21-0.86-0.3c-0.24-0.07-0.5-0.11-0.74-0.19c-0.37-0.12-0.77-0.19-1.08-0.45c-0.32-0.28-0.48-0.63-0.42-1.07
			c0.07-0.53,0.39-0.87,0.87-1.04c0.19-0.07,0.43-0.04,0.63,0c0.37,0.08,0.72,0.19,1.08,0.3c0.39,0.12,0.78,0.26,1.17,0.38
			c0.37,0.12,0.74,0.21,1.11,0.35c0.44,0.17,0.86,0.37,0.97,0.9C52.47,4.82,52.51,4.92,52.53,4.97z"/>
		<path d="M60.85,11.57c-0.42,0.02-0.72-0.22-1.03-0.43c-0.38-0.26-0.74-0.54-1.11-0.8c-0.49-0.34-1-0.67-1.49-1.01
			c-0.36-0.26-0.58-0.62-0.62-1.07C56.59,8.14,56.6,8,56.65,7.9c0.25-0.49,0.56-0.89,1.22-0.86c0.2,0.01,0.42,0.1,0.6,0.2
			c0.42,0.24,0.82,0.51,1.22,0.78c0.53,0.36,1.06,0.73,1.57,1.11c0.32,0.24,0.64,0.52,0.77,0.92c0.09,0.28,0.03,0.57-0.13,0.84
			C61.66,11.32,61.32,11.54,60.85,11.57z"/>
		<path d="M68.3,19.48c-0.24,0.03-0.47-0.08-0.63-0.25c-0.31-0.32-0.58-0.67-0.86-1.01c-0.21-0.26-0.41-0.52-0.62-0.78
			c-0.26-0.33-0.52-0.67-0.77-1.01c-0.13-0.18-0.27-0.36-0.39-0.55c-0.25-0.41-0.22-0.9,0.13-1.26c0.27-0.28,0.57-0.5,0.99-0.48
			c0.44,0.03,0.76,0.26,1.02,0.58c0.18,0.21,0.35,0.44,0.52,0.66c0.35,0.46,0.72,0.91,1.06,1.37c0.24,0.33,0.48,0.66,0.68,1.02
			c0.24,0.44,0.19,0.86-0.19,1.27C68.99,19.31,68.71,19.49,68.3,19.48z"/>
		<path d="M16.81,11.6c-0.61-0.09-0.94-0.34-1.18-0.93c-0.19-0.47,0.03-0.82,0.27-1.16c0.12-0.17,0.33-0.29,0.5-0.42
			c0.35-0.26,0.71-0.52,1.07-0.77c0.28-0.19,0.57-0.38,0.86-0.56c0.25-0.16,0.5-0.33,0.75-0.49c0.53-0.33,0.99-0.33,1.47,0.05
			c0.24,0.19,0.35,0.48,0.43,0.79c0.16,0.61-0.21,0.93-0.62,1.22c-0.55,0.39-1.1,0.77-1.65,1.15c-0.48,0.33-0.96,0.65-1.45,0.97
			C17.12,11.52,16.95,11.55,16.81,11.6z"/>
		<path d="M11.58,14.14c0.41-0.06,0.95,0.42,1.09,0.89c0.12,0.42,0.01,0.74-0.21,1.05c-0.28,0.39-0.6,0.76-0.89,1.14
			c-0.28,0.37-0.55,0.77-0.84,1.13c-0.24,0.3-0.48,0.61-0.77,0.86C9.69,19.43,9.38,19.54,9,19.42c-0.34-0.11-0.61-0.28-0.77-0.57
			C8,18.45,8.01,18.03,8.24,17.63c0.16-0.27,0.34-0.51,0.52-0.76c0.2-0.27,0.4-0.54,0.61-0.81c0.16-0.21,0.33-0.42,0.5-0.62
			c0.24-0.3,0.48-0.6,0.73-0.89C10.84,14.25,11.17,14.14,11.58,14.14z"/>
	</g>
</g>
</svg>
